<svg width="87" height="36" viewBox="0 0 87 36" fill="none" xmlns="http://www.w3.org/2000/svg">
<path fill-rule="evenodd" clip-rule="evenodd" d="M20.6481 5.9643C18.614 11.0855 15.9078 17.944 14.382 21.8447L13.9766 22.8814L14.6127 24.4563C14.9626 25.3225 15.4065 26.4162 15.5989 26.8866C15.7914 27.3573 16.2763 28.5527 16.6765 29.5434C17.0767 30.5338 17.6054 31.8409 17.8514 32.4477C18.0971 33.0545 18.324 33.5502 18.3557 33.5497C18.3872 33.5491 18.8226 32.5259 19.3234 31.2757C19.8242 30.0257 21.1144 26.8147 22.1909 24.14C23.2674 21.4653 24.8804 17.4532 25.7754 15.2244C26.6706 12.9955 27.684 10.4837 28.0273 9.64264C28.3706 8.80159 28.6352 8.05066 28.6153 7.97405C28.5849 7.85748 27.7643 6.65378 25.8839 3.96722C25.7103 3.71948 25.4023 3.27388 25.1992 2.97654C24.3039 1.66729 23.254 0.175066 23.1506 0.0653882C23.0593 -0.0316134 22.5889 1.07701 20.6481 5.9643ZM5.41867 6.96049C5.25356 7.19638 3.9934 9.00524 2.6187 10.9803L0.119141 14.571L0.407257 15.258C1.00864 16.6921 4.56471 25.2762 5.05675 26.4815C5.33967 27.1749 6.29996 29.4963 7.19055 31.6402C8.08114 33.7842 8.80963 35.5773 8.80963 35.6253C8.80963 35.6799 10.4178 35.7121 13.1483 35.7121H17.487L17.4241 35.5096C17.3596 35.3018 16.1429 32.2622 15.2879 30.1736C15.0244 29.5299 14.5482 28.3546 14.2297 27.562C13.4173 25.541 12.5942 23.5045 11.8455 21.6634C10.7868 19.0598 9.22295 15.1739 6.35956 8.03192C5.69202 6.36608 5.77157 6.45674 5.41867 6.96049ZM39.7408 20.991L38.3784 22.4615V23.6833C38.3784 24.3555 38.4036 24.9055 38.4339 24.9055C38.4645 24.9055 38.8964 24.5542 39.3942 24.1248C39.892 23.6955 40.3285 23.3193 40.3646 23.2887C40.4379 23.2267 41.1674 19.6911 41.1281 19.5872C41.1144 19.5506 40.4901 20.1822 39.7408 20.991ZM26.5867 22.5455C26.5867 22.5849 27.5549 25.2698 28.738 28.5117C29.9214 31.7538 30.9768 34.6495 31.0834 34.9466L31.2772 35.487L31.746 35.5142C32.018 35.5299 32.2145 35.5035 32.2145 35.4511C32.2145 35.4013 33.2648 32.532 34.5482 29.0749C35.8316 25.6176 36.9015 22.718 36.9258 22.6315C37.0125 22.3231 35.9868 22.4102 35.8666 22.7216C35.7602 22.9966 34.3538 26.9335 32.7883 31.3377C32.2263 32.9192 31.7542 34.2251 31.7392 34.2403C31.7244 34.2551 30.7718 31.6141 29.6226 28.3706L27.5331 22.4739H27.0599C26.7997 22.4739 26.5867 22.5061 26.5867 22.5455ZM43.9212 25.7187C42.2978 26.0621 41.4077 27.4102 41.8957 28.7859C42.1955 29.6316 42.789 30.0557 44.8484 30.8956C47.0585 31.797 47.6755 32.4063 47.4459 33.4604C47.1632 34.7572 44.627 35.2781 42.4481 34.4866C41.4132 34.1107 41.505 34.0942 41.505 34.6561C41.505 35.2354 41.6149 35.3087 42.871 35.5705C46.0296 36.228 48.3706 35.1397 48.3777 33.0104C48.3824 31.6686 47.7277 31.0657 45.1964 30.0794C43.4163 29.3858 42.9486 29.0493 42.7545 28.3234C42.3522 26.8161 44.524 26.0023 46.9781 26.7411C47.4087 26.8706 47.7963 26.9767 47.8392 26.9767C47.9333 26.9767 48.2323 26.2539 48.1661 26.1869C47.8031 25.821 44.9335 25.5043 43.9212 25.7187ZM53.2989 25.7653C49.6393 26.7935 49.1234 33.6412 52.5822 35.2819C53.6898 35.8074 55.6175 35.8598 57.0264 35.4029L57.7634 35.164V34.7079C57.7634 34.3094 57.7437 34.2601 57.607 34.3158C54.0736 35.7606 51.2608 34.3579 51.2438 31.1428L51.2422 30.8513L54.6988 30.8276L58.1553 30.8041L58.134 29.9036C58.0599 26.7648 56.004 25.0053 53.2989 25.7653ZM71.5369 25.7664C68.244 26.6598 67.3764 32.8296 70.2516 34.9052C71.8616 36.0676 76.0765 35.9477 76.0765 34.7399C76.0765 34.2612 76.0768 34.2612 75.2015 34.5445C71.9587 35.5928 69.8776 34.4133 69.5152 31.3219L69.4597 30.8491H72.9468H76.4338L76.4307 30.1962C76.4146 26.8651 74.3563 25.0017 71.5369 25.7664ZM82.017 25.754C81.2872 25.9386 80.9416 26.1255 80.4548 26.5984C80.2011 26.845 79.9794 27.0004 79.9622 26.9442C79.9447 26.8877 79.9048 26.6086 79.8731 26.3239L79.8154 25.8061H79.4199H79.0243V30.6691V35.5322H79.4625H79.901L79.9384 32.2674C79.9811 28.5701 80.0377 28.2044 80.685 27.4422C81.7243 26.2181 84.3077 26.1062 85.2016 27.2468C85.6767 27.8533 85.7243 28.292 85.7243 32.0839V35.5322H86.1753H86.6266L86.5998 31.727C86.57 27.5281 86.5621 27.4656 85.947 26.6526C85.279 25.77 83.5333 25.3707 82.017 25.754ZM38.2893 30.6691V35.5322H38.736H39.1826V30.6691V25.8061H38.736H38.2893V30.6691ZM59.1927 25.8557C59.1927 25.8912 62.3989 34.321 62.8303 35.4194C62.8696 35.5197 63.8381 35.5947 63.8381 35.4974C63.8381 35.4784 64.662 33.3086 65.6693 30.6755C67.8083 25.0835 67.6074 25.8061 67.0243 25.8061C66.5659 25.8061 66.5443 25.8168 66.4533 26.0987C66.4014 26.2597 65.8298 27.7894 65.1833 29.4982C64.5368 31.207 63.8644 33.0308 63.6889 33.5508C63.5134 34.0708 63.3573 34.5106 63.3417 34.528C63.3264 34.5453 63.2668 34.3833 63.2097 34.1678C63.1523 33.9523 62.6034 32.4386 61.9897 30.8041C61.3763 29.1694 60.7068 27.3771 60.5024 26.8205L60.1309 25.8088L59.6618 25.8075C59.4038 25.8066 59.1927 25.8284 59.1927 25.8557ZM55.2004 26.5325C56.3009 26.8147 57.1382 28.0807 57.1382 29.4627V29.9485H54.2234H51.3086L51.3669 29.5065C51.6509 27.3463 53.3211 26.0505 55.2004 26.5325ZM73.5406 26.5694C74.5984 26.8861 75.4407 28.2675 75.4497 29.701L75.451 29.9485H72.4953H69.5395L69.5982 29.5657C69.952 27.257 71.6151 25.9929 73.5406 26.5694Z" fill="#CCCCCC"/>
</svg>
