<svg width="205" height="30" viewBox="0 0 205 30" fill="none" xmlns="http://www.w3.org/2000/svg">
<path fill-rule="evenodd" clip-rule="evenodd" d="M185.752 3.44051L182.742 6.52287L185.98 9.76036L189.218 12.9979L192.455 9.76036L195.693 6.52287L192.684 3.44051C191.028 1.74507 189.469 0.358154 189.218 0.358154C188.967 0.358154 187.407 1.74507 185.752 3.44051ZM4.74254 11.3117C3.10535 15.206 1.28737 19.5148 0.703534 20.8866C-0.739424 24.274 1.37544 24.4419 3.11527 21.0785C4.19487 18.9905 4.65971 18.7759 8.10322 18.7759C11.5467 18.7759 12.0122 18.9905 13.0918 21.0785C14.0955 23.0195 17.1768 24.586 16.4174 22.7687C12.2921 12.9028 8.39951 4.22145 8.10322 4.22612C7.89208 4.22903 6.37972 7.41754 4.74254 11.3117ZM144.131 5.36691C143.181 6.03646 142.404 7.2554 142.404 8.076C142.404 8.89602 141.886 9.56732 141.253 9.56732C140.55 9.56732 140.102 10.2829 140.102 11.4033C140.102 12.4135 140.62 13.4388 141.253 13.682C142.1 14.0068 142.404 15.3453 142.404 18.752C142.404 23.1775 142.489 23.3805 144.323 23.3805C146.172 23.3805 146.241 23.2014 146.241 18.3921V13.4044H148.544H150.846V18.3921C150.846 23.1758 150.923 23.3805 152.728 23.3805C154.501 23.3805 154.623 23.1017 154.838 18.584C155.055 14.0407 155.168 13.7881 156.985 13.7881C158.803 13.7881 158.916 14.0407 159.133 18.584C159.431 24.845 163.061 26.2155 163.198 20.1191C163.238 18.3251 163.324 15.3034 163.39 13.4044L163.509 9.95108L159.074 9.72012C154.837 9.49966 153.394 8.03226 157.414 8.03226C158.901 8.03226 159.288 7.63625 159.288 6.11403C159.288 4.45766 158.944 4.19521 156.772 4.19521C153.699 4.19521 150.846 6.06329 150.846 8.076C150.846 9.22146 150.312 9.56732 148.544 9.56732C147.278 9.56732 146.241 9.22204 146.241 8.79979C146.241 8.37753 146.956 8.03226 147.829 8.03226C149.038 8.03226 149.359 7.61934 149.173 6.30591C148.868 4.15905 146.476 3.71405 144.131 5.36691ZM74.1025 7.26473C74.1025 8.53092 73.7573 9.56732 73.335 9.56732C72.9133 9.56732 72.568 10.0852 72.568 10.718C72.568 11.3514 72.9133 11.8693 73.335 11.8693C73.7788 11.8693 74.1025 14.2996 74.1025 17.6252C74.1025 22.2292 74.3329 23.3805 75.2539 23.3805C76.1748 23.3805 76.4052 22.2292 76.4052 17.6252C76.4052 12.3808 76.5411 11.8693 77.9397 11.8693C78.7837 11.8693 79.4749 11.492 79.4749 11.03C79.4749 10.5687 78.7837 10.01 77.9397 9.78953C76.8526 9.50549 76.4052 8.74263 76.4052 7.1755C76.4052 5.72035 76.0109 4.96273 75.2539 4.96273C74.4863 4.96273 74.1025 5.73026 74.1025 7.26473ZM81.1424 6.23592C81.2917 7.01278 81.9274 7.6485 82.555 7.6485C84.1998 7.6485 83.9624 5.41882 82.2826 5.09513C81.2573 4.898 80.9446 5.21061 81.1424 6.23592ZM98.6602 6.88097C98.6602 8.56242 98.9933 8.79979 101.347 8.79979H104.033V16.0901C104.033 23.3548 104.039 23.3805 105.951 23.3805C107.863 23.3805 107.87 23.3548 107.87 16.0901V8.79979H110.556C112.909 8.79979 113.241 8.56242 113.241 6.88097C113.241 4.96973 113.216 4.96273 105.951 4.96273C98.6859 4.96273 98.6602 4.96973 98.6602 6.88097ZM194.194 11.8821L191.184 14.9639L194.422 18.202L197.659 21.4395L200.897 18.202L204.135 14.9639L201.125 11.8821C199.47 10.1867 197.91 8.79979 197.659 8.79979C197.408 8.79979 195.849 10.1867 194.194 11.8821ZM19.9951 11.4196C14.6239 16.7906 19.1657 25.3798 26.5228 23.7637C27.8456 23.4732 29.12 22.7354 29.3545 22.1236C29.9412 20.595 28.9975 19.8304 27.8905 20.9373C25.4362 23.3916 19.6148 20.2993 19.6148 16.541C19.6148 12.7477 24.282 10.6165 28.1069 12.6637C29.2303 13.265 29.5913 13.209 29.5913 12.4333C29.5913 9.11298 22.9982 8.41602 19.9951 11.4196ZM33.3696 11.8104C28.1938 16.986 32.7268 25.1704 40.0116 23.8033C48.3206 22.2449 46.9004 9.56732 38.417 9.56732C36.3412 9.56732 35.0307 10.1494 33.3696 11.8104ZM48.0097 15.203C48.0097 23.5665 53.655 27.2059 58.1787 21.7585C59.9885 19.5778 60.1465 9.56732 58.37 9.56732C57.4665 9.56732 57.2192 10.627 57.2192 14.5003C57.2192 24.6484 50.6419 25.0864 50.1613 14.9703C49.8096 7.56743 48.0097 7.76223 48.0097 15.203ZM63.0301 10.7723C61.0273 12.7756 61.8619 15.0876 65.2774 16.9994C70.452 19.8957 67.9242 23.181 62.3991 20.7402C61.4565 20.3238 61.0564 20.4865 61.0564 21.2867C61.0564 22.8194 65.1666 24.4384 67.5422 23.8418C72.0419 22.7127 71.8127 18.0614 67.1397 15.6778C63.2098 13.6732 63.0377 11.5742 66.8393 12.018C68.981 12.2682 69.5048 12.0839 69.3269 11.1426C69.0032 9.42967 64.63 9.17247 63.0301 10.7723ZM81.5209 10.0788C80.3736 11.2266 80.9581 23.3805 82.1607 23.3805C83.0986 23.3805 83.312 22.1015 83.312 16.4739C83.312 10.1395 82.9067 8.69306 81.5209 10.0788ZM87.8573 11.8104C82.6296 17.0379 87.8818 25.7006 95.0354 23.6488C96.4719 23.237 97.6133 22.347 97.7737 21.5147C97.9919 20.3833 97.7539 20.2124 96.6276 20.6912C93.3399 22.0892 91.1352 21.9947 89.5272 20.3868C85.021 15.8808 90.6388 9.57606 96.4089 12.6637C97.5696 13.2848 97.8933 13.2072 97.8933 12.3073C97.8933 8.97476 91.0325 8.63532 87.8573 11.8104ZM113.754 10.0788C113.472 10.3599 113.241 13.4679 113.241 16.9854V23.3805H115.544C117.812 23.3805 117.846 23.321 117.846 19.313C117.846 15.059 118.749 13.4044 121.069 13.4044C122.032 13.4044 122.451 12.8217 122.451 11.4855C122.451 9.38535 120.42 8.83536 118.767 10.4882C118.051 11.2044 117.846 11.2044 117.846 10.4882C117.846 9.52066 114.633 9.1993 113.754 10.0788ZM125.462 11.8104C121.271 16.0003 123.603 23.6721 129.023 23.5251C130.262 23.4913 132.744 23.4429 134.538 23.4166L137.8 23.3694V17.2356C137.8 13.8622 137.886 10.8428 137.992 10.5261C138.097 10.21 137.233 9.84143 136.073 9.70787C134.753 9.55623 133.963 9.82977 133.963 10.4369C133.963 11.1928 133.758 11.2044 133.042 10.4882C131.369 8.81553 127.841 9.43142 125.462 11.8104ZM167.497 11.4132C161.98 16.5252 166.85 25.2036 174.437 23.7806C176.57 23.3799 176.939 22.9868 176.939 21.11C176.939 18.9829 176.862 18.9386 174.635 19.779C171.303 21.0365 168.51 18.3571 169.922 15.2579C170.764 13.4102 171.157 13.2498 173.941 13.6237C176.917 14.0226 177.019 13.9643 176.791 11.9941C176.441 8.96717 170.534 8.59799 167.497 11.4132ZM9.48493 12.445C9.90487 13.6056 10.4642 15.0829 10.7278 15.7285C11.1198 16.6874 10.6608 16.8489 8.21054 16.6156L5.2138 16.3298L6.39138 13.332C7.78418 9.78603 8.45258 9.59414 9.48493 12.445ZM42.0017 13.1396C45.0631 15.9099 42.6193 21.8454 38.417 21.8454C34.2824 21.8454 31.9039 16.3607 34.6988 13.2726C36.2812 11.524 40.1393 11.4535 42.0017 13.1396ZM133.042 14.3253C135.592 16.8752 132.591 21.2733 129.448 19.5918C127.391 18.4907 126.994 16.9026 128.308 15.0269C129.571 13.2241 131.635 12.9185 133.042 14.3253ZM185.752 20.3232L182.742 23.4056L185.98 26.643L189.218 29.8805L192.455 26.643L195.693 23.4056L192.684 20.3232C191.028 18.6283 189.469 17.2414 189.218 17.2414C188.967 17.2414 187.407 18.6283 185.752 20.3232Z" fill="#CCCCCC"/>
</svg>
