<svg width="182" height="38" viewBox="0 0 182 38" fill="none" xmlns="http://www.w3.org/2000/svg">
<path fill-rule="evenodd" clip-rule="evenodd" d="M50.0328 1.51956C47.5506 4.36753 48.8488 7.76487 52.4191 7.76487C55.9514 7.76487 57.4091 3.92604 54.8757 1.29539C53.1472 -0.499404 51.7356 -0.433291 50.0328 1.51956ZM90.6425 1.6039C88.5848 3.74064 89.2551 6.73374 91.9495 7.43585C95.8923 8.46395 98.3635 2.79233 94.829 0.828079C92.6717 -0.370226 92.5166 -0.341348 90.6425 1.6039ZM99.1545 1.28248C95.7752 3.73988 97.5388 8.21851 101.647 7.61366C104.09 7.25424 103.784 5.64561 101.267 5.61218C99.9543 5.5947 99.3872 5.06204 99.3872 3.8455C99.3872 2.47318 99.8907 2.14112 101.761 2.27714C103.747 2.42303 103.97 2.24522 103.126 1.18901C101.857 -0.398342 101.452 -0.389223 99.1545 1.28248ZM2.51584 1.1267C2.51584 1.30755 1.98457 2.77713 1.33475 4.3926L0.15294 7.32947H3.77449H7.3953L6.21422 4.3926C5.56367 2.77713 5.0324 1.30755 5.0324 1.1267C5.0324 0.945856 4.46601 0.797684 3.77449 0.797684C3.08223 0.797684 2.51584 0.945856 2.51584 1.1267ZM8.38685 4.2809C8.38685 7.57718 10.0348 9.47153 10.0912 6.24059C10.1168 4.78925 10.1709 4.78925 11.232 6.24059C11.8445 7.07872 12.8346 7.76487 13.4324 7.76487C14.1671 7.76487 14.0135 7.18586 12.9575 5.97464C11.6674 4.49442 11.5737 3.89033 12.4153 2.49066C13.5385 0.622919 12.656 0.197392 11.071 1.8425C10.288 2.65555 10.0648 2.65555 10.0648 1.8425C10.0648 1.26804 9.68721 0.797684 9.22546 0.797684C8.76444 0.797684 8.38685 2.36528 8.38685 4.2809ZM15.0965 4.2809C15.0965 6.19727 15.4741 7.76487 15.9351 7.76487C16.3968 7.76487 16.7744 7.22233 16.7744 6.55973C16.7744 5.89713 17.5289 5.15018 18.4517 4.89943C21.3122 4.12285 20.6323 0.797684 17.613 0.797684C15.2362 0.797684 15.0965 0.991449 15.0965 4.2809ZM21.8061 4.2809C21.8061 7.48144 21.9942 7.77171 24.1127 7.84618C25.3815 7.89101 28.212 7.99967 30.403 8.08705L34.3867 8.24587V4.52178C34.3867 0.846316 34.3487 0.797684 31.4516 0.797684C28.7623 0.797684 28.5157 1.01197 28.5157 3.35918C28.5157 6.5225 27.7935 7.03085 24.6703 6.0605C22.6059 5.41993 22.5196 5.29 24.1127 5.22693C26.1792 5.14486 26.78 3.4101 24.742 3.4101C22.772 3.4101 23.2689 1.83262 25.3706 1.41242C26.7353 1.13963 26.5034 1.00209 24.532 0.916227C21.8925 0.801487 21.8061 0.907104 21.8061 4.2809ZM35.2261 4.2809C35.2261 8.42139 36.6933 8.87048 38.7832 5.36979L40.2131 2.9747L40.2358 5.36979C40.2482 6.68739 40.6354 7.76487 41.0964 7.76487C41.5581 7.76487 41.9357 6.19727 41.9357 4.2809C41.9357 0.352404 40.8542 -0.131627 38.533 2.75737L36.9589 4.71706L36.9311 2.75737C36.9158 1.67913 36.5257 0.797684 36.0647 0.797684C35.603 0.797684 35.2261 2.36528 35.2261 4.2809ZM43.4029 1.37442C43.9796 1.61606 44.4515 3.1525 44.4515 4.78925C44.4515 6.426 44.8291 7.76487 45.2902 7.76487C45.7512 7.76487 46.1288 6.4222 46.1288 4.78089C46.1288 2.67075 46.5591 1.67989 47.5967 1.39798C48.4039 1.17914 47.555 0.98537 45.7095 0.967133C43.8647 0.949656 42.8263 1.13279 43.4029 1.37442ZM57.0322 4.33637C57.0322 7.80439 57.0871 7.86973 59.758 7.60226C64.1275 7.16458 64.2907 0.797684 59.9322 0.797684C57.1003 0.797684 57.0322 0.881273 57.0322 4.33637ZM64.7487 3.68972C63.4052 7.54831 63.2911 7.36898 67.097 7.36898C68.9418 7.36898 70.4515 7.24969 70.4515 7.10379C70.4515 2.14036 66.1794 -0.417338 64.7487 3.68972ZM71.2901 4.2809C71.2901 6.19727 71.6677 7.76487 72.1287 7.76487C72.5904 7.76487 72.9673 7.17674 72.9673 6.45867C72.9673 5.733 73.713 5.15246 74.6452 5.15246C75.5768 5.15246 76.3225 5.733 76.3225 6.45867C76.3225 7.17674 76.7001 7.76487 77.1611 7.76487C77.6221 7.76487 77.9997 6.19727 77.9997 4.2809C77.9997 2.36528 77.6221 0.797684 77.1611 0.797684C76.7001 0.797684 76.3225 1.38582 76.3225 2.10389C76.3225 2.82956 75.5768 3.4101 74.6452 3.4101C73.713 3.4101 72.9673 2.82956 72.9673 2.10389C72.9673 1.38582 72.5904 0.797684 72.1287 0.797684C71.6677 0.797684 71.2901 2.36528 71.2901 4.2809ZM79.846 3.68972C78.5024 7.54831 78.3883 7.36898 82.1935 7.36898C84.0383 7.36898 85.5479 7.24969 85.5479 7.10379C85.5479 2.14036 81.2758 -0.417338 79.846 3.68972ZM104.838 4.33637C104.838 7.80439 104.893 7.86973 107.564 7.60226C111.933 7.16458 112.097 0.797684 107.739 0.797684C104.907 0.797684 104.838 0.881273 104.838 4.33637ZM111.549 4.2809C111.549 6.19727 111.925 7.76487 112.387 7.76487C112.848 7.76487 113.226 6.19727 113.226 4.2809C113.226 2.36528 112.848 0.797684 112.387 0.797684C111.925 0.797684 111.549 2.36528 111.549 4.2809ZM115.113 1.39798C116.151 1.67989 116.58 2.67075 116.58 4.78089C116.58 6.4222 116.958 7.76487 117.419 7.76487C117.881 7.76487 118.258 6.426 118.258 4.78925C118.258 3.1525 118.729 1.61606 119.306 1.37442C119.883 1.13279 118.845 0.949656 117 0.967133C115.155 0.98537 114.305 1.17914 115.113 1.39798ZM120.774 4.2809C120.774 6.19727 121.152 7.76487 121.613 7.76487C122.074 7.76487 122.451 7.17674 122.451 6.45867C122.451 5.733 123.197 5.15246 124.128 5.15246C125.061 5.15246 125.806 5.733 125.806 6.45867C125.806 7.17674 126.184 7.76487 126.645 7.76487C127.106 7.76487 127.484 6.19727 127.484 4.2809C127.484 2.36528 127.106 0.797684 126.645 0.797684C126.184 0.797684 125.806 1.38582 125.806 2.10389C125.806 2.82956 125.061 3.4101 124.128 3.4101C123.197 3.4101 122.451 2.82956 122.451 2.10389C122.451 1.38582 122.074 0.797684 121.613 0.797684C121.152 0.797684 120.774 2.36528 120.774 4.2809ZM129.034 1.45117C128.206 5.72388 129.371 9.60982 130.535 6.45867C130.801 5.73984 131.355 5.15246 131.767 5.15246C132.179 5.15246 132.516 5.73984 132.516 6.45867C132.516 7.17674 132.894 7.76487 133.355 7.76487C133.816 7.76487 134.193 6.19727 134.193 4.2809C134.193 1.06364 129.598 -1.45759 129.034 1.45117ZM139.053 4.14412L137.787 7.49056L141.441 7.41002C143.452 7.36595 145.096 7.27932 145.097 7.21777C145.097 7.15698 144.525 5.68741 143.827 3.95188C142.192 -0.110352 140.639 -0.0480447 139.053 4.14412ZM145.935 4.2809C145.935 6.19727 146.313 7.76487 146.774 7.76487C147.235 7.76487 147.613 6.42067 147.613 4.77709C147.613 2.37136 147.98 1.71636 149.5 1.41242C150.865 1.13963 150.633 1.00209 148.661 0.916227C146.021 0.801487 145.935 0.907104 145.935 4.2809ZM151.806 4.2809C151.806 7.57111 151.946 7.76487 154.322 7.76487C157.211 7.76487 157.811 6.05138 154.951 5.96779C153.11 5.91384 153.115 5.88953 155.161 4.94578C157.253 3.98151 157.254 3.97847 155.371 3.63426C154.333 3.44429 153.484 2.9519 153.484 2.53929C153.484 2.12668 154.333 1.61986 155.371 1.41242C156.736 1.13963 156.503 1.00209 154.532 0.916227C151.892 0.801487 151.806 0.907104 151.806 4.2809ZM157.677 4.2809C157.677 6.19727 158.055 7.76487 158.516 7.76487C158.977 7.76487 159.355 7.22233 159.355 6.55973C159.355 5.89713 160.11 5.15018 161.032 4.89943C162.277 4.56205 162.71 4.87283 162.71 6.10457C162.71 7.01793 163.087 7.76487 163.548 7.76487C164.009 7.76487 164.387 6.19727 164.387 4.2809C164.387 2.36528 164.009 0.797684 163.548 0.797684C163.087 0.797684 162.71 1.38582 162.71 2.10389C162.71 2.82956 161.964 3.4101 161.032 3.4101C160.1 3.4101 159.355 2.82956 159.355 2.10389C159.355 1.38582 158.977 0.797684 158.516 0.797684C158.055 0.797684 157.677 2.36528 157.677 4.2809ZM166.064 4.18591C166.064 7.44801 166.181 7.58934 169.209 7.98143C173.072 8.48142 172.755 8.85299 172.191 4.48226C171.645 0.264259 170.258 -0.505479 170.258 3.4101C170.258 5.35991 169.869 6.02326 168.726 6.02326C167.501 6.02326 167.267 5.49972 167.563 3.4101C167.785 1.84174 167.558 0.797684 166.998 0.797684C166.472 0.797684 166.064 2.27714 166.064 4.18591ZM173.612 4.2809C173.612 6.19727 173.99 7.76487 174.451 7.76487C174.913 7.76487 175.29 6.19727 175.29 4.2809C175.29 2.36528 174.913 0.797684 174.451 0.797684C173.99 0.797684 173.612 2.36528 173.612 4.2809ZM176.841 1.45117C176.535 3.02636 176.581 7.76411 176.902 7.76487C177.096 7.76487 177.945 7.11595 178.788 6.32341C180.216 4.98225 180.322 4.98225 180.322 6.32341C180.322 7.11595 180.7 7.76487 181.161 7.76487C181.622 7.76487 182 6.19727 182 4.2809C182 1.06364 177.404 -1.45759 176.841 1.45117ZM32.558 4.13196C32.7542 5.51568 32.3919 6.02326 31.2072 6.02326C29.9244 6.02326 29.6719 5.56203 29.9946 3.80903C30.4747 1.20118 32.1731 1.41545 32.558 4.13196ZM54.359 3.64034C54.6927 5.44045 52.2713 6.65319 50.9936 5.32647C49.7159 3.99975 50.8838 1.48536 52.6167 1.83186C53.4202 1.99219 54.2039 2.80677 54.359 3.64034ZM61.226 2.53929C61.226 3.01876 60.6596 3.4101 59.9673 3.4101C59.2758 3.4101 58.7094 3.01876 58.7094 2.53929C58.7094 2.06058 59.2758 1.66849 59.9673 1.66849C60.6596 1.66849 61.226 2.06058 61.226 2.53929ZM94.6226 4.13196C94.8202 5.52479 94.4573 6.02326 93.2447 6.02326C91.2719 6.02326 90.3337 4.01494 91.6626 2.63503C93.001 1.24524 94.3073 1.90557 94.6226 4.13196ZM109.032 2.53929C109.032 3.01876 108.466 3.4101 107.774 3.4101C107.082 3.4101 106.516 3.01876 106.516 2.53929C106.516 2.06058 107.082 1.66849 107.774 1.66849C108.466 1.66849 109.032 2.06058 109.032 2.53929ZM132.516 2.53929C132.516 3.01876 131.95 3.4101 131.258 3.4101C130.566 3.4101 129.999 3.01876 129.999 2.53929C129.999 2.06058 130.566 1.66849 131.258 1.66849C131.95 1.66849 132.516 2.06058 132.516 2.53929ZM154.509 14.346C150.442 17.3042 152.272 21.7144 158.255 23.3755C165.378 25.3527 163.708 30.9392 156.235 30.1375C153.799 29.8769 151.806 29.9848 151.806 30.3784C151.806 32.6793 161.021 32.8267 162.999 30.5577C166.096 27.0046 164.025 22.4606 158.784 21.3049C152.752 19.9744 152.853 15.324 158.906 15.7108C163.397 15.9972 164.646 15.1226 161.513 13.8856C158.384 12.65 156.687 12.7617 154.509 14.346ZM0 23.0055C0 30.5532 0.219533 32.1504 1.25792 32.1504C2.1258 32.1504 2.51584 31.2462 2.51584 29.2371C2.51584 27.3853 3.15687 25.722 4.27355 24.6726C6.24495 22.8193 5.73125 22.447 10.9459 29.5122C12.1226 31.1064 13.5158 32.2545 14.0413 32.063C14.5967 31.8609 13.431 29.5441 11.2598 26.5365L7.52117 21.3581L11.0644 17.6097C13.9644 14.5413 14.3091 13.8567 12.9648 13.8369C12.0106 13.8233 9.48524 15.922 6.9394 18.8444L2.55681 23.8763L2.53632 18.8688C2.52096 15.0079 2.22825 13.8613 1.25792 13.8613C0.219533 13.8613 0 15.4577 0 23.0055ZM20.2613 22.3527C16.5176 31.4605 16.331 32.1504 17.6013 32.1504C18.0565 32.1504 18.9807 30.7781 19.6554 29.1018C20.8189 26.2106 21.0919 26.054 24.963 26.054C28.8011 26.054 29.1275 26.2349 30.444 29.1018C31.8592 32.1831 34.1987 33.4825 33.1888 30.6261C26.4243 11.4852 25.0815 10.6258 20.2613 22.3527ZM35.2261 23.0055C35.2261 30.5532 35.4456 32.1504 36.484 32.1504C37.4156 32.1504 37.7419 31.1337 37.7419 28.231C37.7419 22.5039 41.2537 22.5047 44.7384 28.2326C46.049 30.3875 47.6962 32.1504 48.3995 32.1504C49.7145 32.1504 49.4452 31.5235 45.6253 25.7075C44.6828 24.2729 44.8101 23.8345 46.5927 22.3786C51.3236 18.5139 47.8638 13.8613 40.2578 13.8613H35.2261V23.0055ZM55.1413 21.4819C50.8956 31.9787 50.8443 32.1504 51.953 32.1504C52.4872 32.1504 53.4758 30.7781 54.1505 29.1018C56.0231 24.4484 63.0737 24.4484 64.9456 29.1018C65.6203 30.7781 66.7304 32.1504 67.4124 32.1504C68.3425 32.1504 67.6956 29.864 64.8256 23.0055C59.9864 11.4449 59.248 11.3286 55.1413 21.4819ZM69.6128 23.0055C69.6128 35.3069 71.9172 36.699 72.3058 24.6323L72.548 17.115L78.2156 24.6323C85.7872 34.6754 86.3873 34.5561 86.3873 23.0055C86.3873 15.2678 86.1838 13.8613 85.0672 13.8613C83.949 13.8613 83.7887 14.9912 84.0185 21.2661C84.3464 30.2082 84.6932 30.2105 77.9997 21.2274C70.4844 11.1409 69.6128 11.3256 69.6128 23.0055ZM107.774 14.6591C125.927 15.1834 128.222 15.6363 129.98 19.0496C132.744 24.4104 129.231 30.408 123.328 30.408C121.462 30.408 119.935 30.0167 119.935 29.5372C119.935 29.0585 121.085 28.6664 122.489 28.6664C125.271 28.6664 129.161 25.3656 129.161 23.0055C129.161 22.2433 128.234 20.6582 127.102 19.4827L125.044 17.3445L108.441 17.5185L91.8382 17.6925L108.376 18.172C126.644 18.7016 128.272 19.1917 127.151 23.8291C126.669 25.8215 123.443 27.5601 121.214 27.0297C120.024 26.7463 120.898 25.5639 122.607 25.1445C125.406 24.4583 125.567 21.893 122.877 20.8307C119.961 19.6795 94.2011 19.6772 93.5162 20.8284C93.1774 21.3968 98.2435 21.6992 108.095 21.6992C117.254 21.6992 123.395 22.0419 123.709 22.57C124.355 23.6536 126.204 23.4758 108.613 24.0237C90.9535 24.5738 88.235 25.1832 103.441 25.1832C112.493 25.1832 114.064 25.3831 114.064 26.5381C114.064 27.7075 112.577 27.8564 103.16 27.6262C97.1619 27.4803 92.2554 27.6543 92.2561 28.0137C92.2576 28.3724 97.1641 28.6664 103.161 28.6664C109.871 28.6664 114.064 29.0015 114.064 29.5372C114.064 30.0767 109.591 30.408 102.322 30.408C95.0537 30.408 90.5803 30.7401 90.5803 31.2796C90.5803 31.8184 95.0537 32.1504 102.322 32.1504H114.064V35.3335C114.064 38.3471 114.145 38.4406 115.579 37.0926C116.982 35.7742 117.199 35.778 118.514 37.1442C119.85 38.531 119.935 38.4246 119.935 35.3852C119.935 32.3168 120.076 32.1497 122.661 32.1466C131.109 32.1367 135.431 22.184 129.502 16.3954C127.369 14.3126 127.208 14.2959 108.757 14.2237L90.161 14.1515L107.774 14.6591ZM136.842 22.3527C133.099 31.4605 132.911 32.1504 134.182 32.1504C134.637 32.1504 135.562 30.7781 136.236 29.1018C137.408 26.19 137.652 26.054 141.687 26.054C145.724 26.054 145.967 26.19 147.139 29.1018C148.217 31.7796 150.126 33.3092 150.13 31.4969C150.136 28.9552 142.956 13.8613 141.742 13.8613C140.757 13.8613 139.281 16.4167 136.842 22.3527ZM167.741 23.0055C167.741 28.5213 168.074 32.1504 168.58 32.1504C169.042 32.1504 169.419 30.1907 169.419 27.7956V23.4409H174.451H179.483V27.7956C179.483 31.0858 179.791 32.1504 180.741 32.1504C181.78 32.1504 182 30.5532 182 23.0055C182 15.4577 181.78 13.8613 180.741 13.8613C179.81 13.8613 179.483 14.8772 179.483 17.7799V21.6992H174.451H169.419V17.7799C169.419 15.6249 169.042 13.8613 168.58 13.8613C168.074 13.8613 167.741 17.4896 167.741 23.0055ZM45.5477 17.444C47.1481 20.0967 45.6392 21.6992 41.542 21.6992C37.7463 21.6992 37.7419 21.6954 37.7419 18.6013C37.7419 15.1203 43.6203 14.2488 45.5477 17.444ZM27.2256 21.0458L28.5384 24.3117H25.083C22.1237 24.3117 21.7124 24.0928 22.2218 22.7881C22.5489 21.95 23.2023 20.1567 23.6736 18.8026C24.6549 15.9866 25.3742 16.441 27.2256 21.0458ZM61.2626 19.7396C61.93 21.5359 62.6032 23.2995 62.759 23.6589C62.9149 24.0183 61.5202 24.3117 59.6585 24.3117H56.2741L57.6725 20.393C59.3717 15.6333 59.7149 15.5709 61.2626 19.7396ZM143.617 20.393L145.016 24.3117H141.612C138.702 24.3117 138.294 24.0905 138.802 22.7881C139.13 21.95 139.773 20.1864 140.232 18.8688C141.382 15.571 141.995 15.8468 143.617 20.393Z" fill="#CCCCCC"/>
</svg>
