<svg width="165" height="34" viewBox="0 0 165 34" fill="none" xmlns="http://www.w3.org/2000/svg">
<path fill-rule="evenodd" clip-rule="evenodd" d="M29.8124 0.501045C31.282 1.64057 32.8429 3.37848 32.5566 3.55647C32.4057 3.65 31.3765 4.23216 30.2698 4.85012C19.5634 10.8264 12.8799 18.5334 13.3961 24.3093C13.9264 30.2465 21.4867 33.6311 34.872 33.9232C41.3039 34.0639 41.2687 34.0792 38.1141 32.5136C22.7246 24.8772 20.7989 14.034 33.1372 4.48555C33.4047 4.27845 33.533 4.38391 34.1616 5.32731C37.2053 9.89541 39.5776 16.973 40.7779 25.0661L41.122 27.3872L41.138 13.6938L41.1544 0L35.1635 0.00238553L29.1725 0.00429505L29.8124 0.501045ZM23.8247 3.3613C10.5372 4.93029 0 12.3954 0 20.2389C0 26.6795 7.2688 32.7397 16.3669 33.885L17.2818 34L16.3716 33.5104C14.1319 32.3055 11.8244 30.0059 10.7267 27.8858C7.16349 21.0043 11.4417 13.4142 23.4129 5.37694C24.9704 4.33094 26.3235 3.40329 26.4189 3.31597C26.6258 3.12652 25.6691 3.14323 23.8247 3.3613ZM48.7627 8.8332C46.2117 9.78184 46.002 10.4008 46.002 16.9893C46.002 23.9013 46.2559 24.5818 49.112 25.3372C53.0771 26.3855 55.5726 24.6262 55.7513 20.6564L55.8368 18.7534H53.7095H51.5816V20.5729C51.5816 22.4454 51.4495 22.8381 50.8195 22.8381C50.191 22.8381 50.1181 22.2245 50.1181 16.9315C50.1181 11.3446 50.1388 11.2249 51.0682 11.3585C51.4791 11.4176 51.4914 11.4778 51.5417 13.6938L51.5929 15.9681H53.7132H55.8331L55.7583 13.6843C55.662 10.7453 55.3014 9.99371 53.5656 9.1133C52.2741 8.45813 50.1106 8.33215 48.7627 8.8332ZM56.3968 9.1448C56.4508 9.37432 56.8002 11.0163 57.1725 12.7938L57.8495 16.0253L57.1697 20.2208C56.7959 22.5284 56.4461 24.6071 56.3926 24.8404L56.2952 25.2646L58.3746 25.2117L60.4536 25.1592L60.7926 22.7456C61.2477 19.504 61.2613 19.4892 61.7357 21.7244C61.9632 22.7966 62.2448 24.0287 62.3605 24.463L62.5716 25.2522H64.4855C65.5381 25.2522 66.399 25.1892 66.399 25.1129C66.399 25.0361 65.9119 22.9684 65.3167 20.5171L64.2349 16.0611L64.9458 12.6259C65.3369 10.7367 65.6594 9.08658 65.6623 8.95917C65.666 8.78929 65.2034 8.72678 63.9444 8.72678H62.2208L61.9406 9.98035C61.7869 10.6694 61.605 11.5885 61.5368 12.0227C61.3502 13.2147 61.1941 12.9904 60.8274 11.0015C60.644 10.0056 60.4555 9.08658 60.4085 8.95917C60.2275 8.46624 56.2797 8.649 56.3968 9.1448ZM66.9481 16.9835V25.2522H69.0534H71.1591L71.1116 17.036L71.0641 8.81983L69.0059 8.76734L66.9481 8.71485V16.9835ZM74.2944 12.2446C73.9395 18.0353 73.1553 21.91 72.3373 21.91H71.8873V24.9735V28.0371H73.3504H74.814V26.6446V25.2522H78.2897H81.7654V26.6446V28.0371H83.1373H84.5096V24.8805C84.5096 21.8547 84.4946 21.7244 84.1462 21.7244C83.7912 21.7244 83.7814 21.5698 83.7344 15.2719L83.6864 8.81983L79.0983 8.77021L74.5102 8.72058L74.2944 12.2446ZM93.3195 12.2446C92.9646 18.0353 92.1804 21.91 91.3623 21.91H90.9119V24.9735V28.0371H92.3755H93.839V26.6446V25.2522H97.3148H100.79V26.6446V28.0371H102.162H103.535V24.8805C103.535 21.8547 103.52 21.7244 103.171 21.7244C102.816 21.7244 102.806 21.5698 102.759 15.2719L102.711 8.81983L98.1234 8.77021L93.5353 8.72058L93.3195 12.2446ZM104.815 16.9835V25.2522H106.921H109.026L108.979 17.036L108.931 8.81983L106.873 8.76734L104.815 8.71485V16.9835ZM111.574 8.9544C111.568 9.08467 111.092 12.7838 110.515 17.1749L109.465 25.1592L111.555 25.2117C114.019 25.2737 113.785 25.4192 113.934 23.7333L114.053 22.3738L114.831 22.317C115.605 22.2603 115.608 22.2626 115.608 22.8944C115.608 23.2437 115.66 23.9166 115.724 24.3904L115.841 25.2522H117.919C119.955 25.2522 119.998 25.2432 119.993 24.8342C119.989 24.6047 119.47 20.907 118.838 16.618L117.69 8.81983L114.637 8.76878C112.263 8.72917 111.582 8.77068 111.574 8.9544ZM120.73 16.9845V25.2522H122.56H124.389L124.407 20.2852L124.425 15.3182L125.133 20.0533C125.523 22.6573 125.844 24.8924 125.847 25.0198C125.851 25.184 126.243 25.2522 127.181 25.2522H128.509L129.131 20.4708C129.974 14.0002 130.026 13.9739 130.044 20.0065L130.06 25.2522H131.891H133.722L133.675 17.036L133.627 8.81983H130.884H128.14L127.695 12.5238C127.449 14.5609 127.216 16.1279 127.176 16.0058C127.136 15.8836 126.883 14.2168 126.615 12.3019L126.127 8.81983L123.429 8.7683L120.73 8.71676V16.9845ZM136.27 8.9544C136.264 9.08467 135.788 12.7838 135.211 17.1749L134.161 25.1592L136.251 25.2117C138.715 25.2737 138.481 25.4192 138.63 23.7333L138.749 22.3738L139.527 22.317C140.3 22.2603 140.304 22.2626 140.304 22.8944C140.304 23.2437 140.356 23.9166 140.42 24.3904L140.537 25.2522H142.616C144.651 25.2522 144.694 25.2432 144.689 24.8342C144.685 24.6047 144.166 20.907 143.534 16.618L142.386 8.81983L139.333 8.76878C136.959 8.72917 136.277 8.77068 136.27 8.9544ZM145.243 16.9835V25.2522H147.347H149.451V21.817V18.3822H150.091H150.731V21.817V25.2522H152.837H154.942L154.895 17.036L154.847 8.81983L152.789 8.76734L150.731 8.71485V11.6915V14.6687H150.096H149.46L149.41 11.744L149.359 8.81983L147.301 8.76734L145.243 8.71485V16.9835ZM155.853 10.3979V12.069H157.042H158.231V18.6604V25.2522H160.335H162.439V18.6604V12.069H163.719H165V10.3979V8.72678H160.426H155.853V10.3979ZM79.5703 16.8967V21.7244H78.4486H77.3268L77.4298 21.0277C77.9183 17.7189 78.1016 16.1279 78.2116 14.2507L78.3395 12.069H78.9549H79.5703V16.8967ZM98.5954 16.8967V21.7244H97.4737H96.3519L96.4549 21.0277C96.9433 17.7189 97.1267 16.1279 97.2367 14.2507L97.3646 12.069H97.98H98.5954V16.8967ZM115.048 15.3191C115.158 16.544 115.299 17.9432 115.361 18.4285L115.472 19.3103H114.734H113.997L114.073 18.6141C114.116 18.2314 114.272 16.9186 114.422 15.6975C114.571 14.4764 114.693 13.355 114.693 13.2061C114.693 13.0572 114.728 12.9709 114.77 13.0138C114.813 13.0568 114.938 14.0942 115.048 15.3191ZM139.744 15.3191C139.855 16.544 139.995 17.9432 140.056 18.4285L140.168 19.3103H139.43H138.693L138.769 18.6141C138.811 18.2314 138.968 16.9186 139.118 15.6975C139.267 14.4764 139.389 13.355 139.389 13.2061C139.389 13.0572 139.424 12.9709 139.466 13.0138C139.509 13.0568 139.634 14.0942 139.744 15.3191ZM85.2411 18.4747V19.8672H87.8937H90.5462V18.4747V17.0823H87.8937H85.2411V18.4747Z" fill="#CCCCCC"/>
</svg>
