<svg width="108" height="34" viewBox="0 0 108 34" fill="none" xmlns="http://www.w3.org/2000/svg">
<path fill-rule="evenodd" clip-rule="evenodd" d="M12.1963 1.41593C5.01139 3.32582 -0.00224374 9.85998 7.53301e-07 17.3111C0.00420917 31.1682 16.0641 38.9567 26.467 30.1463L27.7775 29.0366L26.4134 27.6733L25.0494 26.31L23.9964 27.2483C16.6673 33.7773 4.43455 28.3522 3.81648 18.2989C3.14678 7.41006 14.9337 0.873056 23.706 7.26773L25.0813 8.27035L26.0759 7.45362C27.7826 6.05188 27.8322 5.7635 26.556 4.66095C22.8203 1.4333 17.043 0.127774 12.1963 1.41593ZM46.528 7.02974C39.3027 10.8475 44.4221 21.6441 52.1465 18.8788C54.7428 17.9493 54.962 17.6151 54.962 14.5839V11.8951L52.2332 11.9765L49.5045 12.0577L49.4169 12.9806L49.3291 13.9035H51.026H52.7231V15.147C52.7231 17.5494 48.7341 18.0393 46.7014 15.8863C43.3304 12.3162 47.9171 6.50109 52.0562 9.09677L52.9947 9.68519L53.6896 8.88383C54.6166 7.81459 54.6169 7.81573 52.9478 6.97166C50.8837 5.92804 48.5733 5.94882 46.528 7.02974ZM61.2202 7.8516C60.8226 8.75943 59.5758 11.6423 58.4491 14.2585L56.4007 19.0149H57.606C58.7863 19.0149 58.8236 18.9855 59.417 17.5855L60.023 16.1562L62.984 16.2367L65.9451 16.3173L66.4352 17.5949C66.8951 18.794 66.9966 18.8782 68.0802 18.9602C69.5587 19.0721 69.6572 19.5096 66.617 12.4539L63.9994 6.3784L62.9711 6.28986C61.9639 6.20304 61.9283 6.23492 61.2202 7.8516ZM71.4738 12.6256V19.0149H72.586H73.6981L73.7753 14.798L73.8524 10.5814L77.071 14.786C80.1942 18.8666 80.3205 18.9912 81.3443 19.0029L82.3992 19.0149L82.3237 12.6965L82.2485 6.3784L81.2062 6.29072L80.1642 6.20304L80.0868 10.5458L80.0096 14.8888L76.7015 10.5626C73.5775 6.4769 73.3404 6.23635 72.4336 6.23635H71.4738V12.6256ZM85.4668 12.6185V19.0149H90.0846H94.7023V18.0211V17.027H91.204H87.7057V15.4652V13.9035H90.7843H93.8626V12.7677V11.6318H90.7843H87.7057V10.0698V8.50806H91.2209H94.736L94.649 7.44337L94.5623 6.3784L90.0145 6.3004L85.4668 6.2224V12.6185ZM29.4671 7.74256L28.1801 8.94817L29.1262 10.361C31.899 14.5019 31.8215 20.5806 28.9438 24.6813C28.1734 25.779 28.1911 25.8377 29.6702 27.0923L30.9653 28.1905L31.4832 27.5073C35.8204 21.7853 35.8454 12.4833 31.5371 7.45163L30.7537 6.53696L29.4671 7.74256ZM96.6612 6.66421C96.6612 6.74307 97.5554 8.07564 98.6484 9.62541C99.7412 11.1749 100.654 12.4989 100.677 12.5675C100.7 12.6361 99.8377 13.9451 98.7601 15.4761C97.6827 17.0073 96.7005 18.4299 96.5773 18.6374C96.4034 18.9306 96.6531 19.0137 97.6968 19.0095L99.0401 19.0041L100.56 16.7377C101.395 15.4912 102.097 14.4714 102.119 14.4714C102.14 14.4714 102.842 15.4912 103.678 16.7377L105.197 19.0041L106.543 19.0095C107.546 19.0134 107.835 18.9246 107.678 18.6599C107.562 18.4646 106.665 17.1773 105.685 15.7989C103.323 12.4756 103.329 12.8756 105.588 9.66526C107.937 6.32773 107.89 6.52045 106.352 6.52045C105.142 6.52045 105.109 6.54693 103.66 8.67374C102.853 9.85799 102.101 10.7206 101.989 10.5905C101.876 10.4604 101.187 9.49133 100.457 8.43717C99.161 6.56372 99.103 6.52045 97.896 6.52045C97.217 6.52045 96.6612 6.58507 96.6612 6.66421ZM12.6154 12.3498C14.9952 17.169 14.9926 17.5024 12.5425 22.4634L10.7031 26.1878L12.8924 24.978C16.0341 23.2417 26.26 17.5186 26.3629 17.4389C26.4586 17.3646 11.9873 9.20608 11.2861 8.93877C11.0087 8.83316 11.4952 10.0815 12.6154 12.3498ZM63.8861 11.5905C64.365 12.7392 64.7569 13.7296 64.7569 13.7914C64.7569 13.8528 63.8799 13.9035 62.8079 13.9035H60.8588L61.4314 12.5547C61.7462 11.8129 62.1842 10.7709 62.4047 10.2392C62.8861 9.07798 62.8087 9.00738 63.8861 11.5905ZM59.1597 24.8362C59.1597 26.4452 59.2728 27.5338 59.4397 27.5338C59.6067 27.5338 59.7194 26.4452 59.7194 24.8362C59.7194 23.2269 59.6067 22.1386 59.4397 22.1386C59.2728 22.1386 59.1597 23.2269 59.1597 24.8362ZM61.9583 22.8483C61.9583 23.0826 62.0843 23.2745 62.2383 23.2745C62.3923 23.2745 62.518 23.0826 62.518 22.8483C62.518 22.614 62.3923 22.4224 62.2383 22.4224C62.0843 22.4224 61.9583 22.614 61.9583 22.8483ZM64.7569 23.2745C64.7569 23.5868 64.6158 23.8424 64.443 23.8424C64.2208 23.8424 64.2152 23.9477 64.4236 24.2028C64.5858 24.4012 64.7586 25.1229 64.8077 25.8067C64.9065 27.1822 65.4732 27.7712 66.3283 27.3872C66.8182 27.1668 66.8109 27.1418 66.2262 27.0382C65.6875 26.9425 65.5966 26.7492 65.5966 25.7013C65.5966 24.683 65.7027 24.4408 66.2262 24.2654L66.8561 24.0542L66.2262 23.9284C65.8334 23.8501 65.5966 23.5964 65.5966 23.2545C65.5966 22.9531 65.4078 22.7065 65.1769 22.7065C64.9435 22.7065 64.7569 22.9588 64.7569 23.2745ZM89.3849 23.2745C89.3849 23.5868 89.2743 23.8424 89.1394 23.8424C88.8451 23.8424 89.0729 26.3316 89.4317 27.0367C89.6963 27.5574 90.6409 27.7146 90.9044 27.2821C90.9888 27.1438 90.8073 26.9639 90.5012 26.8827C89.6775 26.6641 89.6803 24.4103 90.5043 24.4103C90.8121 24.4103 91.064 24.2825 91.064 24.1262C91.064 23.9699 90.8121 23.8424 90.5043 23.8424C90.1312 23.8424 89.9446 23.6531 89.9446 23.2745C89.9446 22.9619 89.8186 22.7065 89.6649 22.7065C89.5108 22.7065 89.3849 22.9619 89.3849 23.2745ZM93.0232 23.2506C93.0232 23.55 92.8658 23.8694 92.6733 23.9605C92.3933 24.0932 92.3933 24.1592 92.6733 24.2919C92.872 24.3861 93.0232 24.9746 93.0232 25.6549C93.0232 26.9411 93.3938 27.5338 94.1985 27.5338C94.8794 27.5338 94.8393 27.0683 94.1426 26.8836C93.6977 26.7657 93.5829 26.4961 93.5829 25.5727C93.5829 24.5996 93.6741 24.4103 94.1426 24.4103C94.4504 24.4103 94.7023 24.2825 94.7023 24.1262C94.7023 23.9699 94.4504 23.8424 94.1426 23.8424C93.7695 23.8424 93.5829 23.6531 93.5829 23.2745C93.5829 22.9619 93.4569 22.7065 93.3029 22.7065C93.1489 22.7065 93.0232 22.9514 93.0232 23.2506ZM68.1155 23.6921C68.1155 23.7658 68.4303 24.5484 68.815 25.4315C69.6611 27.3724 69.6872 27.8179 68.9549 27.8179C68.6441 27.8179 68.3952 28.0072 68.3952 28.2438C68.3952 29.8502 69.7689 28.541 70.8535 25.9009C71.8158 23.5583 71.5384 22.7359 70.5542 25.0141L69.9117 26.5016L69.309 25.0301C68.8234 23.8447 68.1155 23.051 68.1155 23.6921ZM77.9469 23.8196C77.7388 23.95 77.3308 23.9936 77.0399 23.9164C76.561 23.7892 76.5113 23.9526 76.5113 25.6549C76.5113 27.7863 76.9956 28.227 77.1255 26.214C77.2843 23.7581 79.0299 23.8284 79.0299 26.2906C79.0299 28.0479 79.5431 27.8412 79.6452 26.0429C79.7232 24.6651 79.7827 24.5521 80.4294 24.5521C81.076 24.5521 81.1352 24.6651 81.2135 26.0429C81.2601 26.8631 81.4175 27.5338 81.5634 27.5338C81.8731 27.5338 81.9174 24.6964 81.6144 24.2475C81.2534 23.7126 80.4995 23.5856 79.9788 23.9719C79.5604 24.2825 79.3758 24.2811 78.8995 23.9645C78.558 23.7374 78.1717 23.6787 77.9469 23.8196ZM96.9412 24.1262C95.808 25.2757 96.6057 27.5338 98.1446 27.5338C98.787 27.5338 99.4598 27.0638 99.4598 26.6151C99.4598 26.4848 99.2034 26.5172 98.8897 26.6877C98.2183 27.0521 97.3379 26.8326 97.1157 26.2451C96.9909 25.9154 97.2442 25.83 98.3494 25.83C99.6371 25.83 99.7398 25.7788 99.7398 25.1362C99.7398 23.7658 97.9375 23.1153 96.9412 24.1262ZM43.6422 24.2939C42.459 25.4944 43.5538 27.7618 45.1591 27.4359C45.9256 27.2804 46.0064 27.3334 46.0064 27.9904C46.0064 29.945 46.7115 28.3266 46.7867 26.1995L46.8675 23.917L45.472 23.8851C44.5492 23.864 43.9294 24.0024 43.6422 24.2939ZM48.805 25.3694C48.805 27.1856 49.1139 27.5252 50.7075 27.4606L51.8834 27.4131V25.6276C51.8834 24.6267 51.7605 23.8424 51.6036 23.8424C51.4496 23.8424 51.3236 24.3918 51.3236 25.0634C51.3236 26.3564 50.9567 26.9659 50.1781 26.9659C49.5934 26.9659 49.3648 26.4008 49.3648 24.9549C49.3648 24.3429 49.2388 23.8424 49.0848 23.8424C48.9307 23.8424 48.805 24.5293 48.805 25.3694ZM54.3088 24.0317C53.9048 24.4416 54.1669 24.6156 55.1426 24.5845C56.5241 24.5407 56.7174 25.198 55.3573 25.315C53.1279 25.5063 53.3597 27.3618 55.6218 27.4324L56.9208 27.4729V26.1039C56.9208 24.2848 55.3149 23.0109 54.3088 24.0317ZM61.9583 25.688C61.9583 26.7293 62.0804 27.5338 62.2383 27.5338C62.3963 27.5338 62.518 26.7293 62.518 25.688C62.518 24.6469 62.3963 23.8424 62.2383 23.8424C62.0804 23.8424 61.9583 24.6469 61.9583 25.688ZM84.254 24.0317C83.85 24.4416 84.112 24.6156 85.0881 24.5845C86.4696 24.5407 86.6626 25.198 85.3027 25.315C83.0731 25.5063 83.3048 27.3618 85.567 27.4324L86.866 27.4729V25.9516C86.866 24.738 86.7566 24.3708 86.3248 24.1362C85.7143 23.8048 84.5362 23.7453 84.254 24.0317ZM101.477 25.6507C101.572 27.681 102.056 27.9671 102.258 26.1141C102.365 25.1388 102.548 24.7699 103.028 24.5558C103.981 24.1319 103.787 23.876 102.526 23.8936L101.394 23.9096L101.477 25.6507ZM105.445 24.2509C105.177 24.9592 105.544 25.5499 106.453 25.8713C106.917 26.0353 107.296 26.2889 107.296 26.4347C107.296 26.8719 106.538 27.0299 105.955 26.7139C105.297 26.3564 104.942 26.6245 105.374 27.1526C105.801 27.6744 107.146 27.6329 107.595 27.084C108.057 26.5201 107.689 25.8397 106.641 25.3176C105.647 24.8225 105.696 24.346 106.729 24.4562C107.187 24.5048 107.597 24.4186 107.639 24.2646C107.776 23.7664 105.633 23.753 105.445 24.2509ZM45.9565 25.3503C46.0668 26.3242 45.5483 27.0228 44.8 26.9086C44.031 26.7914 43.6492 26.0634 43.8759 25.1468C44.1592 24.0004 45.8224 24.1632 45.9565 25.3503ZM98.9001 24.8362C99.2006 25.2034 99.0847 25.2621 98.0607 25.2621C97.0363 25.2621 96.9207 25.2034 97.2209 24.8362C97.4126 24.6019 97.7905 24.4103 98.0607 24.4103C98.3308 24.4103 98.7085 24.6019 98.9001 24.8362ZM56.0522 25.8058C56.6456 26.187 56.1956 26.9659 55.3817 26.9659C54.5678 26.9659 54.1177 26.187 54.7111 25.8058C54.926 25.6677 55.2276 25.5547 55.3817 25.5547C55.5357 25.5547 55.8373 25.6677 56.0522 25.8058ZM85.9974 25.8058C86.5809 26.1807 86.1441 26.9659 85.3521 26.9659C84.5048 26.9659 84.1838 26.5141 84.6375 25.9595C85.0221 25.489 85.4323 25.4428 85.9974 25.8058Z" fill="#CCCCCC"/>
</svg>
