<svg width="121" height="38" viewBox="0 0 121 38" fill="none" xmlns="http://www.w3.org/2000/svg">
<path fill-rule="evenodd" clip-rule="evenodd" d="M31.5831 1.04714C27.882 2.3874 26.9301 7.10533 29.8659 9.55536C33.368 12.478 38.3033 10.263 38.3033 5.76865C38.3033 2.3032 34.8377 -0.131893 31.5831 1.04714ZM9.96502 8.65697C-5.68781 14.0753 -1.95786 36.8995 14.5806 36.8995C30.1365 36.8995 34.9831 16.254 21.0363 9.3998C17.7428 7.78128 13.3467 7.4863 9.96502 8.65697ZM48.3275 13.8989V19.7967H49.5166H50.7061V15.0785V10.3606H51.8955H53.0846V15.0785V19.7967H54.274H55.4632V13.8989V8.00132H51.8955H48.3275V13.8989ZM60.8368 8.77849C60.2856 9.47325 60.2206 9.95752 60.2206 13.3624C60.2206 17.0177 60.1914 17.1986 59.4863 17.8976C58.5287 18.8473 58.8842 20.2625 59.9978 19.9335C61.9299 19.3629 62.5811 17.6898 62.5919 13.2671C62.5979 10.9506 62.6864 10.3904 63.0694 10.2444C64.3627 9.75241 64.3831 9.82586 64.3831 14.931V19.7967H65.5726H66.7617V13.8989V8.00132H64.1074C61.594 8.00132 61.4202 8.04282 60.8368 8.77849ZM72.8551 8.37005C72.5836 9.129 69.7351 19.3561 69.7351 19.5716C69.7351 20.3646 72.0486 19.7499 72.2178 18.9121C72.3918 18.048 72.4376 18.0274 74.1638 18.0274C75.8864 18.0274 75.9366 18.0501 76.1275 18.9121C76.2979 19.6809 76.4541 19.7967 77.3229 19.7967C78.8968 19.7967 78.9384 20.0947 75.9484 9.99186L75.3592 8.00132H74.1731C73.4928 8.00132 72.9307 8.15867 72.8551 8.37005ZM81.9256 13.8989V19.7967H83.1148H84.3042V17.4375V15.0785H85.481H86.6578L86.7445 17.3637L86.8315 19.6493H88.0209H89.21V13.8989V8.14881H88.0209H86.8315L86.7445 10.4343L86.6578 12.7196H85.481H84.3042V10.3606V8.00132H83.1148H81.9256V13.8989ZM93.3563 8.37961C93.2759 8.58741 93.2467 11.2082 93.2913 14.2034L93.3726 19.6493L96.5691 19.7329L99.7653 19.8164V18.627V17.4375H97.6838H95.6027V16.2581V15.0785H97.0893H98.5758V14.0464V13.0142H97.0893H95.6027V11.6874V10.3606H97.5351H99.4678V9.18095V8.00132H96.4854C94.3335 8.00132 93.462 8.10672 93.3563 8.37961ZM102.794 9.09766C102.882 10.1543 102.946 10.2179 104.002 10.3045L105.117 10.3961V15.0964V19.7967H106.306H107.496V15.0964V10.3961L108.611 10.3045C109.669 10.2176 109.726 10.1608 109.726 9.18095V8.14881L106.214 8.06552L102.701 7.98251L102.794 9.09766ZM114.492 8.35303C114.096 9.49564 111.361 19.2172 111.361 19.483C111.361 20.3031 113.47 19.806 113.784 18.9121C114.266 17.5426 117.45 17.5426 117.754 18.9121C117.931 19.7114 118.062 19.7967 119.115 19.7967C120.538 19.7967 120.584 20.4351 118.677 13.7517L117.079 8.14881L115.853 8.05805C115.041 7.99804 114.581 8.09776 114.492 8.35303ZM74.6563 13.3525C75.2569 15.5903 75.2349 15.6682 74.0118 15.6682C73.0382 15.6682 72.9545 15.6055 73.1267 15.0048C73.2315 14.6399 73.4708 13.7117 73.6583 12.942C74.0617 11.2852 74.1063 11.3035 74.6563 13.3525ZM116.365 13.3316C116.881 15.5491 116.847 15.6682 115.713 15.6682H114.713L115.175 13.7517C115.732 11.4426 115.91 11.3799 116.365 13.3316ZM79.3984 25.1079C76.8557 25.6465 76.2762 26.753 76.2768 31.0664C76.2774 35.6383 77.5647 37.4112 80.6576 37.0998C83.6073 36.8027 84.3972 35.3565 84.2542 30.5161C84.1245 26.1248 82.6018 24.4293 79.3984 25.1079ZM48.3275 30.9843V36.8995H49.3556H50.3836L50.4706 34.6142C50.6079 30.9977 52.6029 31.3223 53.3489 35.0827L53.7093 36.8995H54.9153C55.7711 36.8995 56.0794 36.7902 55.9762 36.5236C55.8961 36.3167 55.6646 35.355 55.462 34.3864C55.1802 33.0408 54.859 32.4064 54.0991 31.6955C53.128 30.7872 53.1189 30.7565 53.7066 30.3677C54.209 30.0357 55.7606 26.221 55.7606 25.3181C55.7606 25.1811 55.269 25.11 54.6684 25.1605C53.6726 25.2438 52.4524 27.3675 52.2016 29.4538C52.1965 29.4944 51.8642 29.5276 51.4623 29.5276C50.7621 29.5276 50.7286 29.4398 50.6446 27.3899L50.5573 25.2518L49.4423 25.1605L48.3275 25.0688V30.9843ZM59.1705 25.4647C59.0862 25.6824 59.0537 28.3112 59.0986 31.3064L59.1799 36.7523L60.45 36.843L61.7198 36.9341L61.6391 31.093L61.5584 25.2518L60.4413 25.1602C59.7103 25.1002 59.2708 25.2056 59.1705 25.4647ZM65.5726 30.9843V36.8995H66.7617H67.9511V34.5405V32.1815H69.1403H70.3297V34.5405V36.8995H71.5191H72.7082V30.9843V25.0688L71.5935 25.1605L70.4784 25.2518L70.3914 27.5371L70.3047 29.8226H69.1403H67.9761L67.8891 27.5371L67.8024 25.2518L66.6873 25.1605L65.5726 25.0688V30.9843ZM81.4584 27.632C82.1481 28.316 82.1285 33.5343 81.4334 34.2963C79.8547 36.0262 78.6548 34.6366 78.6548 31.078C78.6548 27.4824 79.8394 26.0263 81.4584 27.632Z" fill="#CCCCCC"/>
</svg>
