<svg width="166" height="46" viewBox="0 0 166 46" fill="none" xmlns="http://www.w3.org/2000/svg">
<path fill-rule="evenodd" clip-rule="evenodd" d="M9.8133 1.30846C0.858807 4.29065 -2.77561 13.9256 2.33115 21.1424C5.9322 26.2307 5.8461 26.0362 6.38541 30.2907C6.51649 31.3244 6.95858 32.4639 7.46113 33.0644C8.23213 33.9857 8.31435 34.4485 8.31435 37.8867C8.31435 41.94 8.7695 43.1403 10.3076 43.1403C10.7028 43.1403 11.1439 43.5336 11.3451 44.0645C11.8772 45.471 15.9624 45.471 16.4945 44.0645C16.7315 43.4374 17.1247 43.1403 17.7158 43.1403C18.894 43.1403 19.8048 42.0396 19.8048 40.6156C19.8048 39.9705 19.9702 39.443 20.1729 39.443C20.3751 39.443 20.5405 39.1936 20.5405 38.8882C20.5405 38.5834 20.3751 38.334 20.1729 38.334C19.6607 38.334 19.7119 37.0967 20.2464 36.5595C20.5898 36.2143 20.5898 36.0169 20.2464 35.6722C19.7177 35.1408 19.6554 33.5277 20.1632 33.5277C20.7615 33.5277 21.592 31.5344 21.9659 29.2012C22.423 26.3464 23.0934 24.7766 24.8859 22.3642C33.2039 11.1671 23.0025 -3.08412 9.8133 1.30846ZM19.7782 3.0441C27.671 6.60435 29.2488 14.7458 23.5278 22.3924C21.9611 24.4858 21.1238 26.6313 20.7301 29.56C20.3756 32.2004 19.3124 33.2311 16.7208 33.447L14.6158 33.6225L14.7276 31.4678C14.8485 29.1341 16.6323 27.2332 17.6964 28.3028C18.3779 28.9878 18.7015 28.7856 18.7015 27.6737C18.7015 26.1403 18.434 26.0698 16.45 27.0805L14.6555 27.9945V25.6084V23.2223L15.9029 23.4255C18.8239 23.9019 23.268 20.2201 23.0852 17.4752C23.0436 16.8485 23.1306 15.8922 23.2787 15.3496C23.7091 13.773 22.8414 10.3639 21.801 9.54084C21.2781 9.12759 20.9898 8.60398 21.1108 8.287C21.3362 7.69678 20.8104 7.06476 18.8331 5.54935C17.013 4.15355 11.1642 4.19439 9.35815 5.61499C7.18688 7.32292 6.86233 7.7138 7.04226 8.40417C7.15786 8.84902 6.9194 9.29143 6.36848 9.65412C5.37064 10.3114 4.4971 13.7715 4.93048 15.3496C5.07994 15.8922 5.16555 16.7829 5.12154 17.3293C4.88598 20.2483 9.22175 23.9282 12.3043 23.4255L13.5517 23.2223V25.589V27.9557L11.8661 27.2293C9.55598 26.2341 9.13807 26.2895 9.13807 27.5905C9.13807 28.8599 9.68609 29.3622 10.1543 28.5211C10.4508 27.9892 10.6201 27.9921 12.016 28.5536L13.5517 29.1716V31.3939V33.6167L11.3306 33.4548C8.33612 33.2374 7.79729 32.6419 7.36052 29.0656C6.96971 25.8622 6.54116 24.902 3.99793 21.5245C-4.0864 10.7884 7.32376 -2.57413 19.7782 3.0441ZM13.5517 7.55093C13.5517 8.94333 13.4666 9.14607 13.0332 8.78387C12.1374 8.03711 11.9183 9.09016 12.7778 10.0095C13.7931 11.0961 13.9285 14.7721 12.9466 14.5961C12.0383 14.4332 11.9256 15.302 12.7938 15.7692C13.4608 16.128 13.5517 16.5267 13.5517 19.0922V22.0078L12.4499 22.2509C9.84667 22.8255 5.86642 19.5609 6.32979 17.2311C6.44877 16.6351 6.35204 15.7196 6.11503 15.1975C5.78225 14.4624 5.78806 14.0817 6.14163 13.5124C6.39267 13.1084 6.51165 12.4968 6.40524 12.1535C5.95396 10.6945 7.7141 9.71586 9.46117 10.4544C10.9877 11.099 10.977 11.0995 10.977 10.4019C10.977 10.0863 10.4092 9.58946 9.71511 9.29824C7.91289 8.54127 7.87081 8.23206 9.407 7.04191C12.119 4.94018 13.5517 5.11617 13.5517 7.55093ZM18.6096 6.87952C20.1361 8.09642 20.1163 8.61614 18.5177 9.28755C17.8096 9.58508 17.2302 10.0863 17.2302 10.4019C17.2302 11.1092 17.5982 11.1229 18.8669 10.4612C20.4457 9.63808 22.5149 10.8982 21.7415 12.2119C21.6399 12.384 21.7695 12.9232 22.0288 13.4103C22.3911 14.0905 22.4032 14.511 22.081 15.2218C21.8503 15.7308 21.7521 16.6054 21.8634 17.166C22.3548 19.6518 17.8773 23.1882 15.574 22.1332C14.3024 21.5508 14.1558 16.446 15.3912 15.7814C15.7955 15.5636 16.1269 15.2252 16.1269 15.0288C16.1269 14.8328 15.7955 14.6724 15.3912 14.6724C14.7561 14.6724 14.6555 14.4259 14.6555 12.8736C14.6555 11.6348 14.8843 10.782 15.3912 10.1349C15.7955 9.61766 16.1269 9.07655 16.1269 8.93264C16.1269 8.78824 15.7955 8.75762 15.3912 8.86409C14.7392 9.03522 14.6555 8.87527 14.6555 7.45516C14.6555 5.175 16.1912 4.95136 18.6096 6.87952ZM18.1579 13.1799C17.843 13.6923 19.3037 15.0419 20.1729 15.0419C21.2056 15.0419 21.0885 14.5757 19.8198 13.6325C18.5883 12.7175 18.4636 12.6835 18.1579 13.1799ZM68.3573 15.5966C68.3573 17.6094 68.3461 17.6298 67.254 17.6298C66.5183 17.6298 66.1507 17.8146 66.1507 18.1845C66.1507 18.5506 66.5149 18.7393 67.223 18.7393H68.2958L68.4187 23.1382C68.5653 28.3898 68.9329 29.0909 71.5409 29.0909C72.7163 29.0909 73.139 28.9445 73.139 28.5366C73.139 28.1876 72.7893 27.9819 72.1953 27.9819C70.0062 27.9819 69.8286 27.6066 69.8286 22.9777V18.7393H71.3C72.3627 18.7393 72.7714 18.5851 72.7714 18.1845C72.7714 17.7839 72.3627 17.6298 71.3 17.6298H69.8286V15.5966C69.8286 13.8094 69.7397 13.563 69.093 13.563C68.4468 13.563 68.3573 13.8094 68.3573 15.5966ZM75.4307 21.2299C75.5207 28.1914 75.5894 28.9081 76.1736 29.0209C76.7541 29.1332 76.8174 28.7588 76.8174 25.2117C76.8174 20.0485 77.4844 18.7743 80.1994 18.7509C82.9424 18.7271 83.5934 19.8365 83.7501 24.8043C83.8594 28.2726 83.9891 29.0909 84.4273 29.0909C84.8824 29.0909 84.9501 28.3504 84.8476 24.4756L84.7257 19.8604L83.5445 18.6741C82.1273 17.2511 79.5546 17.0182 77.8288 18.1568L76.8174 18.8243V16.1936C76.8174 13.8007 76.7502 13.563 76.0745 13.563C75.3494 13.563 75.3335 13.7511 75.4307 21.2299ZM7.29909 14.4133C7.29909 15.1542 8.09186 15.7814 9.02779 15.7814C10.0672 15.7814 10.1485 15.0448 9.13807 14.7794C8.73371 14.6729 8.40238 14.439 8.40238 14.2592C8.40238 14.0798 8.15425 13.9329 7.8505 13.9329C7.54722 13.9329 7.29909 14.1493 7.29909 14.4133ZM39.6674 17.5107C39.3641 17.6293 38.8466 17.9614 38.5172 18.2487C37.9997 18.7008 37.8899 18.694 37.7012 18.2006C37.5817 17.8865 37.2301 17.6298 36.9201 17.6298C36.4388 17.6298 36.3571 18.4612 36.3571 23.3603C36.3571 28.8444 36.3885 29.0909 37.0927 29.0909C37.7849 29.0909 37.8284 28.8444 37.8284 24.8894C37.8284 19.9527 38.3697 18.7393 40.5729 18.7393C43.074 18.7393 43.5137 19.5818 43.6525 24.6419C43.7613 28.594 43.8494 29.1191 44.3882 29.015C44.9096 28.9149 45.0165 28.2678 45.1055 24.6604C45.2235 19.8886 45.7556 18.7393 47.8475 18.7393C50.4004 18.7393 51.0698 20.1331 51.0698 25.4489C51.0698 28.4399 51.1685 29.0909 51.6217 29.0909C52.4382 29.0909 52.4174 21.0257 51.5971 19.4311C50.4793 17.2579 47.4649 16.778 45.3643 18.4388L44.4056 19.1967L43.5998 18.4432C42.7538 17.6527 40.6067 17.1431 39.6674 17.5107ZM58.0659 17.6726C56.7628 18.1952 55.8516 19.1141 55.8516 19.9056C55.8516 20.8619 56.535 20.7544 57.3887 19.6635C58.8925 17.7416 62.8403 18.7937 62.8403 21.1157C62.8403 21.932 62.6483 22.037 60.7252 22.2723C56.5103 22.7886 55.1159 23.7814 55.1159 26.2672C55.1159 29.3544 58.4939 30.1692 62.5642 28.0631C62.716 27.9843 62.8403 28.1837 62.8403 28.5055C62.8403 28.8278 63.0885 29.0909 63.3917 29.0909C64.2087 29.0909 64.199 20.0096 63.3811 18.8355C62.4829 17.5472 59.8279 16.9662 58.0659 17.6726ZM90.8206 17.8948C86.3161 20.2498 87.0837 28.4584 91.8848 29.2737C93.5878 29.5629 96.385 28.487 97.0172 27.2998C97.6503 26.1106 96.8382 25.9745 95.452 27.0373C93.0563 28.874 89.3232 27.5526 89.3232 24.868V23.9151H93.3692H97.4157L97.4143 22.3437C97.4109 18.6342 93.9162 16.2763 90.8206 17.8948ZM103.209 17.9517C102.072 18.5346 101.829 18.5637 101.829 18.1174C101.829 17.8005 101.562 17.6274 101.186 17.7003C100.229 17.8855 100.198 28.8298 101.155 29.0145C101.693 29.1191 101.781 28.594 101.89 24.6419C102.027 19.6426 102.477 18.7393 104.829 18.7393C107.117 18.7393 107.714 19.9999 107.714 24.8227C107.714 28.8444 107.757 29.0909 108.45 29.0909C109.143 29.0909 109.186 28.8444 109.186 24.8894C109.186 19.9527 109.727 18.7393 111.93 18.7393C114.432 18.7393 114.871 19.5818 115.01 24.6419C115.119 28.5935 115.207 29.1191 115.746 29.0155C116.434 28.8838 116.793 24.3998 116.355 21.3962C115.838 17.8496 112.321 16.2549 109.553 18.3114C108.388 19.1773 108.387 19.1773 107.591 18.4437C106.36 17.3084 104.803 17.1334 103.209 17.9517ZM122.168 17.6697C120.994 18.011 119.852 19.2162 119.852 20.1151C119.852 20.8692 120.617 20.6645 121.54 19.6635C123.202 17.8612 126.841 18.7456 126.841 20.9518C126.841 21.9674 126.75 22.0248 124.726 22.2742C120.976 22.7371 119.117 23.9228 119.117 25.8525C119.117 28.84 122.396 30.3398 125.476 28.7612C126.554 28.2085 126.841 28.1696 126.841 28.5765C126.841 28.8595 127.172 29.0909 127.577 29.0909C128.675 29.0909 128.689 21.0286 127.595 19.224C126.59 17.5685 124.538 16.9808 122.168 17.6697ZM139.609 17.9599C138.531 18.5122 138.244 18.5511 138.244 18.1447C138.244 17.8617 137.996 17.6298 137.692 17.6298C137.226 17.6298 137.14 18.5132 137.14 23.3603C137.14 28.0573 137.234 29.0909 137.661 29.0909C138.075 29.0909 138.207 28.1725 138.305 24.621C138.441 19.6712 138.898 18.7393 141.186 18.7393C143.444 18.7393 143.926 19.6853 144.129 24.5242C144.288 28.3096 144.4 28.9149 144.956 29.0218C145.54 29.1337 145.6 28.7413 145.6 24.8495C145.6 19.9586 146.187 18.7393 148.543 18.7393C150.894 18.7393 151.486 19.961 151.486 24.8227C151.486 28.8444 151.528 29.0909 152.221 29.0909C153.147 29.0909 153.327 22.1843 152.456 20.1137C151.243 17.2341 148.032 16.4931 145.795 18.5764C145.067 19.2551 144.817 19.328 144.594 18.9269C143.748 17.4067 141.528 16.9764 139.609 17.9599ZM158.855 17.7314C154.7 19.2084 154.75 27.433 158.924 29.0296C161.189 29.896 165.095 28.3932 165.095 26.6551C165.095 25.8773 164.414 26.0212 163.189 27.0577C161.213 28.7292 158.459 28.1812 157.523 25.9307C156.685 23.9141 156.684 23.9151 161.233 23.9151H165.463V22.7939C165.463 19.066 162.178 16.5495 158.855 17.7314ZM9.13807 18.3561C9.13807 18.5526 9.51051 18.9094 9.96566 19.1496C10.4208 19.3898 10.9258 19.8118 11.0873 20.0869C11.5183 20.8206 12.0808 20.6976 12.0808 19.8691C12.0808 19.4739 11.7127 18.8919 11.2634 18.5754C10.3512 17.9332 9.13807 17.8082 9.13807 18.3561ZM17.5982 18.7393C17.1934 19.1457 16.8625 19.6353 16.8625 19.8263C16.8625 20.6159 17.6084 20.5439 18.4771 19.6703C18.9869 19.1583 19.5765 18.7393 19.7884 18.7393C19.9997 18.7393 20.1729 18.5725 20.1729 18.3693C20.1729 17.7149 18.3576 17.976 17.5982 18.7393ZM94.4933 19.1199C95.2672 19.5361 96.3119 21.3242 96.3119 22.2329C96.3119 22.7103 95.7281 22.8061 92.8178 22.8061C89.5316 22.8061 89.3232 22.7604 89.3232 22.0423C89.3232 19.5132 92.2011 17.8865 94.4933 19.1199ZM162.916 19.8195C163.548 20.455 163.991 21.2931 163.991 21.8532V22.8061H160.703C157.025 22.8061 156.755 22.6389 157.508 20.8264C158.496 18.4514 161.077 17.9711 162.916 19.8195ZM62.8403 23.9267C62.8403 27.1953 59.2978 29.2236 56.9403 27.3047C55.1792 25.8714 56.6308 24.1518 60.0925 23.5699C62.8147 23.1124 62.8403 23.1158 62.8403 23.9267ZM126.729 24.7464C126.344 27.6314 122.847 29.1434 120.956 27.2424C119.339 25.6172 120.625 24.162 124.219 23.5519C127.076 23.0667 126.96 23.0113 126.729 24.7464ZM131.623 28.1667C131.623 28.9061 131.807 29.0909 132.542 29.0909C133.278 29.0909 133.462 28.9061 133.462 28.1667C133.462 27.4272 133.278 27.2424 132.542 27.2424C131.807 27.2424 131.623 27.4272 131.623 28.1667ZM18.7015 35.0557C18.7015 35.8958 17.6277 36.1049 13.276 36.1107C9.60967 36.1156 9.50567 36.0927 9.50616 35.2838C9.50664 34.4655 9.5821 34.4519 14.1046 34.4519C18.1129 34.4519 18.702 34.5292 18.7015 35.0557ZM18.7015 37.7312C18.7015 38.7998 17.5257 39.0633 12.7241 39.0691C9.5463 39.0735 9.50567 39.0618 9.50567 38.1609C9.50567 37.2489 9.50906 37.2484 13.8279 37.1312C16.2047 37.0666 18.2739 36.9781 18.4258 36.9343C18.5772 36.891 18.7015 37.2494 18.7015 37.7312ZM18.6338 40.8295L18.5177 41.8461H14.1036C9.82684 41.8461 9.68609 41.8208 9.57387 41.0269C9.46117 40.2311 9.56904 40.2048 13.4361 40.0891C15.6238 40.0235 17.7148 39.9345 18.0824 39.8912C18.6082 39.8295 18.7257 40.0293 18.6338 40.8295ZM15.3912 43.5098C15.3912 43.713 14.729 43.8798 13.9198 43.8798C13.1106 43.8798 12.4484 43.713 12.4484 43.5098C12.4484 43.3066 13.1106 43.1403 13.9198 43.1403C14.729 43.1403 15.3912 43.3066 15.3912 43.5098Z" fill="#CCCCCC"/>
</svg>
