<svg width="191" height="48" viewBox="0 0 191 48" fill="none" xmlns="http://www.w3.org/2000/svg">
<path fill-rule="evenodd" clip-rule="evenodd" d="M45.5338 2.30141C45.8001 3.56695 46.4796 5.48996 47.0438 6.57462L48.0699 8.54701L48.4872 6.90305C49.0663 4.62365 48.6353 3.32301 46.7067 1.53567L45.0493 0L45.5338 2.30141ZM50.2933 6.73884C49.3944 8.785 48.36 9.71616 47.8476 8.9391C46.438 6.8019 43.3556 6.64959 44.4911 8.77369C47.1966 13.8323 51.4918 13.2129 52.2361 7.6569C52.6647 4.46063 51.5287 3.92395 50.2933 6.73884ZM51.3973 12.4918C50.2059 14.7063 49.1441 15.4887 49.1441 14.1518C49.1441 13.7996 48.2572 13.0523 47.1734 12.4918C44.8727 11.3006 44.7354 11.7165 46.4838 14.5861C48.983 18.688 51.2397 18.8576 52.824 15.0621C54.7133 10.5366 53.5636 8.46549 51.3973 12.4918ZM3.22213 19.8881C1.64138 24.1363 0.210443 27.9823 0.0422026 28.4345C-0.139712 28.9224 0.278216 29.2562 1.06948 29.2562C2.01056 29.2562 2.62586 28.5797 3.16149 26.9553C4.29935 23.505 10.4916 23.3824 11.4636 26.7911C11.8773 28.2405 12.5336 28.9944 13.505 29.1348C14.8878 29.3341 14.8444 29.0848 12.2566 21.9027C10.7829 17.8116 9.42861 13.9459 9.24848 13.3135C8.24082 9.77982 6.12444 12.089 3.22213 19.8881ZM14.0139 12.7976C13.2476 14.0387 14.3748 14.7926 16.9953 14.7926H19.5837V22.0247C19.5837 28.8183 19.6634 29.2562 20.8975 29.2562C22.1317 29.2562 22.2113 28.8183 22.2113 22.0622V14.8682L25.0031 14.6659C26.9572 14.5243 27.7948 14.1679 27.7948 13.4777C27.7948 12.2758 14.7344 11.632 14.0139 12.7976ZM29.4374 20.7098C29.4374 28.8183 29.5046 29.2562 30.7512 29.2562C31.9057 29.2562 32.065 28.8183 32.065 25.6404V22.0247H35.3026C39.2976 22.0247 40.6043 23.1706 40.6043 26.6733C40.6043 28.9997 40.7702 29.2562 42.2701 29.2562C43.7129 29.2562 43.8443 29.0866 43.2551 27.9847C42.8812 27.2856 42.575 25.6755 42.575 24.4076C42.575 23.1397 42.2974 21.9301 41.9574 21.72C41.6018 21.4999 41.8034 20.5283 42.4312 19.4335C44.9465 15.0478 41.7041 12.1877 34.1998 12.1723L29.4374 12.1627V20.7098ZM59.7154 19.8881C58.134 24.1363 56.7031 27.9823 56.5349 28.4345C56.3535 28.9224 56.7709 29.2562 57.5627 29.2562C58.5038 29.2562 59.1191 28.5797 59.6547 26.9553C60.3866 24.736 60.5292 24.6545 63.68 24.6545C66.7934 24.6545 66.9925 24.7628 67.9081 26.9553C68.5388 28.466 69.3075 29.2562 70.1451 29.2562C71.3359 29.2562 71.264 28.8254 69.0709 22.8464C67.7779 19.3205 66.4105 15.4745 66.033 14.2994C64.5956 9.82683 62.9013 11.3256 59.7154 19.8881ZM80.0184 20.6354V29.2562H84.3315C88.4988 29.2562 90.9898 28.5303 91.9968 27.0214C92.9962 25.5226 92.5152 22.1104 91.1711 21.1679C89.9981 20.3456 89.9595 20.1398 90.8429 19.4067C94.31 16.527 90.8816 12.6286 84.5681 12.2716L80.0184 12.0146V20.6354ZM95.7837 20.7098C95.7837 27.8687 95.9436 29.2562 96.7694 29.2562C97.5256 29.2562 97.7545 28.416 97.7545 25.6404V22.0247H101.236C105.455 22.0247 106.294 22.7553 106.294 26.4294C106.294 29.0622 106.416 29.2562 108.068 29.2562C109.447 29.2562 109.666 29.0812 109.053 28.4672C108.619 28.0335 108.265 26.424 108.265 24.8901C108.265 23.3569 107.987 21.9301 107.647 21.72C107.29 21.4993 107.473 20.5646 108.078 19.5073C110.57 15.1633 107.166 12.1627 99.746 12.1627H95.7837V20.7098ZM115.065 13.4295C112.538 14.9717 111.269 18.4256 111.729 22.5114C112.663 30.7954 123.383 32.5459 126.735 24.9609C130.429 16.6043 122.577 8.84569 115.065 13.4295ZM130.599 20.7098C130.599 27.8687 130.759 29.2562 131.585 29.2562C132.309 29.2562 132.57 28.5005 132.57 26.3996C132.57 23.8049 133.935 21.3672 135.389 21.3672C135.618 21.3672 137.01 23.1421 138.482 25.312C140.227 27.8835 141.607 29.2562 142.448 29.2562C144.21 29.2562 144.187 29.1973 140.337 23.8995L136.936 19.2205L140.337 15.9737C144.118 12.3633 144.235 12.1627 142.567 12.1627C141.923 12.1627 139.642 13.9382 137.497 16.1075C135.351 18.2768 133.366 20.0523 133.083 20.0523C132.801 20.0523 132.57 18.2768 132.57 16.1075C132.57 13.0392 132.351 12.1627 131.585 12.1627C130.759 12.1627 130.599 13.5509 130.599 20.7098ZM146.365 20.7098V29.2562H152.605C157.714 29.2562 158.846 29.0777 158.846 28.2703C158.846 27.476 157.824 27.2838 153.591 27.2838H148.335V24.3255V21.3672H152.934C156.583 21.3672 157.532 21.1637 157.532 20.3807C157.532 19.5971 156.579 19.3948 152.894 19.3948H148.256L148.46 16.9292L148.664 14.4636L153.426 14.2708C161.097 13.9596 160.117 12.1627 152.277 12.1627H146.365V20.7098ZM161.473 20.6253C161.473 27.7205 161.643 29.2562 162.424 29.2562C163.109 29.2562 163.431 28.2875 163.574 25.8046L163.773 22.3531L166.944 22.1508C170.637 21.9152 171.984 22.7666 171.984 25.3382C171.984 27.9484 172.612 29.2562 173.865 29.2562C175.239 29.2562 174.988 23.5895 173.542 21.9545C172.732 21.0388 172.741 20.7871 173.609 20.066C177.458 16.8697 173.765 12.706 166.721 12.2978L161.473 11.9938V20.6253ZM179.508 13.7764C176.402 16.8852 177.759 20.1279 182.688 21.372C187.716 22.6411 188.512 23.1778 188.285 25.1406C187.885 28.5987 181.695 28.8486 180.203 25.4667C179.307 23.4354 176.989 23.4437 177.58 25.4762C178.937 30.1457 186.605 31.4273 189.691 27.4998C192.4 24.0536 190.934 21.6171 185.019 19.7346C181.592 18.644 180.813 18.1299 180.63 16.8394C180.193 13.7478 185.604 12.9107 187.481 15.7785C188.679 17.6081 190.377 17.9758 190.377 16.4062C190.377 14.2428 187.318 12.1627 184.136 12.1627C181.81 12.1627 180.752 12.5316 179.508 13.7764ZM87.7153 14.5439C91.7828 15.6351 89.8281 19.3948 85.1929 19.3948H81.9892V16.765C81.9892 13.965 83.448 13.3991 87.7153 14.5439ZM105.023 14.8158C108.454 16.6531 105.995 20.0523 101.236 20.0523H97.7545V17.0934V14.1351H100.754C102.403 14.1351 104.325 14.4416 105.023 14.8158ZM123.714 16.242C126.84 19.9601 125.23 26.5103 120.925 27.5914C118.407 28.2239 115.728 26.8125 114.49 24.2011C111.199 17.2606 118.949 10.5741 123.714 16.242ZM170.636 14.7742C174.5 16.8441 172.51 20.0523 167.362 20.0523H163.444V17.5319C163.444 14.0911 166.892 12.769 170.636 14.7742ZM40.3368 16.4449C40.9836 19.023 39.6311 20.0523 35.5975 20.0523H32.065V17.4224V14.7926H35.994C39.6418 14.7926 39.9521 14.9104 40.3368 16.4449ZM7.59461 21.9063C5.00917 22.1883 4.96815 22.0824 6.23204 18.3709L7.32769 15.1514L8.4269 18.4238L9.52611 21.6957L7.59461 21.9063ZM52.547 17.0922C51.8075 18.0329 51.0762 19.158 50.9223 19.5918C50.7481 20.0826 49.999 19.6977 48.939 18.5732C48.0027 17.5783 46.9065 16.765 46.5034 16.765C45.3162 16.765 46.463 19.5311 48.5348 21.6641L50.4199 23.6044L52.0708 22.052C53.5939 20.6199 54.9981 16.4877 54.2247 15.7136C54.0416 15.5304 53.2872 16.151 52.547 17.0922ZM64.0879 21.9063C61.5024 22.1883 61.4614 22.0824 62.7253 18.3709L63.8209 15.1514L64.9201 18.4238L66.0194 21.6957L64.0879 21.9063ZM46.2627 23.1403C46.7715 25.2448 48.9509 28.5987 49.8094 28.5987C51.1945 28.5987 53.7746 25.4548 54.1248 23.3396L54.5053 21.0382L52.4828 23.1837L50.4604 25.3298L49.3094 23.956C47.1651 21.397 45.7496 21.018 46.2627 23.1403ZM89.258 22.0479C92.6882 23.8852 90.23 27.2838 85.4705 27.2838H81.9892V24.3255V21.3672H84.9884C86.6375 21.3672 88.5589 21.673 89.258 22.0479ZM45.8941 27.523C45.875 28.5588 46.4981 30.5425 47.278 31.9312L48.6959 34.457L50.6363 33.0736C52.4055 31.8128 54.8637 27.5295 54.1997 26.8649C54.0475 26.7126 53.0113 27.4403 51.8972 28.4815L49.8718 30.3747L47.9005 28.0079L45.9286 25.6404L45.8941 27.523ZM46.2389 40.273C46.0201 40.9632 44.8097 43.2783 43.5494 45.4178C42.2891 47.558 41.8807 48.5719 42.6422 47.6711C44.3288 45.6767 47.3821 39.7648 46.9493 39.3317C46.7775 39.1597 46.4576 39.5834 46.2389 40.273Z" fill="#CCCCCC"/>
</svg>
