<svg width="178" height="26" viewBox="0 0 178 26" fill="none" xmlns="http://www.w3.org/2000/svg">
<path fill-rule="evenodd" clip-rule="evenodd" d="M0.32129 0.719972C0.0642127 1.13398 -0.0655065 6.89023 0.0329612 13.5121L0.211619 25.5519H36.6694H73.1272V13V0.448074H62.3253H51.5227V3.13769V5.8273H58.5009C64.547 5.8273 65.4786 6.03695 65.4774 7.39644C65.4756 8.76004 64.5322 8.96558 58.2739 8.96558H51.0728V13V17.0344H58.2739C64.8754 17.0344 65.4756 17.1842 65.4756 18.8279C65.4756 20.4951 64.8754 20.6208 56.9237 20.6208H48.3717V10.3104C48.3717 1.74297 48.1436 0 47.0215 0C45.8994 0 45.6713 1.74649 45.6713 10.3427V20.686L36.8947 20.4293L28.1175 20.1727L27.8557 13.2607L27.5933 6.34937L35.0568 6.08863L42.5209 5.8273V3.13769V0.448074L21.6546 0.2073C10.1781 0.0751687 0.578367 0.305959 0.32129 0.719972ZM78.4563 6.58897C78.1998 7.25433 78.1113 10.5829 78.2593 13.9854L78.5282 20.1727L85.9551 20.4329C96.9269 20.8175 96.7317 23.3104 85.7299 23.3104C79.5288 23.3104 78.0783 23.5653 78.0783 24.6552C78.0783 25.761 79.6786 26 87.0801 26H96.082V15.6896V5.37923H87.5023C81.132 5.37923 78.8018 5.69047 78.4563 6.58897ZM99.4145 5.94534C97.8585 7.4951 98.7217 20.7641 100.358 20.4534C101.622 20.2138 101.986 19.0481 102.202 14.5597L102.469 8.96558H109.694C116.089 8.96558 116.884 8.78529 116.617 7.39644C116.303 5.76153 100.903 4.46253 99.4145 5.94534ZM119.878 6.55491C119.615 7.23906 119.52 10.5829 119.668 13.9854L119.937 20.1727L128.751 20.4293L137.565 20.6865L137.303 13.2572L137.041 5.8273L128.699 5.5695C122.237 5.36983 120.249 5.59182 119.878 6.55491ZM140.192 13V20.6208H149.23H158.268L158.007 13.2243C157.668 3.64507 155.214 2.28324 154.777 11.4309L154.509 17.0344H148.701H142.892V11.2065C142.892 6.62421 142.604 5.37923 141.542 5.37923C140.448 5.37923 140.192 6.82387 140.192 13ZM160.596 5.97705C158.879 7.68654 159.977 26 161.796 26C163.197 26 163.597 25.4028 163.597 23.3104V20.6208H170.798H178V13V5.37923H169.598C164.977 5.37923 160.926 5.64819 160.596 5.97705ZM24.7796 13.2243C24.4311 22.436 21.8161 23.6216 21.8161 14.5674C21.8161 5.9794 17.9942 5.98058 17.5832 14.5691C17.1994 22.5957 14.7306 22.5957 14.3467 14.5691C13.9358 5.98234 10.1138 5.98293 10.1138 14.5691C10.1138 23.6216 7.49881 22.4348 7.15034 13.2243L6.88737 6.27596H15.9653H25.0426L24.7796 13.2243ZM31.2684 13V17.0344H37.1193H42.9708V13V8.96558H37.1193H31.2684V13ZM93.3815 13V17.0344H87.5306H81.6792V13V8.96558H87.5306H93.3815V13ZM134.664 13L134.454 17.0344H128.771H123.088V13V8.96558H128.981H134.874L134.664 13ZM175.3 13V17.0344H169.448H163.597V13V8.96558H169.448H175.3V13Z" fill="#CCCCCC"/>
</svg>
