<svg width="98" height="39" viewBox="0 0 98 39" fill="none" xmlns="http://www.w3.org/2000/svg">
<path fill-rule="evenodd" clip-rule="evenodd" d="M10.441 0.749628C8.24786 1.70803 8.04774 5.14702 10.1271 6.14158L10.6859 6.40879V8.53868V10.6688L9.61703 11.1244C5.4771 12.889 1.16779 18.2113 1.16779 21.5598C1.16779 21.8872 2.9418 22.1165 3.0277 21.8005C4.2979 17.1187 7.09697 13.9845 11.2909 12.5485L12.6215 12.0927L12.6218 8.43287V4.77303L11.8893 4.69027C10.6324 4.54805 10.0865 3.55227 10.8473 2.78924C11.2875 2.34777 18.9067 2.28467 19.5228 2.71764C20.3998 3.3336 19.6818 4.7308 18.4883 4.7308H17.9455V8.42656V12.1223L19.2764 12.5601C23.094 13.8163 26.0194 16.9719 27.2064 21.1137L27.4733 22.0449L28.396 21.9405C28.9037 21.8833 29.3291 21.8282 29.3414 21.8185C29.354 21.8085 29.2376 21.3273 29.0832 20.7487C27.9469 16.4947 25.0602 13.0623 21.1226 11.2836L19.72 10.6501V8.61149V6.57285L20.4571 6.05203C22.3579 4.70823 22.1965 1.85438 20.1638 0.867335C19.2878 0.442133 11.3644 0.346026 10.441 0.749628ZM44.1925 10.9943C44.1508 11.0644 42.5753 14.7988 40.6914 19.2925C38.8075 23.7865 37.1981 27.5934 37.115 27.7524C36.9745 28.022 37.0696 28.0385 38.5181 27.9951L40.0719 27.9487L40.9317 25.8453L41.7915 23.7421H45.4484H49.1053L49.9651 25.8453L50.8249 27.9487L52.4515 27.9948L54.0779 28.0409L53.6738 27.1049C53.4514 26.5901 51.832 22.747 50.0749 18.5644L46.88 10.9601L45.5742 10.9132C44.856 10.8875 44.2343 10.9239 44.1925 10.9943ZM56.6635 19.4544V28.0295H61.9873H67.311V26.6544V25.2791H63.4392H59.5674V18.079V10.8792H58.1155H56.6635V19.4544ZM70.0021 10.9846C69.9416 11.0452 69.8923 14.9053 69.8923 19.5621V28.0295H71.4248H72.9573V24.7129V21.3959H75.942H78.9264V20.0206V18.6455H75.942H72.9573V16.2217V13.7981L76.3049 13.7544L79.6524 13.7105V12.3354V10.9601L74.8823 10.9173C72.2587 10.8938 70.0626 10.9241 70.0021 10.9846ZM87.0199 11.1559C86.9362 11.3151 85.327 15.1223 83.4436 19.6163C81.5604 24.11 79.987 27.8414 79.9473 27.9082C79.9077 27.9749 80.5613 28.0295 81.3995 28.0295H82.9238L83.8034 25.8858L84.683 23.7421L88.3191 23.6986L91.9555 23.6552L92.8361 25.8018L93.7167 27.9487L95.2751 27.9951C96.1322 28.0205 96.8335 27.9803 96.8335 27.9055C96.8335 27.8308 95.2434 23.9874 93.2997 19.3648L89.766 10.9601L88.4692 10.9132C87.3582 10.8732 87.1504 10.9079 87.0199 11.1559ZM14.353 14.641C11.6698 17.8354 10.4444 20.904 10.4441 24.4296C10.4439 25.6086 10.4243 26.5734 10.4003 26.5734C10.3764 26.5734 10.0565 26.3833 9.68962 26.1511C7.95336 25.0519 4.84261 24.0906 2.37022 23.8894L0.955078 23.7741L1.06131 25.1334C1.49786 30.7096 4.19094 35.1099 8.47097 37.2398C18.2061 42.0847 28.5782 36.1118 29.3492 25.2162L29.4513 23.7741L28.0359 23.8894C27.2574 23.9527 25.9207 24.1804 25.0658 24.3954C23.7266 24.7323 23.0086 25.0378 20.0428 26.5333C19.9983 26.5556 19.9862 25.787 20.016 24.8252C20.1229 21.3447 18.6466 17.5623 16.007 14.5551C15.1794 13.612 15.2193 13.6098 14.353 14.641ZM46.7578 17.9603L47.9246 20.8297L46.736 20.8768C46.0824 20.9028 44.9688 20.9028 44.2614 20.8768L42.9755 20.8297L44.1944 17.871C44.8647 16.244 45.4532 14.9526 45.5021 15.0019C45.551 15.0509 46.1163 16.3823 46.7578 17.9603ZM89.6392 17.947C90.2243 19.3869 90.7032 20.6429 90.7032 20.738C90.7032 20.8525 89.8853 20.9105 88.2659 20.9105C86.3813 20.9105 85.847 20.8647 85.9087 20.7084C85.9525 20.597 86.4401 19.4138 86.9921 18.079C87.5441 16.7442 88.0655 15.4701 88.1507 15.2477C88.3465 14.7371 88.3027 14.6578 89.6392 17.947ZM16.155 18.0196C18.9517 22.5771 18.7264 28.0397 15.5844 31.8602L15.2086 32.3172L14.8841 31.9126C11.6142 27.8368 11.5316 22.0886 14.6746 17.3252C15.2188 16.5003 15.2244 16.503 16.155 18.0196ZM4.9319 26.2625C9.54298 27.4388 12.3411 30.1589 13.6694 34.7561C14.3905 37.2524 14.2646 37.3272 11.1171 36.2744C7.07277 34.9213 4.55077 32.1386 3.434 27.7968C2.8905 25.6836 2.845 25.73 4.9319 26.2625ZM27.3024 26.3127C27.3024 26.9073 26.5337 29.4532 26.0269 30.5375C24.4862 33.8331 21.5797 35.9474 17.3749 36.8316C16.1129 37.0969 16.1122 37.0944 16.7385 34.8837C18.0825 30.1398 20.7714 27.5123 25.5739 26.2498C27.1418 25.838 27.3024 25.8438 27.3024 26.3127ZM38.3231 32.2281C36.7983 33.1608 37.1729 34.7197 39.1753 35.7751C40.1246 36.2756 40.2969 36.4326 40.3432 36.8396C40.4436 37.724 39.6237 37.981 38.5133 37.4133C37.6085 36.9505 36.9781 37.449 37.6121 38.1259C38.8709 39.4697 41.6603 38.6843 41.6603 36.9862C41.6603 35.9996 41.2809 35.5252 40.047 34.9679C39.1187 34.5488 38.7565 34.2156 38.7565 33.7807C38.7565 33.064 39.7544 32.7769 40.4782 33.2853C40.8126 33.52 41.3377 33.0987 41.3377 32.5956C41.3377 31.9961 39.1405 31.7284 38.3231 32.2281ZM53.6443 32.1068C53.5172 32.2655 51.4414 37.1049 50.8996 38.5059C50.8459 38.6443 51.0013 38.7081 51.3913 38.7081C51.9257 38.7081 51.9871 38.6523 52.3678 37.8184L52.7738 36.9284H54.1353H55.4967L55.857 37.8184C56.2064 38.6817 56.2357 38.7081 56.8424 38.7081H57.4677L57.1945 38.0206C54.9931 32.4774 54.2879 31.303 53.6443 32.1068ZM59.043 32.0214L58.438 32.0939V35.4011V38.7081H59.0834H59.7288V37.4946C59.7288 36.3091 59.738 36.2812 60.131 36.2812C60.4444 36.2812 60.7306 36.5491 61.4278 37.4946C62.3115 38.6931 62.3316 38.7081 63.051 38.7081H63.7794L62.7374 37.3701L61.6957 36.0319L62.2612 35.5499C64.2985 33.8125 62.3072 31.6292 59.043 32.0214ZM73.6184 32.2665C73.5385 32.4723 72.9215 33.9503 72.2473 35.5506C70.822 38.9343 70.8706 38.7081 71.5673 38.7081C72.0779 38.7081 72.1367 38.6506 72.4733 37.8184L72.8336 36.9284H74.1764C75.6303 36.9284 75.6162 36.9204 76.0426 37.9778C76.282 38.5715 76.3613 38.6317 76.9668 38.6768L77.6291 38.7266L77.1272 37.5444C76.8511 36.8942 76.2123 35.3793 75.7075 34.178C74.8211 32.0685 74.772 31.992 74.2766 31.943C73.865 31.9022 73.735 31.966 73.6184 32.2665ZM79.8956 32.1704C77.646 33.1487 77.1967 36.6445 79.1302 38.1235C80.1993 38.9416 81.9641 39.0285 83.2164 38.3249L83.8467 37.9708L83.8934 36.5598L83.9401 35.1487H82.5625H81.1849V35.715V36.2812H82.0018H82.8185L82.7682 36.8013C82.6624 37.888 80.7989 38.0298 79.7992 37.0272C77.9422 35.1648 80.1371 32.0752 82.4611 33.2805C82.9066 33.5115 83.2822 33.1863 83.2822 32.5699C83.2822 32.0267 80.8778 31.7432 79.8956 32.1704ZM85.9036 32.0299L85.3795 32.0949V35.4016V38.7081H85.944H86.5086V37.4946V36.2812L86.9524 36.2858C87.3164 36.2894 87.5537 36.5076 88.2744 37.4992C89.1388 38.6884 89.1647 38.7081 89.8671 38.7081C90.4114 38.7081 90.5454 38.6601 90.4303 38.5059C90.3472 38.3948 89.8887 37.8021 89.411 37.1893L88.5427 36.0749L88.957 35.7332C89.5371 35.2543 89.7353 34.8002 89.7353 33.9484C89.7353 32.3888 88.398 31.7192 85.9036 32.0299ZM92.6227 32.3633C89.3019 34.103 91.0754 39.3648 94.7921 38.8003C99.0242 38.1574 98.6077 31.9126 94.333 31.9126C93.716 31.9126 93.2463 32.0364 92.6227 32.3633ZM43.1122 35.3914V38.7081H43.6727H44.2329L44.2776 36.3489L44.3222 33.9896L45.2901 35.3761C46.4727 37.0704 46.3861 37.0697 47.5575 35.3985L48.5165 34.0302L48.5613 36.3693L48.6058 38.7081H49.2469H49.8879V35.3914V32.0745H49.2602C48.6511 32.0745 48.6032 32.1175 47.6381 33.5307C46.4328 35.2958 46.6189 35.2956 45.3603 33.5334C44.3715 32.1488 44.2934 32.0796 43.7172 32.0772L43.1122 32.0745V35.3914ZM63.6006 32.5599V33.0453H64.6491H65.6977V35.8768V38.7081H66.343H66.9884V35.8768V33.0453H68.037H69.0855V32.5599V32.0745H66.343H63.6006V32.5599ZM61.4225 33.3688C61.9432 33.8023 61.6874 34.7012 60.9651 34.9767C59.8965 35.3842 59.7288 35.2621 59.7288 34.076V33.0033L60.4545 33.0853C60.8538 33.1305 61.2894 33.2579 61.4225 33.3688ZM88.3208 33.5372C88.8803 34.2301 88.369 34.9806 87.2513 35.1068L86.5086 35.1907V34.0969V33.0033L87.2687 33.0892C87.7906 33.1482 88.1202 33.2885 88.3208 33.5372ZM95.3968 33.2958C96.8853 34.0678 96.8775 36.6518 95.384 37.4405C93.8394 38.2565 92.1551 37.1944 92.1551 35.4048C92.1551 33.5739 93.8309 32.4837 95.3968 33.2958ZM54.9653 35.6201C55.0647 35.9348 55.011 35.9576 54.174 35.9576C53.1162 35.9576 53.0998 35.9093 53.697 34.5621L54.1186 33.6115L54.4883 34.4469C54.6918 34.9063 54.9065 35.4342 54.9653 35.6201ZM74.6923 34.6291C75.2005 35.9433 75.1947 35.9576 74.15 35.9576C73.3529 35.9576 73.259 35.9241 73.359 35.6744C73.4217 35.5188 73.6208 35.0092 73.8021 34.542C74.2137 33.4805 74.2497 33.4841 74.6923 34.6291Z" fill="#CCCCCC"/>
</svg>
