<svg width="76" height="37" viewBox="0 0 76 37" fill="none" xmlns="http://www.w3.org/2000/svg">
<path fill-rule="evenodd" clip-rule="evenodd" d="M37.555 0.0187542C33.625 0.451772 30.6834 1.80019 28.1015 4.35246C24.3798 8.03122 22.9823 12.8327 24.1454 17.9431C25.4175 23.5319 30.2154 27.9886 36.0326 28.9841C42.5378 30.0975 48.6216 27.5668 51.7036 22.4654C51.9937 21.9856 52.8206 20.4583 52.8206 20.4028C52.8206 20.3882 51.2833 20.3765 49.4044 20.3765H45.9881L45.6385 20.8069C41.7833 25.555 33.3457 24.3728 30.6724 18.7097C28.9649 15.0926 29.6309 11.0045 32.3912 8.16028C36.0693 4.37079 42.8253 4.60681 45.8903 8.63209L46.1945 9.03172L49.4849 9.03384L52.7751 9.03572L52.7089 8.88645C50.3778 3.62723 46.717 0.842476 41.1607 0.101738C40.6073 0.0279233 38.0134 -0.031788 37.555 0.0187542ZM0 14.5914V28.687H4.01539C11.3555 28.6868 13.2152 28.387 16.0028 26.7544C20.5033 24.1185 22.8771 19.9235 22.872 14.6142C22.8653 7.69576 18.8741 2.57219 12.2457 0.97365C10.4861 0.549331 9.60765 0.496201 4.34314 0.495966L0 0.495731V14.5914ZM54.6938 14.5914V28.687H57.597H60.5002V22.9478V17.2085H65.3468H70.1934V22.9478V28.687H73.0966H76V14.5909V0.495027L73.1083 0.506781L70.2169 0.518769L70.2049 6.15481L70.1929 11.7911L65.3583 11.7793L60.5237 11.7676L60.5117 6.13154L60.4999 0.495731H57.5967H54.6938V14.5914ZM8.94929 5.88659C13.6139 6.4442 16.4725 9.08226 16.9748 13.2923C17.591 18.4568 15.0287 22.3318 10.3955 23.2421C9.41968 23.4337 9.12622 23.4574 7.38681 23.4844L5.71285 23.5108V14.6365V5.76223L7.03557 5.78903C7.76322 5.80384 8.62442 5.8478 8.94929 5.88659ZM14.6998 33.8879C14.0433 34.3216 14.2001 34.9009 15.1865 35.686C15.5739 35.9945 15.6322 36.2392 15.3519 36.3812C15.1342 36.4917 14.8683 36.3685 14.7039 36.0812C14.6583 36.0013 14.2219 36.2404 14.1989 36.3579C14.1546 36.5845 14.7499 36.9947 15.1251 36.9961C16.1652 36.9999 16.4788 36.0556 15.6801 35.3247C14.7918 34.512 14.8199 34.5482 14.9693 34.4018C15.0853 34.288 15.3519 34.3437 15.5089 34.5146L15.6353 34.6519L15.8602 34.4523L16.0848 34.2525L15.9913 34.1488C15.6614 33.7833 15.0462 33.6589 14.6998 33.8879ZM26.4971 33.8686C25.1353 34.407 25.0495 36.2178 26.3559 36.8466C26.9164 37.1167 27.7707 36.9992 28.2504 36.5862C28.4638 36.4026 28.464 36.4141 28.2389 36.1679L28.0541 35.9655L27.9229 36.0866C27.1905 36.7618 26.0344 36.332 26.0358 35.3851C26.0375 34.4808 27.0087 34.0473 27.8148 34.591C28.0788 34.7692 28.06 34.772 28.3533 34.5041L28.494 34.3755L28.3096 34.2163C27.845 33.8155 27.0279 33.6587 26.4971 33.8686ZM63.6273 33.8776C63.0674 34.1677 63.0732 34.7589 63.6412 35.2803C64.5127 36.0805 64.5534 36.1423 64.3377 36.3337C64.1629 36.4888 63.9291 36.447 63.7275 36.2241L63.5515 36.0295L63.3137 36.1731C63.0334 36.3419 63.0358 36.3325 63.219 36.5808C63.7107 37.2463 64.9037 37.0551 65.0205 36.2918C65.0869 35.8579 64.9385 35.589 64.3811 35.1331C63.8574 34.7048 63.7567 34.5788 63.8402 34.4549C63.9505 34.2908 64.1648 34.3038 64.3719 34.4874L64.5508 34.6456L64.7498 34.4723C64.9886 34.2643 64.99 34.253 64.7965 34.0729C64.4705 33.7697 63.9907 33.6895 63.6273 33.8776ZM0 35.3652V36.9056H0.304967H0.609933L0.597466 35.379L0.585238 33.8522L0.292499 33.8385L0 33.8249V35.3652ZM1.71688 33.8599C1.69961 33.8769 1.68571 34.5689 1.68571 35.3981V36.9056H1.989H2.29252L2.30523 35.9298L2.31794 34.9542L2.87273 35.7808C3.17769 36.2352 3.47283 36.6741 3.52821 36.7561C3.62388 36.8974 3.64378 36.9049 3.92165 36.9052L4.21439 36.9056V35.3652V33.8249L3.92165 33.8385L3.62891 33.8522L3.60565 34.8273L3.58216 35.8024L2.92979 34.8158L2.27766 33.8294H2.01273C1.8672 33.8294 1.73414 33.843 1.71688 33.8599ZM5.29136 35.3675V36.9056H5.59561H5.9001V36.2169V35.5281H6.36834H6.83658V35.2526V34.9773H6.36834H5.9001V34.7018V34.4262H6.36834H6.83658V34.1277V33.8294H6.06409H5.29136V35.3675ZM7.85505 33.8548C7.83587 33.8745 7.82005 34.5699 7.82005 35.4002V36.9099L8.13029 36.8962L8.44053 36.8826L8.44388 36.2512C8.4458 35.904 8.45899 35.6202 8.47313 35.6205C8.48728 35.6207 8.65319 35.9098 8.84164 36.2632L9.18424 36.9056H9.50887C9.68749 36.9056 9.8335 36.8936 9.8335 36.8793C9.8335 36.8647 9.6731 36.5608 9.47674 36.2037C9.28062 35.8468 9.14253 35.5473 9.1701 35.5384C9.81935 35.3261 9.8872 34.3026 9.27391 33.9709C9.06197 33.8564 7.94376 33.765 7.85505 33.8548ZM11.7067 33.8437C11.7067 33.8639 11.2495 35.0452 10.8503 36.0561C10.472 37.014 10.4727 36.9122 10.846 36.8962L11.1639 36.8826L11.2754 36.5956L11.3871 36.3088H12.0342H12.6815L12.7906 36.6071L12.8999 36.9056H13.2215C13.5089 36.9056 13.5394 36.8972 13.5099 36.8252C13.4917 36.781 13.2903 36.2697 13.062 35.6889C12.834 35.108 12.5772 34.4573 12.4914 34.2426L12.3353 33.8522L12.021 33.8388C11.8481 33.8313 11.7067 33.8334 11.7067 33.8437ZM16.8108 34.1277V34.4262H17.0918H17.3728V35.6658V36.9056H17.677H17.9815V35.6658V34.4262H18.2623H18.5433V34.1277V33.8294H17.677H16.8108V34.1277ZM19.433 35.3614V36.9056H19.736H20.0393L20.0523 36.2512L20.0652 35.5969L20.3462 36.1021C20.5006 36.3798 20.6557 36.6743 20.6907 36.7564L20.7543 36.9056H21.1022C21.4479 36.9056 21.4496 36.9049 21.3949 36.8022C21.3645 36.7455 21.2057 36.4571 21.042 36.1614C20.6912 35.5281 20.6989 35.58 20.9334 35.4383C21.4812 35.1068 21.4119 34.2384 20.8145 33.9479C20.674 33.8794 20.4989 33.8548 20.0333 33.8383L19.433 33.8172V35.3614ZM22.3446 35.0574C22.3587 36.2098 22.3659 36.297 22.4601 36.4693C22.7768 37.049 23.6172 37.1807 24.1262 36.7303C24.4357 36.4566 24.4436 36.4148 24.4436 35.0452V33.8249L24.1509 33.8385L23.8581 33.8522L23.8349 35.033C23.809 36.3381 23.8104 36.332 23.5004 36.3972C23.0034 36.5018 22.9451 36.3504 22.9451 34.9566V33.8294H22.6373H22.3295L22.3446 35.0574ZM29.1262 34.1277V34.4262H29.3837H29.6412V35.6658V36.9056H29.9692H30.297V35.6658V34.4262H30.5779H30.8589V34.1277V33.8294H29.9925H29.1262V34.1277ZM31.6621 35.0574C31.6782 36.2683 31.6798 36.2885 31.7954 36.4905C32.1733 37.1511 33.2347 37.1663 33.6444 36.5168L33.7856 36.293L33.8017 35.0612L33.818 33.8294H33.512H33.2061L33.1913 35.0041L33.1766 36.179L33.0452 36.2897C32.8717 36.4362 32.543 36.4444 32.4111 36.3055C32.2776 36.1649 32.2636 36.0304 32.2636 34.8797V33.8294H31.9548H31.6458L31.6621 35.0574ZM34.9539 33.8872C34.9417 33.9189 34.9369 34.6059 34.9439 35.4138L34.9561 36.8826L35.2488 36.8962L35.5416 36.9099V36.265C35.5416 35.9103 35.5574 35.6202 35.5766 35.6205C35.596 35.6207 35.766 35.9098 35.9544 36.2632L36.297 36.9056H36.6217C36.8003 36.9056 36.9463 36.8955 36.9463 36.8831C36.9463 36.8706 36.7859 36.5666 36.59 36.2074C36.3939 35.8482 36.256 35.5471 36.2834 35.5382C36.8765 35.3442 37.0014 34.3785 36.4804 34.0146C36.2378 33.8454 35.0105 33.7426 34.9539 33.8872ZM37.8828 35.3675V36.9056H38.7492H39.6155V36.6315V36.3574L39.0652 36.3445L38.515 36.3316L38.5016 35.9298L38.4879 35.5281H39.0518H39.6155V35.2526V34.9773H39.0535H38.4915V34.7032V34.4291L39.0417 34.4161L39.592 34.4032L39.6059 34.1162L39.62 33.8294H38.7514H37.8828V35.3675ZM47.342 35.3614V36.9056H47.6484H47.955L47.9479 36.2829C47.944 35.9404 47.9503 35.6508 47.9622 35.6393C47.974 35.6277 48.1394 35.9077 48.33 36.2615L48.6765 36.9047L48.9925 36.9052C49.1663 36.9054 49.3087 36.8929 49.3087 36.8777C49.3087 36.8624 49.149 36.5523 48.9539 36.1889C48.7057 35.7265 48.6204 35.5281 48.6695 35.5281C49.0385 35.5281 49.3308 34.722 49.1104 34.3115C48.9189 33.9544 48.7105 33.8705 47.939 33.8404L47.342 33.8172V35.3614ZM50.2763 33.8599C50.2591 33.8769 50.2452 34.5689 50.2452 35.3981V36.9056H51.1114H51.9776V36.6315V36.3574L51.4276 36.3445L50.8774 36.3316L50.8637 35.9298L50.8503 35.5281H51.414H51.9776V35.2526V34.9773H51.4159H50.8539V34.7018V34.4262H51.4159H51.9776V34.1277V33.8294H51.1426C50.6834 33.8294 50.2936 33.843 50.2763 33.8599ZM53.8722 33.9307C53.8539 33.9885 53.6022 34.635 53.3128 35.3675C53.0234 36.0998 52.7715 36.7465 52.753 36.8046C52.7199 36.9082 52.7245 36.9096 53.0371 36.8962L53.3548 36.8826L53.4665 36.5956L53.578 36.3088H54.2253H54.8727L54.9818 36.6071L55.0908 36.9056H55.4123C55.6507 36.9056 55.7279 36.8906 55.7111 36.8483C55.6984 36.8165 55.5787 36.5119 55.4452 36.171C55.0659 35.2034 54.9273 34.8536 54.7187 34.3343L54.525 33.8522L54.215 33.8388C53.9271 33.8263 53.9029 33.8327 53.8722 33.9307ZM56.6135 35.3675V36.9056H57.3651H58.1168L58.1026 36.6416L58.0887 36.3776L57.6555 36.3642L57.2223 36.3511V35.0903V33.8294H56.918H56.6135V35.3675ZM60.6407 35.3675V36.9056H61.4836H62.3266V36.6301V36.3546H61.7879H61.2494V35.9413V35.5281H61.7879H62.3266V35.2526V34.9773H61.7879H61.2494V34.7018V34.4262H61.7879H62.3266V34.1277V33.8294H61.4836H60.6407V35.3675ZM65.7448 34.1268V34.4262H66.0025H66.26V35.6658V36.9056H66.5885H66.9169L66.909 35.6773L66.9009 34.4491L67.1915 34.4354L67.4818 34.4218L67.4679 34.1371L67.454 33.8522L66.5995 33.8397L65.7448 33.8273V34.1268ZM69.2226 33.9352C69.1946 33.9953 68.9254 34.6728 68.624 35.4406C68.3229 36.2086 68.0668 36.8523 68.055 36.8711C68.0435 36.8901 68.1788 36.9056 68.3562 36.9056H68.6784L68.7985 36.6186L68.9186 36.3316H69.5657H70.2128L70.3277 36.6186L70.4423 36.9056H70.7566H71.0711L70.6521 35.8381C70.4217 35.2509 70.1526 34.564 70.0541 34.3115L69.8753 33.8522L69.5744 33.8388C69.2965 33.8266 69.2699 33.8338 69.2226 33.9352ZM71.6763 33.8599C71.659 33.8769 71.6451 34.0111 71.6451 34.1583V34.4262H71.9261H72.2069V35.6658V36.9056H72.5113H72.8158V35.6658V34.4262H73.0966H73.3776V34.1277V33.8294H72.5425C72.0831 33.8294 71.6935 33.843 71.6763 33.8599ZM74.2206 35.3675V36.9056H75.0868H75.953V36.6315V36.3574L75.403 36.3445L74.8528 36.3316L74.8391 35.9298L74.8257 35.5281H75.3894H75.953V35.2526V34.9773H75.3913H74.8293V34.7018V34.4262H75.3913H75.953V34.1277V33.8294H75.0868H74.2206V35.3675ZM42.774 34.0287C42.3383 34.2236 42.2221 34.7523 42.5237 35.1675C42.6404 35.3285 42.6404 35.3285 42.435 35.5241C41.562 36.3546 42.4455 37.3843 43.5604 36.8353L43.797 36.7187L43.8984 36.8121C43.9826 36.8897 44.0622 36.9056 44.3662 36.9056H44.7323L44.5153 36.6778C44.2676 36.4183 44.2501 36.3414 44.4151 36.2357C44.5671 36.1381 44.5611 36.0925 44.3683 35.8786L44.2084 35.7011L44.0264 35.8424L43.8445 35.9837L43.6265 35.7359C43.3786 35.4545 43.3731 35.4359 43.5031 35.3207C44.2305 34.6752 43.6455 33.639 42.774 34.0287ZM9.00778 34.5215C9.28278 34.7335 9.10057 35.0231 8.69227 35.0231H8.44053L8.45132 34.7361C8.45707 34.5783 8.46498 34.4439 8.46882 34.4378C8.5031 34.3802 8.90565 34.4425 9.00778 34.5215ZM20.5934 34.4977C20.6644 34.5464 20.6972 34.6157 20.6967 34.7159C20.6955 34.9467 20.6397 34.9916 20.3266 35.0139L20.0417 35.0342V34.7302V34.4262H20.2654C20.3923 34.4262 20.5344 34.4573 20.5934 34.4977ZM36.129 34.5388C36.3754 34.7805 36.21 35.0231 35.7991 35.0231H35.5416V34.7246V34.4262H35.7777C35.9662 34.4262 36.0374 34.449 36.129 34.5388ZM48.5125 34.5179C48.7474 34.7483 48.5777 35.0231 48.201 35.0231H47.9507V34.7246V34.4262H48.1847C48.3564 34.4262 48.4439 34.4507 48.5125 34.5179ZM43.2662 34.5847C43.3357 34.6672 43.2966 34.7998 43.1688 34.9131C43.0744 34.997 43.0708 34.9968 43.0061 34.9103C42.8207 34.6618 43.0686 34.3513 43.2662 34.5847ZM12.2435 35.2084C12.4533 35.7516 12.4691 35.7192 12.0023 35.7023L11.6309 35.6889L11.8158 35.2182C12.0414 34.6442 12.0256 34.6444 12.2435 35.2084ZM54.4289 35.1952C54.5236 35.4416 54.6008 35.6585 54.6005 35.6773C54.6003 35.6964 54.4315 35.7119 54.2253 35.7119C53.7883 35.7119 53.8014 35.7455 54.0208 35.1832C54.2294 34.6489 54.2184 34.6486 54.4289 35.1952ZM69.7928 35.245C69.8844 35.4808 69.9592 35.6823 69.9592 35.6929C69.9592 35.7032 69.7801 35.7119 69.5612 35.7119C69.3423 35.7119 69.1632 35.7063 69.1632 35.6992C69.1632 35.6889 69.2833 35.3811 69.4972 34.8435C69.5581 34.6907 69.5986 34.746 69.7928 35.245ZM43.1923 36.057L43.4153 36.3104L43.2496 36.3784C42.7721 36.5742 42.5016 36.3005 42.802 35.9258C42.9322 35.7636 42.9348 35.7646 43.1923 36.057Z" fill="#CCCCCC"/>
</svg>
