<svg width="156" height="47" viewBox="0 0 156 47" fill="none" xmlns="http://www.w3.org/2000/svg">
<path fill-rule="evenodd" clip-rule="evenodd" d="M9.12975 2.99692C8.41531 4.245 7.82021 5.30824 7.808 5.35959C7.79579 5.41054 8.74535 7.12231 9.91862 9.16308L12.0521 12.873L7.72962 12.9113L3.40716 12.9496L2.06178 15.2878L0.716797 17.6256L7.7631 17.6453L14.8094 17.6647L18.302 23.7392C20.2228 27.0802 21.8171 29.8362 21.8447 29.8639C21.8722 29.8915 22.669 28.5645 23.615 26.9147C24.5606 25.2649 26.7536 21.4504 28.4877 18.438C30.2218 15.4252 31.6408 12.9492 31.6408 12.935C31.6408 12.9212 30.4116 12.9184 28.9091 12.9295L26.1774 12.9496L24.0242 16.6903L21.8711 20.4314L21.1952 19.2583C20.8234 18.6134 18.2772 14.1886 15.5372 9.42573C12.7968 4.66248 10.5267 0.757079 10.4921 0.746415C10.4578 0.736146 9.84458 1.74883 9.12975 2.99692ZM46.2344 19.8295C44.199 23.9296 42.522 27.3101 42.5078 27.3417C42.4936 27.3733 43.2935 27.3993 44.2852 27.3993H46.0883L46.6408 26.2875L47.1934 25.1761H50.0043H52.8148L53.3673 26.2875L53.9199 27.3993H55.6985C56.6764 27.3993 57.4767 27.3815 57.4767 27.3606C57.4767 27.3393 56.8749 26.1145 56.1388 24.6393L54.8009 21.9567H51.8203C50.1807 21.9567 48.8393 21.9394 48.8393 21.918C48.8393 21.8967 49.5057 20.5428 50.3202 18.9092L51.8014 15.9395L50.9137 14.157C50.4253 13.1767 50.0051 12.3749 49.9803 12.3749C49.9554 12.3749 48.2698 15.7293 46.2344 19.8295ZM129.252 19.9077V27.3993H130.896H132.539V23.8447V20.2904L132.866 20.6063C133.046 20.7797 133.941 21.6605 134.855 22.5634L136.515 24.2049L138.483 22.2399L140.45 20.275L140.47 23.8371L140.49 27.3993H142.132H143.775V19.9073V12.4148L142.571 13.6048C141.909 14.2589 140.296 15.8542 138.986 17.1492C137.676 18.4443 136.564 19.5036 136.515 19.5036C136.466 19.5036 135.112 18.2026 133.508 16.6125C131.903 15.0224 130.289 13.4275 129.921 13.0689L129.252 12.4164V19.9077ZM56.4067 12.9492C56.4067 12.9697 58.0919 16.368 60.1517 20.5001L63.8968 28.0135L67.6427 20.5009C69.7029 16.3692 71.3886 12.9709 71.3886 12.95C71.3886 12.9287 70.5887 12.9121 69.6115 12.9125L67.8341 12.9137L65.885 16.8143C64.8129 18.9597 63.9185 20.7185 63.8972 20.7225C63.8755 20.7268 62.9815 18.9708 61.9103 16.821L59.9623 12.9113H58.1845C57.2066 12.9113 56.4067 12.9283 56.4067 12.9492ZM73.9876 20.1549V27.3993H78.9957H84.0038L83.9834 25.8084L83.9625 24.2179L80.5801 24.1981L77.1978 24.178V22.9536V21.7288L79.5483 21.7087L81.8987 21.6885L81.9196 20.1747L81.9401 18.6604H79.5691H77.1978V17.4348V16.2092L80.5801 16.1891L83.9625 16.1693V14.5595V12.9496L78.9748 12.9302L73.9876 12.9105V20.1549ZM89.1223 20.1553V27.3993H93.8232H98.5242V25.7895V24.1796H95.4281H92.3325V18.5454V12.9113H90.7272H89.1223V20.1553ZM101.276 20.1553V27.3993H105.977H110.677V25.7895V24.1796H107.582H104.486V18.5454V12.9113H102.881H101.276V20.1553ZM112.685 17.72C112.717 23.0871 112.703 22.9378 113.267 24.1342C115.41 28.6849 121.88 28.8014 124.203 24.3309C124.866 23.0551 124.847 23.238 124.876 17.7583L124.902 12.9085L123.275 12.9291L121.646 12.9496L121.608 17.6256L121.57 22.3015L121.359 22.7316C120.483 24.5212 118.142 24.9276 116.751 23.5318C115.895 22.6736 115.877 22.5436 115.879 17.2041L115.881 12.9496L114.269 12.9291L112.657 12.9085L112.685 17.72ZM129.749 33.9071C127.655 34.8815 128.344 38.3998 130.628 38.3963C132.532 38.3931 133.501 35.9372 132.205 34.4C131.702 33.8029 130.494 33.5604 129.749 33.9071ZM89.1223 36.0613V38.2841H89.4279H89.7335V36.0613V33.838H89.4279H89.1223V36.0613ZM91.8741 36.0613V38.2841H92.1781H92.4826L92.5031 36.5482L92.5235 34.8124L93.6342 36.5293L94.7448 38.2458L95.1056 38.2691L95.4663 38.2924V36.0652V33.838H95.1623H94.8579L94.8374 35.6086L94.8169 37.3793L93.6783 35.6086L92.5397 33.838H92.2069H91.8741V36.0613ZM96.8424 34.1066V34.3748H97.6069H98.371V36.3294V38.2841H98.677H98.9826V36.3294V34.3748H99.7089H100.435V34.1066V33.838H98.6388H96.8424V34.1066ZM101.887 36.0613V38.2841H103.416H104.945V38.0542V37.8244H103.722H102.499V37.0578V36.2911H103.645H104.792V36.0229V35.7544H103.645H102.499V35.0648V34.3748H103.722H104.945V34.1066V33.838H103.416H101.887V36.0613ZM106.626 36.0613V38.2841H106.932H107.238V37.3642V36.4444H108.084C109.263 36.4444 109.319 36.4949 109.436 37.6735L109.493 38.2458L109.869 38.2699C110.194 38.2904 110.233 38.2782 110.152 38.1802C110.1 38.1182 110.025 37.747 109.985 37.3559C109.909 36.6233 109.787 36.3247 109.524 36.2267C109.384 36.175 109.39 36.1576 109.612 35.9933C110.287 35.4929 110.198 34.3945 109.452 34.0106C109.145 33.8526 109.012 33.838 107.871 33.838H106.626V36.0613ZM111.824 36.0613V38.2841H112.133H112.441L112.419 36.5593C112.407 35.6106 112.415 34.8357 112.436 34.8369C112.457 34.8377 112.973 35.6138 113.582 36.5613L114.691 38.2837H115.055L115.419 38.2841L115.399 36.0802L115.378 33.8763L115.092 33.8526L114.805 33.8289V35.6011C114.805 36.5759 114.779 37.3571 114.748 37.3374C114.716 37.3176 114.192 36.523 113.582 35.5715L112.474 33.8416L112.149 33.84L111.824 33.838V36.0613ZM118.404 34.0106C118.368 34.1054 118.003 35.0454 117.593 36.0996C116.656 38.512 116.71 38.2841 117.072 38.2841H117.369L117.604 37.6518L117.839 37.0194L118.787 36.9981L119.736 36.9768L119.962 37.6304L120.188 38.2841H120.524C120.812 38.2841 120.853 38.2652 120.81 38.1498C120.783 38.0764 120.395 37.0759 119.948 35.927L119.137 33.838H118.803C118.529 33.838 118.459 33.8684 118.404 34.0106ZM121.226 34.1066V34.3748H121.952H122.678V36.3294V38.2841H122.984H123.29V36.3294V34.3748H124.016H124.742V34.1066V33.838H122.984H121.226V34.1066ZM126.195 36.0613V38.2841H126.5H126.806V36.0613V33.838H126.5H126.195V36.0613ZM134.45 36.0569V38.2841H134.717H134.985L134.987 36.502C134.989 35.0802 135.009 34.746 135.083 34.8499C135.134 34.9214 135.653 35.7236 136.236 36.632L137.296 38.2841H137.631H137.966V36.0613V33.838H137.698H137.431V35.6011C137.431 36.5708 137.405 37.3623 137.374 37.3599C137.342 37.3579 136.816 36.5731 136.205 35.6161L135.095 33.8763L134.772 33.853L134.45 33.8293V36.0569ZM140.982 34.1011C140.922 34.246 140.542 35.2204 140.138 36.2666C139.733 37.3129 139.385 38.1972 139.364 38.2316C139.344 38.2655 139.476 38.2829 139.659 38.2699L139.991 38.2458L140.22 37.6119L140.45 36.9776L141.397 36.9985L142.344 37.0194L142.573 37.6518L142.802 38.2841H143.135H143.469L143.33 37.92C143.253 37.7197 142.866 36.7197 142.47 35.6975L141.75 33.8388L141.421 33.8384C141.119 33.838 141.083 33.8593 140.982 34.1011ZM144.845 36.0613V38.2841H146.336H147.826V38.0542V37.8244H146.642H145.457V35.831V33.838H145.151H144.845V36.0613ZM149.024 33.8894C148.996 33.9174 148.973 34.9178 148.973 36.1122V38.2841H150.463H151.954V38.0562V37.8283L150.788 37.807L149.623 37.7861L149.602 35.812L149.582 33.838H149.328C149.189 33.838 149.052 33.8613 149.024 33.8894ZM152.049 34.0106C152.112 34.1054 152.494 34.6892 152.899 35.3077L153.636 36.4325V37.3583V38.2841H153.941H154.247V37.4057V36.5269L155.088 35.218C156.066 33.695 156.013 33.838 155.604 33.8384H155.279L154.674 34.8385C154.341 35.3882 154.043 35.8539 154.012 35.8733C153.981 35.8922 153.669 35.4427 153.318 34.874L152.68 33.8396L152.308 33.8388C151.94 33.838 151.938 33.84 152.049 34.0106ZM131.048 34.3064C131.762 34.5031 132.222 35.3436 132.143 36.3057C131.957 38.546 129.172 38.39 129.145 36.1379C129.128 34.7824 129.94 34.0011 131.048 34.3064ZM109.107 34.4226C109.281 34.4893 109.455 34.857 109.455 35.1588C109.455 35.7267 109.091 35.9068 107.945 35.9072L107.238 35.908V35.1414V34.3748H108.111C108.591 34.3748 109.039 34.3961 109.107 34.4226ZM119.262 35.6971L119.531 36.4444H118.811C118.416 36.4444 118.092 36.4148 118.092 36.3784C118.092 36.3259 118.556 35.0245 118.751 34.528C118.799 34.4056 118.787 34.3763 119.262 35.6971ZM141.482 34.5387C141.482 34.5869 141.624 35.0197 141.796 35.5012C142.167 36.534 142.205 36.4558 141.354 36.4282L140.672 36.4061L141.02 35.4301C141.328 34.5647 141.482 34.2677 141.482 34.5387ZM89.0459 43.0612C89.0459 45.5601 89.3602 46.0633 90.9186 46.0598C92.3569 46.0566 92.6381 45.5787 92.6381 43.1402V41.5035H92.3325H92.0269L92.0265 43.1327C92.0265 45.2457 91.8756 45.566 90.88 45.566C89.8588 45.566 89.7012 45.2552 89.6709 43.1848L89.6465 41.5035H89.346H89.0459V43.0612ZM94.6255 43.7267V45.9496H94.9315H95.2371V45.1995V44.4491L95.6089 44.0818L95.9811 43.7145L96.7719 44.8318L97.5632 45.9496H97.9314C98.3808 45.9496 98.43 46.0582 97.2816 44.504L96.4116 43.3266L97.2446 42.511C97.7026 42.0623 98.1091 41.684 98.1477 41.6697C98.3438 41.5986 98.1756 41.5035 97.8542 41.5035H97.4899L96.4218 42.577C95.8346 43.167 95.3277 43.6501 95.2954 43.6501C95.2635 43.6501 95.2371 43.167 95.2371 42.577V41.5035H94.9315H94.6255V43.7267ZM99.7471 43.7267V45.9496H100.053H100.358V45.0297V44.1098H101.22C102.389 44.1098 102.572 44.2887 102.576 45.4361C102.578 45.8623 102.63 45.9255 103.015 45.9614C103.374 45.9954 103.37 45.9974 103.265 45.7995C103.224 45.7229 103.156 45.3583 103.114 44.9898C103.035 44.2919 102.904 43.9886 102.639 43.8902C102.488 43.8341 102.489 43.827 102.685 43.6987C103.179 43.374 103.348 42.5746 103.032 42.0548C102.756 41.6006 102.409 41.5074 100.989 41.5054L99.7471 41.5035V43.7267ZM106.054 41.8293C105.709 42.6903 104.486 45.8706 104.486 45.9077C104.486 45.9306 104.619 45.9496 104.782 45.9496H105.078L105.307 45.3172L105.535 44.6849L106.485 44.6636L107.434 44.6422L107.66 45.2959L107.886 45.9496H108.212C108.613 45.9496 108.676 46.2304 107.726 43.7844C107.279 42.6354 106.897 41.652 106.876 41.5994C106.772 41.3285 106.189 41.4912 106.054 41.8293ZM109.99 43.7267V45.9496H110.295H110.601V43.7267V41.5035H110.295H109.99V43.7267ZM112.742 43.7267V45.9496H113.046H113.35L113.371 44.2255L113.391 42.5011L114.499 44.2224L115.608 45.9432L115.971 45.9464L116.334 45.9496V43.7267V41.5035H116.03H115.725L115.705 43.282L115.684 45.0601L114.538 43.282L113.391 41.5039H113.066L112.742 41.5035V43.7267ZM118.474 43.7267V45.9496H118.78H119.086V43.7267V41.5035H118.78H118.474V43.7267ZM122.149 41.6761C121.044 44.5348 120.585 45.7067 120.527 45.8153C120.465 45.9334 120.496 45.9496 120.786 45.9496H121.115L121.35 45.3172L121.584 44.6849H122.532H123.479L123.709 45.3168L123.939 45.9492H124.273C124.558 45.9496 124.598 45.9306 124.555 45.8153C124.527 45.7418 124.139 44.7414 123.691 43.5924L122.878 41.5035H122.547C122.274 41.5035 122.204 41.5343 122.149 41.6761ZM125.965 43.7267V45.9496H126.269H126.574L126.594 44.2236L126.615 42.4976L127.725 44.2042L128.835 45.9112L129.196 45.9346L129.558 45.9579V43.7307V41.5035H129.254H128.949L128.929 43.2764L128.908 45.049L127.764 43.2764L126.621 41.5035H126.293H125.965V43.7267ZM102.387 42.2282C102.529 42.37 102.575 42.4984 102.575 42.748C102.575 43.3973 102.255 43.5723 101.066 43.5731L100.358 43.5735V42.8068V42.0402H101.279C102.155 42.0402 102.209 42.0493 102.387 42.2282ZM106.934 43.2859L107.229 44.1098H106.507C106.11 44.1098 105.786 44.0956 105.786 44.0778C105.786 44.0462 106.33 42.5177 106.441 42.2389C106.509 42.069 106.466 41.9794 106.934 43.2859ZM122.574 44.0936C122.2 44.1059 121.877 44.0988 121.856 44.0778C121.825 44.0462 122.114 43.1896 122.467 42.2701C122.532 42.0999 122.58 42.1899 122.897 43.075L123.254 44.0715L122.574 44.0936Z" fill="#CCCCCC"/>
</svg>
