<svg width="158" height="40" viewBox="0 0 158 40" fill="none" xmlns="http://www.w3.org/2000/svg">
<path d="M-16.0879 21.5239C-14.6532 21.5239 -13.4887 21.1404 -12.8394 20.4868C-12.6222 20.2747 -12.4501 20.0203 -12.3338 19.739C-12.2175 19.4578 -12.1593 19.1556 -12.1629 18.851C-12.1528 18.6171 -12.1936 18.3838 -12.2826 18.1674C-12.3716 17.9511 -12.5066 17.757 -12.678 17.5987C-13.1096 17.1624 -13.8678 16.9178 -14.9779 16.9178H-17.8493L-19.0935 21.5219L-16.0879 21.5239ZM-17.8493 25.6663H-20.1763L-21.7199 31.4425H-27L-21.8832 12.3645H-14.7349C-11.5933 12.3645 -9.50921 13.0474 -8.23585 14.3271C-7.23465 15.3367 -6.77391 16.726 -6.77391 18.2522C-6.77391 20.0524 -7.34352 21.6589 -8.56245 22.8584C-9.37313 23.6763 -10.5648 24.4668 -12.4875 25.0107L-9.53643 31.4425H-15.3298L-17.8493 25.6663ZM-6.90999 25.1203C-6.90999 24.1654 -6.77585 23.1029 -6.47841 22.0678L-3.90641 12.3664H1.4009L-1.27997 22.4494C-1.4518 23.0342 -1.54338 23.6398 -1.55214 24.2496C-1.55214 25.9637 -0.49456 27.0281 1.40285 27.0281C1.8765 27.0386 2.34755 26.9548 2.78893 26.7816C3.23032 26.6083 3.63334 26.349 3.97485 26.0185C4.65139 25.3375 5.16462 24.3846 5.57093 22.8584L8.36067 12.3664H13.668L10.6624 23.6489C9.98591 26.1554 9.03721 28.0084 7.70941 29.3429C6.03168 31.0335 3.64825 31.7966 0.724369 31.7966C-4.1222 31.7966 -6.90999 29.3175 -6.90999 25.1203ZM15.4779 12.3664H20.3536L25.2818 22.966L28.1241 12.3664H33.3225L28.2329 31.4444H23.6294L18.5126 20.432L15.5887 31.4425H10.3631L15.4779 12.3664Z" fill="#CCCCCC"/>
<path d="M60.9225 12.3664H63.061V23.7585L73.9477 12.3664H76.7083L68.586 20.704L77.0602 31.4425H74.3774L67.0949 22.2048L63.061 26.3178V31.4444H60.9225V12.3664ZM86.9963 22.0952C89.8386 22.0952 91.8682 20.6218 91.8682 18.1701V18.1153C91.8682 15.7731 90.0816 14.3545 87.0216 14.3545H81.1738V22.0952H86.9963ZM79.0354 12.3664H87.1849C89.5139 12.3664 91.3821 13.0748 92.5739 14.2742C93.4934 15.1998 94.0358 16.5362 94.0358 18.0331V18.0879C94.0358 21.2499 91.8682 23.1029 88.8918 23.6489L94.7123 31.4425H92.0878L86.59 24.0304H81.1738V31.4425H79.0354V12.3664ZM109.549 24.4394L105.243 14.736L100.912 24.4394H109.549ZM104.269 12.2295H106.272L114.909 31.4444H112.609L110.387 26.4H100.072L97.8248 31.4425H95.6319L104.269 12.2295ZM117.479 12.3664H119.618V31.4444H117.479V12.3664ZM123.815 12.3664H125.819L137.76 27.6543V12.3664H139.844V31.4444H138.139L125.899 15.8005V31.4425H123.815V12.3664ZM143.851 12.3664H157.55V14.3271H145.989V20.8429H156.332V22.8036H145.989V29.4799H157.687V31.4444H143.851V12.3664ZM38.2332 23.0893C37.8911 23.1812 37.4945 23.8602 37.4731 23.8602C37.409 23.8289 37.3292 23.8211 37.2593 23.8211C37.1543 23.8211 37.0649 23.8406 37.0649 23.8406C37.2943 23.5432 37.6111 22.604 37.6111 22.604C37.6111 22.604 37.7045 22.692 37.7744 22.692C37.7853 22.6924 37.7961 22.6897 37.8055 22.6842C37.8775 22.649 37.9552 22.4846 37.9552 22.4846L38.1866 22.289C38.241 22.3398 38.1613 22.7331 38.206 22.7488C38.2216 22.7543 38.2381 22.757 38.2546 22.7566C38.2935 22.7566 38.3343 22.7488 38.3343 22.7488C38.3343 22.7488 38.2546 23.0853 38.2332 23.0893ZM46.0912 17.0587C46.0017 16.8141 45.4613 15.0217 45.3271 14.7458C45.195 14.4719 45.0161 14.2488 44.9383 14.0981C44.8606 13.9475 44.6545 13.0376 44.6662 12.9828C45.0861 11.5427 44.1179 11.0594 43.873 10.9341C43.63 10.8089 43.2003 10.7306 43.1187 10.7052C43.0351 10.6798 42.4752 10.3334 42.4052 10.1828C42.3333 10.0321 42.3935 9.76793 42.3935 9.76793C42.7862 9.38246 42.866 8.80522 42.8679 8.79935C42.8758 8.80302 42.8844 8.80502 42.8932 8.80522C42.9943 8.80522 43.0448 8.5215 43.0973 8.36105C43.1537 8.18886 43.212 7.96971 43.1692 7.93057C43.1611 7.92361 43.1507 7.9201 43.1401 7.92079C43.0954 7.92079 43.039 7.97166 43.039 7.97166C43.039 7.97166 43.0779 7.65271 43.1284 7.39639C43.177 7.14201 43.1615 6.10104 41.9484 5.8995C41.8512 5.88384 41.7578 5.87602 41.6703 5.87602C40.6789 5.87602 40.3814 6.86025 40.3542 7.12049C40.327 7.40422 40.2687 7.62924 40.2765 7.63902C40.2667 7.63427 40.2561 7.6316 40.2453 7.63119C40.1598 7.63119 40.1034 7.79556 40.1132 7.94427C40.1229 8.10863 40.1248 8.37866 40.1715 8.47454C40.1909 8.51759 40.2104 8.52933 40.2298 8.52933C40.2434 8.52933 40.2531 8.52541 40.2609 8.5215L40.2803 8.51367C40.2823 8.89132 40.4475 9.2494 40.4475 9.2494C40.4475 9.2494 40.432 9.34723 40.4203 9.36093C40.1676 9.63683 39.7185 9.74444 39.7166 9.75619C39.6582 9.11047 38.6143 8.51172 38.5404 8.46476C38.4646 8.4178 38.4646 7.96384 38.1652 7.43161C37.8639 6.9033 37.6325 6.54717 37.5975 6.48651C37.5625 6.42781 37.6617 6.28693 37.7783 5.9582C37.895 5.62752 37.9922 5.01311 38.0388 4.54741C38.0816 4.08366 38.2041 3.60427 38.2332 3.46534C38.2663 3.32837 38.3499 3.21489 38.4082 3.08966C38.4665 2.96443 38.451 2.81571 38.4762 2.78636C38.5983 2.55673 38.6687 2.30288 38.6823 2.04281C38.6862 1.97237 38.8048 1.56537 38.8029 1.50863C38.8029 1.44993 38.8864 1.08206 38.8923 0.999879C38.8981 0.917697 38.9545 0.647675 38.9739 0.583104C38.9934 0.516575 39.0031 0.342426 39.0128 0.172192C39.0186 0.0665293 38.9506 0 38.8787 0C38.8242 0 38.7679 0.0391331 38.7465 0.127185C38.7154 0.244588 38.6493 0.485265 38.6259 0.543967C38.6007 0.602668 38.5423 0.915741 38.5132 0.988139C38.484 1.05858 38.4238 1.26991 38.4238 1.26991C38.4238 1.26991 38.3907 1.15251 38.2624 1.13294C38.2546 1.13227 38.2468 1.13227 38.2391 1.13294C38.1224 1.13294 38.0388 1.27187 38.0388 1.27187C38.0388 1.27187 37.9533 1.12511 37.8444 1.10163C37.8361 1.10015 37.8276 1.0995 37.8192 1.09967C37.7142 1.09967 37.5975 1.2386 37.5975 1.2386C37.5975 1.2386 37.5975 1.14077 37.4167 1.13294H37.4148C37.3409 1.13294 37.1621 1.34035 37.1523 1.3971C37.1368 1.47928 37.0882 1.64756 37.0687 1.74343C37.0493 1.83931 37.164 1.86866 37.164 1.86866C37.0299 2.22087 37.2107 2.61222 37.1971 2.65918C37.1737 2.82158 37.1776 3.16205 37.1834 3.22858C37.1893 3.29707 36.9093 4.10911 36.643 4.67264C36.3728 5.244 36.2192 6.12452 36.1803 6.34563C36.1414 6.5687 36.2134 6.80742 36.2794 6.93656C36.3341 7.02454 36.3717 7.12214 36.3903 7.2242C36.3825 7.4003 36.4894 8.10472 36.6683 8.56063C36.8491 9.02046 37.3487 9.78358 37.3487 9.78358C37.2167 10.3546 37.1748 10.9429 37.2243 11.527C37.2631 11.8597 37.3312 12.7519 37.304 12.9906C37.2768 13.2294 37.3506 13.8164 37.302 14.106C37.2534 14.3975 37.2029 15.9316 37.1815 16.0509C37.1582 16.1683 36.9191 16.4814 36.7927 16.7867C36.7305 16.9393 36.5924 17.3737 36.4661 17.7846C36.4466 17.7872 36.4284 17.7957 36.4138 17.809C36.3992 17.8223 36.389 17.8397 36.3844 17.8589C36.3514 17.9842 36.1959 18.6377 36.1959 18.6377C36.1959 18.6377 35.7643 19.123 35.634 19.3519C35.5057 19.5809 34.5687 20.526 34.802 20.9643C34.8105 20.9793 34.8209 20.9931 34.8331 21.0054C34.661 21.395 34.5168 21.7965 34.4015 22.2068C33.8532 24.1694 33.9874 25.3434 33.8552 25.768C33.723 26.1926 33.7288 26.4333 33.8124 26.6896C33.896 26.9479 34.3062 27.2668 34.5531 27.2903H34.5726C34.8253 27.2903 35.2919 26.9088 35.4902 26.6603C35.6943 26.4059 36.1142 26.2083 36.5186 25.8247C36.9191 25.4432 37.0104 25.3923 37.1523 25.3414C37.2845 25.2945 37.7181 25.2045 37.7725 25.2045H37.7783C37.652 25.6134 37.3351 28.0026 37.269 28.2374C37.2009 28.4781 36.9813 28.6835 36.6547 29.5836C36.3242 30.4974 35.9859 33.5714 35.8187 34.3697C35.7565 34.6632 35.6671 34.9254 35.5699 35.1485C35.4882 35.2229 35.3016 35.4068 35.2724 35.5359L35.2394 35.6749C35.2394 35.6749 35.0994 35.7962 35.0566 36.0897C35.0566 36.0897 34.9303 36.7667 34.8428 37.0035C34.8428 37.0035 34.5901 37.4144 34.4073 37.6277C34.4073 37.6277 33.8513 38.0288 33.9135 38.4025L33.8863 38.5982C33.8863 38.5982 33.966 38.7586 34.139 38.7978C34.139 38.7978 35.2666 39.105 35.566 39.105H35.6049C35.6049 39.105 35.7157 39.1343 35.8595 39.1343C36.0539 39.1343 36.3067 39.0776 36.4311 38.8134L36.4739 38.3047C36.4739 38.3047 36.505 38.0816 36.608 38.017C36.608 38.017 36.8354 37.8507 36.8782 37.4007C36.8782 37.4007 36.9249 36.6669 36.7616 36.4556V36.2364L36.7907 36.1582C36.8685 35.9527 36.8491 35.7159 36.8743 35.6044C36.9404 35.307 37.2554 34.6143 38.0466 33.0489C38.8184 31.5227 39.0381 30.5248 39.0575 30.108C39.0789 29.6951 39.1197 29.0533 39.1528 28.7657C39.1858 28.4781 39.841 27.1416 40.0859 26.6622C40.3231 26.1926 40.6692 25.5195 41.3496 23.645C41.3865 23.6371 41.4351 23.6 41.4934 23.4962C41.6295 23.2614 41.8239 22.2029 41.8239 22.2029C41.8239 22.2029 41.96 21.5708 42.0086 20.9564C42.0553 20.3459 42.1389 19.3245 42.0281 19.2737C42.0417 19.2737 41.96 18.7708 41.8959 18.7571C41.8863 18.7547 41.8765 18.7534 41.8667 18.7532H41.8609C41.8356 18.4166 41.8298 18.2796 41.8686 18.0801C41.9289 17.7611 41.8823 17.3404 41.892 17.2191C41.8997 17.0958 42.1544 16.6047 42.3022 16.182C42.4499 15.7614 42.9359 14.6499 42.9359 14.6499C43.1887 14.5267 43.3928 14.0805 43.3928 14.0805C43.422 14.4073 43.8788 14.9317 43.8846 14.9826C43.8924 15.0354 44.0868 15.7124 44.3862 16.2016C44.6447 16.6022 44.9203 16.9914 45.2124 17.3678C45.2124 17.3678 45.2124 17.4206 45.1891 17.4422C45.1658 17.4617 44.985 17.6907 44.9442 17.7357C44.8695 17.8303 44.8122 17.9377 44.775 18.0527C44.7692 18.1212 44.6934 18.2914 44.6662 18.3853C44.6389 18.4831 44.672 18.5262 44.7673 18.5477C44.775 18.5488 44.7828 18.5495 44.7906 18.5497C44.9928 18.5497 45.0997 18.1681 45.1094 18.1564C45.1327 18.1427 45.1561 18.1368 45.1794 18.1368C45.3466 18.1368 45.5157 18.4264 45.5371 18.4655C45.5624 18.5105 45.506 18.7238 45.473 18.763C45.3561 18.8559 45.2297 18.9359 45.0958 19.0017H45.0861C44.9637 19.0104 44.8433 19.0368 44.7284 19.0799C44.6117 19.1328 44.6312 19.2717 44.6312 19.2717C44.6312 19.2717 44.5826 19.395 44.6156 19.4028C44.6906 19.4202 44.7641 19.4437 44.8353 19.4732C44.7925 19.5202 45.3544 19.6415 45.4963 19.6572C45.5352 19.6611 45.5838 19.663 45.6382 19.663C45.7743 19.663 45.9298 19.6454 45.9745 19.5946C46.0367 19.5202 46.2389 19.2423 46.2234 19.0976C46.2078 18.9528 46.2098 18.7199 46.1942 18.3599C46.1786 18.0018 46.1825 17.3072 46.0912 17.0587ZM55.0747 12.3664V23.4571C55.0747 27.6269 52.8546 29.7519 49.363 29.7519C46.1611 29.7519 44.0771 27.9184 43.6533 24.6233L43.6066 24.7075C43.5619 24.7838 43.5172 24.8562 43.4706 24.9247C42.8737 26.535 42.5238 27.2355 42.2847 27.7071C43.5328 30.3545 46.062 31.7419 49.3086 31.7419C54.0463 31.7419 57.2151 28.8537 57.2151 23.2947V12.3664H55.0747Z" fill="#CCCCCC"/>
<path d="M45.9026 35.3872H46.548L47.3568 37.9212L48.1927 35.3774H48.6982L49.5302 37.9212L50.3409 35.3872H50.9669L49.7868 38.8291H49.2678L48.4338 36.3734L47.5998 38.8291H47.0865L45.9026 35.3872ZM54.2913 35.3872H56.8088V35.9234H54.8881V36.8117H56.5911V37.3498H54.8881V38.2675H56.8322V38.8036H54.2913V35.3872ZM66.4825 37.4457L65.8954 36.0799L65.3122 37.4457H66.4825ZM65.6291 35.3618H66.1831L67.6762 38.8056H67.0463L66.7022 37.9779H65.0964L64.7465 38.8036H64.136L65.6291 35.3618ZM72.443 37.0798C72.8707 37.0798 73.1429 36.8567 73.1429 36.5104V36.5006C73.1429 36.1347 72.8804 35.9331 72.4372 35.9331H71.5701V37.0798H72.443ZM70.9733 35.3872H72.4858C72.9135 35.3872 73.2479 35.5124 73.4656 35.7277C73.6528 35.9264 73.7542 36.1916 73.7475 36.4654V36.4751C73.7475 37.0367 73.4131 37.3733 72.9427 37.5103L73.8583 38.8036H73.1507L72.3167 37.612H71.5701V38.8056H70.9733V35.3872ZM77.1943 35.3872H79.7119V35.9234H77.7912V36.8117H79.4942V37.3498H77.7912V38.2675H79.7352V38.8036H77.1943V35.3872ZM88.7985 37.0798C89.2262 37.0798 89.4983 36.8567 89.4983 36.5104V36.5006C89.4983 36.1347 89.2359 35.9331 88.7946 35.9331H87.9256V37.0798H88.7985ZM87.3288 35.3872H88.8432C89.2689 35.3872 89.6033 35.5124 89.823 35.7277C90.0097 35.9266 90.1104 36.1919 90.1029 36.4654V36.4751C90.1029 37.0367 89.7686 37.3733 89.2981 37.5103L90.2157 38.8036H89.5081L88.6721 37.612H87.9256V38.8056H87.3288V35.3872ZM96.3259 37.1052V37.0954C96.3259 36.4301 95.8457 35.8803 95.1711 35.8803C94.4965 35.8803 94.0241 36.4223 94.0241 37.0856V37.0954C94.0241 37.7607 94.5063 38.3066 95.1809 38.3066C95.8554 38.3066 96.3259 37.7685 96.3259 37.1052ZM93.4001 37.1052V37.0954C93.3979 36.8606 93.4427 36.6278 93.5318 36.4108C93.6208 36.1938 93.7523 35.997 93.9185 35.8321C94.0846 35.6673 94.282 35.5378 94.4988 35.4513C94.7157 35.3647 94.9476 35.323 95.1809 35.3285C96.2229 35.3285 96.95 36.1249 96.95 37.0856V37.0954C96.9521 37.33 96.9074 37.5627 96.8184 37.7796C96.7295 37.9965 96.5982 38.1932 96.4323 38.358C96.2663 38.5228 96.0692 38.6524 95.8526 38.739C95.6359 38.8257 95.4042 38.8676 95.1711 38.8623C94.9391 38.8684 94.7083 38.8273 94.4925 38.7414C94.2766 38.6556 94.0803 38.5268 93.9151 38.3627C93.7499 38.1986 93.6193 38.0027 93.5311 37.7866C93.443 37.5705 93.3991 37.3388 93.402 37.1052M102.232 37.4457L101.645 36.0799L101.062 37.4457H102.232ZM101.377 35.3618H101.931L103.426 38.8056H102.794L102.45 37.9779H100.844L100.494 38.8036H99.8836L101.377 35.3618ZM107.316 35.9331V38.2577H107.988C108.7 38.2577 109.165 37.7744 109.165 37.1033V37.0954C109.165 36.4262 108.7 35.9331 107.988 35.9331H107.316ZM106.721 35.3853H107.988C109.054 35.3853 109.791 36.1249 109.791 37.0876V37.0954C109.791 38.0581 109.054 38.8036 107.988 38.8036H106.721V35.3853ZM118.869 37.0798C119.297 37.0798 119.567 36.8567 119.567 36.5104V36.5006C119.567 36.1347 119.305 35.9331 118.864 35.9331H117.996V37.0798H118.869ZM117.398 35.3872H118.912C119.34 35.3872 119.674 35.5124 119.892 35.7277C120.079 35.9263 120.181 36.1916 120.174 36.4654V36.4751C120.174 37.0367 119.839 37.3733 119.369 37.5103L120.285 38.8036H119.577L118.741 37.612H117.996V38.8056H117.398V35.3872ZM123.568 37.3537V35.3872H124.163V37.3283C124.163 37.9642 124.49 38.3008 125.022 38.3008C125.551 38.3008 125.878 37.9838 125.878 37.3537V35.3872H126.473V37.3244C126.473 38.3458 125.899 38.8584 125.015 38.8584C124.13 38.8584 123.568 38.3458 123.568 37.3537ZM130.007 35.3872H130.559L132.379 37.749V35.3872H132.966V38.8017H132.466L130.594 36.3714V38.8017H130.007V35.3872ZM136.555 35.3872H137.107L138.926 37.749V35.3872H139.511V38.8017H139.012L137.14 36.3714V38.8017H136.553L136.555 35.3872ZM143.1 35.3872H145.616V35.9234H143.697V36.8117H145.4V37.3498H143.697V38.2675H145.641V38.8036H143.1V35.3872ZM150.532 37.0798C150.96 37.0798 151.232 36.8567 151.232 36.5104V36.5006C151.232 36.1347 150.97 35.9331 150.528 35.9331H149.66V37.0798H150.532ZM149.065 35.3872H150.577C151.005 35.3872 151.339 35.5124 151.557 35.7277C151.744 35.9263 151.846 36.1916 151.839 36.4654V36.4751C151.839 37.0367 151.504 37.3733 151.032 37.5103L151.95 38.8036H151.242L150.408 37.612H149.66V38.8056H149.065V35.3872ZM155.058 38.3066L155.416 37.8762C155.741 38.1599 156.071 38.3203 156.487 38.3203C156.856 38.3203 157.09 38.1442 157.09 37.8899V37.882C157.09 37.6374 156.954 37.5063 156.324 37.3596C155.601 37.1835 155.192 36.9682 155.192 36.3382V36.3284C155.192 35.7414 155.678 35.3383 156.353 35.3383C156.847 35.3383 157.241 35.489 157.585 35.7688L157.265 36.2208C157.004 36.0053 156.68 35.8816 156.343 35.8686C155.993 35.8686 155.789 36.0505 155.789 36.2756V36.2853C155.789 36.5475 155.945 36.6649 156.6 36.8215C157.319 36.9976 157.687 37.2559 157.687 37.8233V37.8331C157.687 38.471 157.187 38.8506 156.473 38.8506C155.954 38.8506 155.464 38.6725 155.058 38.3066Z" fill="#CCCCCC"/>
</svg>
