<svg width="63" height="48" viewBox="0 0 63 48" fill="none" xmlns="http://www.w3.org/2000/svg">
<path d="M32.5667 0.00290464C42.7114 0.00871378 52.8562 0.0154911 63 0V30.8349C52.8571 30.8204 42.7143 30.8214 32.5714 30.834C32.5303 28.8753 32.5667 26.9157 32.5542 24.9571C32.5628 16.6393 32.537 8.32063 32.5667 0.00290464ZM34.2517 0.862658C34.4039 1.00305 34.5581 1.14247 34.7228 1.27027C38.5036 4.21647 42.249 7.21205 46.0375 10.1476C46.3707 9.7371 46.7287 9.34692 47.0456 8.92382C47.3807 8.38163 47.5349 7.7494 47.8211 7.18204C47.9198 6.99615 48.1065 6.88674 48.2692 6.76572C48.8571 6.36198 49.4315 5.93791 50.0194 5.53418C50.5632 5.17885 50.8629 4.57761 51.2707 4.08964C51.8873 3.3209 52.434 2.49116 53.0841 1.75436C54.2741 1.4 55.5178 1.22863 56.7107 0.876213C55.0745 0.814249 53.4354 0.865563 51.7982 0.849104C45.9494 0.857817 40.0996 0.831676 34.2517 0.862658ZM59.3992 0.874276C58.6926 2.28493 57.9477 3.67622 57.2249 5.07816C56.6657 6.19642 56.0339 7.27886 55.5197 8.41939C56.6351 8.1938 57.7208 7.84138 58.8266 7.57513C59.1301 7.54995 59.1952 7.21302 59.3053 6.98356C60.1718 4.93777 61.067 2.9036 61.9373 0.858785C61.0909 0.852008 60.2436 0.821994 59.3992 0.874276ZM33.4082 1.37967C33.3671 2.4592 33.3805 3.53971 33.3996 4.61924C35.5059 5.72879 37.6199 6.82575 39.7291 7.93045C40.0163 8.08246 40.1743 8.3826 40.3629 8.63529C42.6549 11.8032 44.9451 14.9731 47.24 18.1391C47.6737 18.72 48.0615 19.3367 48.5373 19.8847C48.9806 19.1334 49.3501 18.3395 49.7637 17.5717C51.8078 13.6408 53.8538 9.70999 55.8989 5.77913C56.6361 4.33653 57.4173 2.91716 58.1258 1.46003C56.749 1.76598 55.378 2.0971 53.9984 2.39143C53.8509 2.42822 53.6978 2.45727 53.5647 2.53279C53.3119 2.76806 53.1329 3.0682 52.9203 3.33832C52.3373 4.10513 51.7542 4.87194 51.1721 5.63971C50.8408 6.08895 50.3277 6.33487 49.8959 6.66793C49.4765 6.99131 49.0112 7.25562 48.6139 7.60611C48.1716 8.25867 48.0892 9.11939 47.5301 9.70321C47.0514 10.2212 46.6617 10.8263 46.1447 11.3056C45.8786 11.172 45.6603 10.9628 45.4267 10.7808C41.5348 7.71455 37.6333 4.65894 33.7481 1.58493C33.637 1.51135 33.5222 1.44648 33.4082 1.37967ZM61.5151 4.00153C60.8966 5.40928 60.3106 6.83059 59.6787 8.23253C58.2905 8.60238 56.9013 8.97126 55.5111 9.33627C55.2593 9.41566 54.9232 9.42631 54.8112 9.71386C53.2861 12.6543 51.7552 15.5927 50.2243 18.5312C49.6919 19.5216 49.218 20.546 48.6445 21.5132C48.2539 21.063 47.959 20.5382 47.5703 20.0871C47.0495 20.9759 46.6474 21.9295 46.1438 22.829C45.5569 22.3284 45.0389 21.7543 44.4712 21.2334C44.2194 21.002 43.958 20.7629 43.8192 20.4404C43.6526 20.1326 43.5827 19.7404 43.2801 19.5313C42.8388 19.2263 42.3639 18.9765 41.9168 18.6803C41.6899 18.5438 41.5903 18.2853 41.4802 18.0568C41.1336 17.2851 40.7497 16.5309 40.405 15.7592C40.2662 15.4049 39.9445 15.189 39.664 14.9585C37.9502 13.5276 36.2355 12.0995 34.5179 10.6743C34.0593 10.3083 33.8218 9.74968 33.4111 9.3382C33.3527 10.8641 33.4034 12.3928 33.3862 13.9197C33.3862 18.6638 33.3862 23.408 33.3862 28.1521C33.3929 28.7572 33.3613 29.3623 33.4111 29.9665C42.9881 29.9587 52.5651 29.9587 62.1422 29.9665C62.1929 29.3623 62.1603 28.7572 62.168 28.1521C62.168 20.0842 62.167 12.0153 62.168 3.94731C62.1709 3.5155 62.1814 3.08272 62.1345 2.65284C61.8712 3.07497 61.7219 3.55229 61.5151 4.00153ZM33.4073 5.64455C33.3728 6.27388 33.3805 6.90514 33.3872 7.53446C33.3852 7.92174 33.7069 8.18799 33.8994 8.4891C34.3398 9.04581 34.6682 9.70611 35.2311 10.1525C37.056 11.6628 38.8703 13.1858 40.6951 14.6952C40.8751 14.8395 41.0063 15.0341 41.102 15.2442C41.4792 16.0536 41.866 16.8601 42.2404 17.6714C42.4213 18.1032 42.901 18.2485 43.2552 18.4983C43.5865 18.7364 44.0413 18.8671 44.2184 19.2699C44.4223 19.6659 44.5343 20.1297 44.88 20.4337C45.2294 20.7512 45.5377 21.1153 45.9216 21.3941C46.2854 20.6873 46.6531 19.9825 46.9911 19.2631C44.5171 15.8299 42.0288 12.4083 39.5548 8.9761C39.4227 8.78246 39.2408 8.63142 39.033 8.53073C37.6161 7.80071 36.2067 7.05618 34.7936 6.32035C34.3302 6.09573 33.8994 5.80334 33.4073 5.64455Z" fill="#484848"/>
<path d="M0.505705 0.553805C1.41429 0.511205 2.32671 0.511205 3.23434 0.553805C3.23242 0.783266 3.23242 1.01176 3.23529 1.24025C2.57181 1.29641 1.9064 1.25478 1.24291 1.26252C1.19409 1.99351 1.21132 2.72739 1.23238 3.45935C1.87385 3.48452 2.6551 3.33735 3.14051 3.8747C3.65177 4.48466 3.44593 5.34441 3.48709 6.07637C3.52922 6.70956 3.1903 7.42506 2.53447 7.56835C1.86523 7.68453 1.17973 7.61579 0.504748 7.61288C0.514322 5.26018 0.512407 2.90748 0.505705 0.553805ZM1.24291 4.16613C1.19313 5.06654 1.21132 5.97083 1.23334 6.87222C1.58663 6.88674 1.9447 6.92547 2.29511 6.8606C2.57659 6.81994 2.70872 6.50915 2.74318 6.25548C2.7968 5.783 2.79776 5.30278 2.74797 4.8303C2.72404 4.59503 2.61872 4.33556 2.38224 4.24842C2.01651 4.12449 1.62205 4.17484 1.24291 4.16613Z" fill="#484848"/>
<path d="M6.86581 0.542187C7.09846 0.537346 7.33207 0.534442 7.56472 0.531537C7.96588 1.88797 8.2646 3.27442 8.66288 4.63086C8.94627 3.26377 9.25552 1.90153 9.58487 0.544123C9.83667 0.532505 10.0885 0.527664 10.3403 0.543155C9.89986 2.43887 9.40679 4.322 8.95106 6.21482C8.84 6.65534 8.70501 7.15009 8.30576 7.41537C7.99939 7.63419 7.61164 7.62547 7.25356 7.63419C7.25548 7.40957 7.25835 7.18495 7.26218 6.96033C7.53792 6.87997 7.90461 6.86157 8.03864 6.55659C8.17268 6.25258 8.32204 5.91371 8.25502 5.57388C7.80408 3.89406 7.27271 2.23362 6.86581 0.542187Z" fill="#484848"/>
<path d="M13.5007 0.543155C14.5309 0.51895 15.563 0.516046 16.5931 0.54606C16.5951 0.780362 16.5951 1.01563 16.5931 1.24993C16.2054 1.26446 15.8167 1.27511 15.4289 1.25865C15.3973 3.38286 15.4299 5.50707 15.4136 7.63128C15.1685 7.62547 14.9234 7.61869 14.6783 7.61095C14.6994 5.80915 14.6783 4.00734 14.6898 2.20554C14.7023 1.88991 14.6821 1.57525 14.663 1.26058C14.2762 1.27317 13.8884 1.26446 13.5007 1.25284C13.5026 1.0166 13.5026 0.779394 13.5007 0.543155Z" fill="#484848"/>
<path d="M19.9987 0.534441C20.1988 0.541219 20.3998 0.541219 20.6009 0.53541C20.6382 2.25588 20.6047 3.97733 20.6162 5.69877C20.8192 5.11882 20.9628 4.52048 21.1447 3.93376C21.476 2.81066 21.8503 1.70014 22.1615 0.570265C22.4372 0.52476 22.7168 0.517014 22.9944 0.542187C23.0203 2.9036 23.0184 5.26599 22.9954 7.62741C22.7914 7.6245 22.5875 7.62354 22.3836 7.62547C22.3482 5.78591 22.3798 3.94538 22.3702 2.10582C22.2802 2.33431 22.1969 2.56474 22.1299 2.80001C21.6741 4.40333 21.1859 5.99794 20.7502 7.60804C20.4984 7.61966 20.2476 7.62741 19.9968 7.63128C19.9738 5.26599 19.9709 2.89973 19.9987 0.534441Z" fill="#484848"/>
<path d="M26.5512 0.563487C26.7944 0.538314 27.0395 0.527664 27.2846 0.534441C27.3057 1.64302 27.2607 2.7516 27.3076 3.85921C27.8476 2.82131 28.3598 1.76888 28.8825 0.721302C29.0242 0.402768 29.4359 0.564455 29.703 0.547028C29.2128 1.63624 28.6393 2.68576 28.1271 3.76433C28.647 5.0617 29.2483 6.32519 29.7796 7.61773C29.5278 7.62354 29.276 7.62547 29.0242 7.6245C28.558 6.6292 28.1511 5.60389 27.6589 4.62021C27.4857 4.88356 27.2865 5.15852 27.2903 5.49158C27.275 6.20417 27.3009 6.91772 27.2856 7.63128C27.0405 7.62547 26.7944 7.61869 26.5493 7.60998C26.5656 5.26115 26.5627 2.91232 26.5512 0.563487Z" fill="#484848"/>
<path d="M0.301776 9.1039C0.662721 9.09712 1.02367 9.1039 1.38461 9.12423C1.71971 10.7256 2.0615 12.327 2.38607 13.9313C2.42532 14.0969 2.47989 14.2576 2.53542 14.4183C2.9002 12.6572 3.25732 10.8931 3.60581 9.1281C3.96867 9.10487 4.33345 9.09131 4.69727 9.1068C4.75758 10.7101 4.70588 12.3154 4.72312 13.9197C4.71642 14.6071 4.74131 15.2945 4.70588 15.981C4.47132 15.9829 4.23675 15.9839 4.00218 15.9819C3.96006 14.2285 4.00697 12.4742 3.98016 10.7198C3.79347 11.2455 3.73698 11.8042 3.61539 12.3464C3.36455 13.5585 3.14434 14.7765 2.87626 15.9839C2.61968 15.9877 2.36405 15.9877 2.10746 15.9829C1.70822 14.2615 1.40185 12.5177 0.986327 10.8011C0.921223 12.5265 0.983455 14.2556 0.954732 15.9829C0.734527 15.9819 0.514322 15.9819 0.294116 15.9829C0.291244 13.6902 0.274968 11.3966 0.301776 9.1039Z" fill="#484848"/>
<path d="M6.64178 9.11164C7.02666 9.09615 7.4125 9.10196 7.79642 9.12423C8.22534 11.4072 8.70022 13.6825 9.10233 15.9703C8.84479 15.9858 8.58724 15.9906 8.3297 15.9848C8.22343 15.5346 8.14587 15.0786 8.03769 14.6284C7.46994 14.6236 6.90219 14.6236 6.33349 14.6294C6.23009 15.0815 6.15541 15.5404 6.03956 15.9897C5.80691 15.9858 5.57522 15.9829 5.34352 15.98C5.72457 13.6815 6.22434 11.4034 6.64178 9.11164ZM7.14346 10.2231C6.89358 11.4537 6.67146 12.6901 6.43402 13.9226C6.93283 13.9662 7.43356 13.9671 7.93237 13.9236C7.73897 12.846 7.50058 11.7771 7.30814 10.6985C7.28037 10.532 7.21431 10.3761 7.14346 10.2231Z" fill="#484848"/>
<path d="M9.70167 9.10777C10.3929 9.13295 11.0938 9.04484 11.7783 9.1678C12.3432 9.26849 12.7405 9.79422 12.7884 10.3558C12.8219 10.866 12.8027 11.3791 12.8008 11.8904C12.8027 12.3987 12.527 12.9244 12.055 13.1306C11.5715 13.3533 11.0277 13.2894 10.5126 13.3175C10.4781 14.1966 10.5021 15.0757 10.504 15.9548C10.2378 16.0032 9.96783 16.0023 9.70167 15.9548C9.7122 13.6728 9.71316 11.3898 9.70167 9.10777ZM10.5126 9.83198C10.4868 10.7469 10.4858 11.6638 10.5126 12.5787C10.9205 12.5826 11.3858 12.6804 11.7458 12.4335C12.1316 12.1111 12.0205 11.5544 12.0426 11.11C12.0282 10.7063 12.0885 10.1834 11.7084 9.92396C11.336 9.74581 10.909 9.82423 10.5126 9.83198Z" fill="#484848"/>
<path d="M13.4011 9.10777C13.7649 9.09131 14.1288 9.1039 14.4916 9.1281C14.7741 10.5484 15.0852 11.962 15.3753 13.3804C15.45 13.7018 15.4586 14.0552 15.6549 14.3341C16.0177 12.5991 16.3547 10.8583 16.7128 9.12229C17.0795 9.1039 17.4472 9.09809 17.8139 9.10583C17.8742 10.5804 17.8225 12.0569 17.8397 13.5324C17.8215 14.3621 17.8809 15.1938 17.8033 16.0216C17.5601 16.0178 17.317 16.0168 17.0738 16.0207C17.0719 14.8366 17.0747 13.6525 17.0738 12.4674C17.0699 11.9717 17.0996 11.475 17.0364 10.9822C16.8708 11.3288 16.8488 11.718 16.7674 12.0888C16.5022 13.3823 16.2561 14.6807 15.9842 15.9722C15.7296 15.9848 15.4749 15.9916 15.2212 15.9877C14.8028 14.3002 14.5242 12.5778 14.1 10.8931C14.0407 12.5884 14.0991 14.2866 14.0713 15.9829C13.8454 15.9829 13.6194 15.9829 13.3935 15.9819C13.3494 13.972 13.3944 11.9601 13.3714 9.9501C13.3667 9.66835 13.3848 9.38758 13.4011 9.10777Z" fill="#484848"/>
<path d="M18.3835 9.1068C18.6506 9.09422 18.9177 9.11164 19.1839 9.1281C19.5707 10.441 19.9412 11.7596 20.328 13.0725C20.373 12.9554 20.4228 12.8411 20.4573 12.7201C20.7139 11.505 21.0461 10.3083 21.3745 9.11164C21.6493 9.10583 21.924 9.10487 22.1998 9.10583C21.7354 10.8099 21.2529 12.5081 20.7818 14.2101C20.6411 14.7039 20.5578 15.2616 20.1739 15.6334C19.812 15.9839 19.2691 16.0371 18.7952 15.9577C18.7981 15.7467 18.799 15.5366 18.7952 15.3265C19.0891 15.2713 19.4702 15.2984 19.6521 15.0079C19.8417 14.6681 20.0207 14.2518 19.8752 13.8616C19.5937 12.9834 19.2998 12.1082 19.0355 11.2242C18.8249 10.5165 18.5539 9.82714 18.3835 9.1068Z" fill="#484848"/>
<path d="M22.7838 9.1039C23.3582 9.11649 23.9336 9.09131 24.5071 9.11649C24.9811 9.13682 25.4684 9.3808 25.6828 9.8252C25.9165 10.3132 25.8782 10.8738 25.8858 11.4004C25.8849 11.9494 25.8293 12.5797 25.3822 12.9583C24.8777 13.3814 24.1797 13.272 23.5727 13.2681C23.5267 14.1714 23.5727 15.0767 23.5497 15.98C23.2922 15.9887 23.0337 15.9877 22.7761 15.979C22.733 13.97 22.7761 11.9601 22.7541 9.9501C22.7503 9.66739 22.7675 9.38564 22.7838 9.1039ZM23.5593 9.83198C23.5507 10.7479 23.5507 11.6648 23.5593 12.5807C23.9021 12.5913 24.2534 12.6339 24.5914 12.5458C24.8805 12.4722 25.05 12.1721 25.0682 11.8865C25.1046 11.4363 25.1017 10.9822 25.0691 10.531C25.0586 10.2396 24.8863 9.93364 24.5923 9.85909C24.2544 9.77582 23.903 9.81843 23.5593 9.83198Z" fill="#484848"/>
<path d="M26.2314 9.10777C26.4746 9.10584 26.7207 9.08163 26.9619 9.1252C27.0797 9.17555 27.0682 9.3382 27.1199 9.44083C27.3497 10.2648 27.6111 11.08 27.837 11.9058C27.95 12.2951 28.0132 12.7017 28.2028 13.0628C28.5244 11.7403 28.8481 10.4177 29.2186 9.10777C29.4953 9.10487 29.772 9.10487 30.0496 9.10584C29.5412 10.9328 29.0252 12.7579 28.5254 14.5877C28.4163 14.9799 28.2947 15.4049 27.972 15.6769C27.6111 15.9906 27.0989 16.0313 26.646 15.9577C26.6498 15.7476 26.6498 15.5375 26.646 15.3274C26.8652 15.2916 27.0931 15.2819 27.299 15.1899C27.4742 15.1038 27.5488 14.9063 27.6245 14.7368C27.7183 14.4909 27.837 14.2208 27.7384 13.9555C27.2501 12.3357 26.6862 10.7382 26.2314 9.10777Z" fill="#484848"/>
<path d="M10.4379 17.472C12.4485 17.4604 14.4591 17.501 16.4687 17.441C21.0174 17.4507 25.5651 17.4265 30.1138 17.4526C30.1454 27.5963 30.1042 37.7411 30.1339 47.8848C27.7173 47.9284 25.3008 47.8906 22.8843 47.9032C15.2604 47.8954 7.63653 47.9177 0.0135937 47.8916C-0.0103417 37.7575 0.00401955 27.6215 0.00689179 17.4865C3.48327 17.4516 6.9606 17.4826 10.4379 17.472ZM8.14013 18.3375C5.71021 18.3453 3.27934 18.3162 0.850374 18.3521C0.813035 21.9411 0.84463 25.5312 0.834098 29.1203C0.834098 34.0581 0.834098 38.9958 0.834098 43.9336C0.832183 44.3945 0.816865 44.8573 0.869523 45.3171C1.13185 44.8979 1.28217 44.4225 1.4861 43.9743C2.09118 42.5849 2.67999 41.1878 3.28987 39.8004C4.76812 39.3695 6.26456 39.0065 7.74855 38.5998C7.91801 38.563 8.05971 38.4565 8.12481 38.292C10.0856 34.5005 12.0646 30.7188 14.0234 26.9254C14.0847 26.8547 14.1211 26.6717 14.2437 26.7134C14.6113 27.1413 14.9004 27.6341 15.2576 28.0717C15.765 27.1829 16.1776 26.2418 16.6736 25.3463C17.1906 25.8178 17.6856 26.3145 18.1863 26.8034C18.4582 27.0735 18.7856 27.3088 18.9484 27.6709C19.1102 27.9604 19.1772 28.3167 19.4214 28.5529C19.8924 28.8957 20.4218 29.1474 20.8948 29.4872C21.0671 29.6092 21.1552 29.8096 21.2471 29.9946C21.6129 30.7836 21.9853 31.5698 22.3558 32.3569C22.5205 32.7249 22.8661 32.9495 23.1639 33.1983C24.8279 34.5799 26.488 35.9664 28.153 37.347C28.6116 37.7227 28.8729 38.2736 29.2703 38.7073C29.2693 31.9058 29.2674 25.1052 29.2722 18.3036C25.2281 18.3095 21.184 18.3046 17.1398 18.3066C14.1402 18.3191 11.1397 18.2756 8.14013 18.3375ZM16.8861 26.7773C16.5271 27.4782 16.1547 28.1744 15.831 28.8937C18.3184 32.2882 20.7703 35.7088 23.2443 39.112C23.4406 39.3899 23.7699 39.508 24.0591 39.6581C25.8016 40.5556 27.5287 41.485 29.2779 42.369C29.2617 41.7271 29.2751 41.0862 29.2712 40.4462C29.2856 40.0686 28.9687 39.8101 28.781 39.5196C28.3693 39.0007 28.0611 38.3897 27.5555 37.9521C25.7116 36.4282 23.8772 34.8907 22.0332 33.3658C21.701 33.0889 21.5794 32.6542 21.3917 32.2795C21.0968 31.6695 20.8125 31.0538 20.5243 30.4409C20.3395 30.0159 19.8675 29.8706 19.5152 29.6247C19.1791 29.3904 18.7301 29.2442 18.5578 28.8366C18.3605 28.4396 18.2332 27.9865 17.8895 27.6864C17.5534 27.3843 17.2595 27.0348 16.8861 26.7773ZM14.2963 28.2431C11.2977 34.0009 8.30959 39.7655 5.31384 45.5243C5.14725 45.8225 4.99311 46.1285 4.87056 46.448C6.16115 46.203 7.43164 45.8632 8.71649 45.5902C8.99702 45.5117 9.34743 45.5137 9.51977 45.2368C10.2283 44.2763 10.9635 43.3362 11.6778 42.3806C11.8405 42.157 12.0426 41.9672 12.2695 41.8133C12.8181 41.4337 13.3552 41.0377 13.9066 40.6631C14.0512 40.5566 14.214 40.4588 14.3107 40.3019C14.6649 39.6736 14.775 38.9097 15.271 38.3655C15.7449 37.8233 16.1757 37.2434 16.6678 36.7186C18.102 37.7933 19.4922 38.929 20.9082 40.0279C22.7771 41.4938 24.644 42.9615 26.512 44.4303C27.4349 45.1322 28.3138 45.8952 29.2645 46.5593C29.276 45.5553 29.2664 44.5503 29.2722 43.5463C29.3124 43.3517 29.1267 43.2578 28.9888 43.1794C27.1707 42.2499 25.3688 41.2895 23.5545 40.3532C23.2299 40.179 22.8613 40.0415 22.6402 39.7288C19.9652 36.0138 17.2681 32.3143 14.5902 28.6013C14.4945 28.4793 14.394 28.3622 14.2963 28.2431ZM15.8301 39.0287C15.4251 39.6077 15.314 40.3406 14.9359 40.9332C14.5309 41.305 14.0445 41.5741 13.6098 41.9101C13.157 42.2567 12.6208 42.5152 12.279 42.9886C11.5916 43.9055 10.8908 44.8127 10.2053 45.7315C10.0377 45.9474 9.87592 46.2176 9.582 46.2621C8.93191 46.4189 8.27513 46.5506 7.62408 46.7084C7.2392 46.8082 6.83422 46.842 6.47614 47.026C6.64656 47.0415 6.81794 47.0589 6.99027 47.0638C12.5433 47.0589 18.0972 47.0628 23.6503 47.0618C25.2271 47.0444 26.8059 47.0976 28.3818 47.0347C28.1606 46.7859 27.8964 46.5864 27.6312 46.3918C24.4018 43.8484 21.1667 41.3137 17.9364 38.7731C17.5486 38.4798 17.1906 38.1467 16.7722 37.8969C16.4543 38.2716 16.1336 38.6424 15.8301 39.0287ZM4.4244 40.3581C4.25111 40.4055 4.07112 40.4413 3.91314 40.5304C3.72836 40.816 3.62975 41.1481 3.48997 41.4579C2.89924 42.8308 2.30469 44.2018 1.71588 45.5757C1.51578 46.0665 1.27164 46.54 1.11366 47.0483C1.92364 47.0889 2.73648 47.0676 3.54741 47.0638C3.69198 46.8101 3.83847 46.5574 3.96772 46.295C5.12044 44.0517 6.29998 41.821 7.44888 39.5758C6.43306 39.8043 5.43448 40.1063 4.4244 40.3581Z" fill="#484848"/>
<path d="M49.2419 32.7326C50.2128 32.7433 51.1826 32.7433 52.1534 32.7326C52.1534 32.9766 52.1563 33.2196 52.1611 33.4646C51.4603 33.4955 50.7595 33.4636 50.0596 33.482C50.0347 34.2846 50.0347 35.0892 50.0596 35.8928C50.6168 35.9054 51.175 35.8899 51.7322 35.9025C51.7322 36.1329 51.7312 36.3643 51.7312 36.5957C51.1807 36.6267 50.6302 36.6112 50.0797 36.6034C50.0127 37.4361 50.0423 38.2726 50.0615 39.1062C50.7585 39.143 51.4574 39.113 52.1554 39.1207C52.1544 39.3647 52.1563 39.6097 52.1602 39.8546C51.1855 39.8759 50.2109 39.8769 49.2372 39.8536C49.2506 37.4796 49.2391 35.1056 49.2419 32.7326Z" fill="#484848"/>
<path d="M60.5701 32.8527C61.2364 32.5273 62.1939 32.6058 62.6467 33.2545C62.9406 33.6563 62.9636 34.1771 62.9311 34.6574C62.6793 34.6709 62.4284 34.6612 62.1785 34.6351C62.1632 34.2827 62.2073 33.8615 61.9296 33.5953C61.6797 33.3881 61.3111 33.4016 61.0191 33.4936C60.5998 33.7521 60.5548 34.3408 60.6658 34.7794C60.8468 35.4271 61.4375 35.8037 61.9143 36.2162C62.4074 36.6286 62.8909 37.1582 62.9387 37.8369C62.9866 38.4265 62.9445 39.1159 62.4897 39.5467C61.9152 40.056 60.977 40.0734 60.3604 39.6319C59.7955 39.1885 59.7592 38.3985 59.8176 37.7372C60.0502 37.7391 60.2848 37.7381 60.5193 37.7362C60.5433 38.077 60.526 38.4314 60.6438 38.7577C60.8707 39.3173 61.7783 39.3434 62.0435 38.8032C62.2973 38.2639 62.1517 37.5861 61.742 37.1669C61.1158 36.4843 60.1565 36.0322 59.8999 35.0688C59.7055 34.3011 59.8089 33.269 60.5701 32.8527Z" fill="#484848"/>
<path d="M32.6385 32.7791C33.2799 32.7568 33.9243 32.7423 34.5657 32.7771C35.0588 32.7936 35.5346 33.1334 35.6524 33.6291C35.7855 34.1926 35.7845 34.7958 35.6524 35.3593C35.5806 35.6807 35.2982 35.8734 35.0617 36.07C35.2991 36.2452 35.5662 36.4146 35.6926 36.6954C35.8697 37.0798 35.8458 37.5164 35.8525 37.9308C35.8487 38.4033 35.8573 38.9242 35.5557 39.3173C35.2924 39.6949 34.8204 39.844 34.3819 39.8595C33.7998 39.8808 33.2167 39.8672 32.6346 39.8624C32.6011 38.5408 32.6298 37.2192 32.6203 35.8976C32.6318 34.8578 32.5963 33.8179 32.6385 32.7791ZM33.4188 33.4781C33.413 34.2265 33.4101 34.9759 33.4207 35.7253C33.8113 35.735 34.2287 35.8056 34.5964 35.6372C34.9717 35.4155 34.9516 34.9197 34.9525 34.5373C34.9353 34.1955 34.9276 33.7327 34.5705 33.5662C34.201 33.4365 33.8017 33.4829 33.4188 33.4781ZM33.4283 36.5037C33.4025 37.3712 33.4149 38.2397 33.4207 39.1072C33.841 39.112 34.291 39.1972 34.6883 39.022C35.0961 38.7857 35.0674 38.2455 35.0808 37.834C35.0693 37.4002 35.0818 36.8242 34.6385 36.5937C34.2536 36.4456 33.8304 36.5182 33.4283 36.5037Z" fill="#484848"/>
<path d="M39.1786 32.7917C39.5587 32.75 39.9407 32.7481 40.3217 32.7704C40.5381 33.5391 40.6338 34.335 40.7966 35.1163C41.0876 36.7002 41.4227 38.2765 41.6745 39.8672C41.4113 39.8682 41.148 39.8662 40.8856 39.8614C40.787 39.3879 40.7238 38.9068 40.5917 38.4411C40.022 38.4449 39.4514 38.4411 38.8818 38.4459C38.7659 38.9145 38.6845 39.3899 38.5859 39.8624C38.337 39.8624 38.0881 39.8614 37.8391 39.8575C38.292 37.5038 38.7353 35.1473 39.1786 32.7917ZM39.6898 33.9332C39.4438 35.1966 39.2044 36.4621 38.9756 37.7285C39.4821 37.744 39.9885 37.7449 40.494 37.7265C40.2815 36.5947 40.0556 35.4658 39.8478 34.334C39.8248 34.1897 39.7568 34.06 39.6898 33.9332Z" fill="#484848"/>
<path d="M43.7809 32.7868C44.4099 32.7433 45.0418 32.7539 45.6708 32.7713C46.1639 32.7859 46.6627 33.0899 46.8111 33.5827C46.9997 34.1975 46.9767 34.8646 46.8848 35.4949C46.8283 35.9141 46.5009 36.2007 46.183 36.4359C46.4683 36.5908 46.7412 36.8087 46.8331 37.1388C47.106 38.0257 46.7785 38.9823 47.0705 39.8682C46.7929 39.8672 46.5162 39.8653 46.2395 39.8604C46.0633 39.1343 46.1418 38.3839 46.1169 37.6452C46.1141 37.3596 45.9695 37.0633 45.7072 36.9384C45.3587 36.7864 44.9709 36.8387 44.6033 36.8493C44.5688 37.8514 44.5927 38.8554 44.5947 39.8585C44.3228 39.8653 44.0508 39.8653 43.7789 39.8585C43.7904 37.5009 43.7866 35.1434 43.7809 32.7868ZM44.6023 33.4791C44.5774 34.3485 44.5774 35.2199 44.6023 36.0903C45.0207 36.0767 45.4994 36.1668 45.8613 35.9025C46.2069 35.6207 46.1055 35.126 46.1275 34.7348C46.1112 34.3553 46.1859 33.8605 45.8221 33.6166C45.4544 33.4055 45.0073 33.4926 44.6023 33.4791Z" fill="#484848"/>
<path d="M54.3162 32.7965C54.591 32.7587 54.8687 32.7491 55.1444 32.7762C55.1674 33.8838 55.1233 34.9914 55.1664 36.099C55.7773 34.9943 56.367 33.878 56.9788 32.7752C57.2411 32.7636 57.5035 32.7616 57.7658 32.7791C57.2699 33.8847 56.5719 34.8907 56.076 35.9935C56.6016 37.3112 57.311 38.5505 57.8549 39.8614C57.5724 39.8769 57.29 39.8643 57.0095 39.8411C56.571 38.8303 56.0482 37.8601 55.582 36.8619C55.3455 37.0904 55.1368 37.3848 55.1492 37.7314C55.1377 38.444 55.1607 39.1565 55.1463 39.8691C54.8687 39.8691 54.591 39.8633 54.3143 39.8498C54.3316 37.499 54.3277 35.1473 54.3162 32.7965Z" fill="#484848"/>
<path d="M48.8341 41.5412C49.1472 41.5451 49.4602 41.5451 49.7743 41.5422C49.9993 42.2906 50.1046 43.0671 50.2731 43.83C50.4129 44.5833 50.6005 45.3268 50.7145 46.0849C50.7365 46.2592 50.8131 46.4199 50.8657 46.5874C51.1616 44.9212 51.5139 43.2665 51.826 41.6032C52.164 41.5712 52.5058 41.5548 52.8457 41.5877C52.86 43.7254 52.8476 45.8622 52.8514 48H52.1592C52.1391 46.3822 52.163 44.7633 52.1487 43.1455C51.7753 44.7517 51.4794 46.3763 51.1903 48H50.4722C50.1065 46.387 49.8355 44.7508 49.4421 43.1445C49.4172 44.7633 49.4507 46.3812 49.4258 48H48.8082C48.7891 46.2902 48.8082 44.5794 48.7987 42.8696C48.7872 42.4261 48.8015 41.9827 48.8341 41.5412Z" fill="#484848"/>
<path d="M57.4144 41.5625C57.6471 41.5596 57.8788 41.5499 58.1114 41.5354C57.8453 42.4619 57.5159 43.3682 57.2258 44.287C57.0401 44.9028 56.7404 45.5001 56.7442 46.1575C56.7356 46.7714 56.7519 47.3862 56.7548 48H56.0329C56.0358 47.3862 56.0501 46.7723 56.0444 46.1585C56.052 45.4469 55.7131 44.8059 55.5226 44.1379C55.2708 43.281 54.9233 42.4532 54.727 41.5799C54.9692 41.5974 55.2507 41.5112 55.4671 41.6516C55.8299 42.6236 56.0626 43.6441 56.4273 44.6171C56.8065 43.616 57.0841 42.5801 57.4144 41.5625Z" fill="#484848"/>
<path d="M32.56 41.5857C32.9017 41.5615 33.2445 41.5712 33.5863 41.5974C33.931 43.2481 34.2402 44.9066 34.6059 46.5526C34.987 44.9047 35.2378 43.2278 35.616 41.579C35.9578 41.5586 36.2996 41.5732 36.6405 41.6032C36.6357 43.7351 36.6223 45.868 36.6462 48H35.9262C35.9463 46.7733 35.9253 45.5476 35.9387 44.3209C35.9435 43.9849 35.9272 43.649 35.8937 43.3159C35.7769 43.678 35.6907 44.0498 35.6313 44.4264C35.4044 45.6183 35.1804 46.812 34.9363 48H34.2192C34.0095 46.7752 33.7165 45.5669 33.4877 44.3451C33.4331 43.9975 33.345 43.6567 33.2368 43.3227C33.2024 43.6548 33.1851 43.9878 33.1899 44.3218C33.2043 45.5476 33.1832 46.7743 33.2033 48H32.5542C32.559 45.8622 32.5456 43.7235 32.56 41.5857Z" fill="#484848"/>
<path d="M39.73 41.577C40.0766 41.5635 40.4242 41.5722 40.7707 41.5964C41.1729 43.7303 41.5922 45.8613 41.9742 48H41.259C41.1633 47.574 41.0857 47.1451 40.9842 46.721C40.4701 46.7007 39.956 46.7007 39.4419 46.721C39.3365 47.1441 39.258 47.573 39.1671 48H38.4921C38.9239 45.8632 39.2733 43.709 39.73 41.577ZM40.1695 42.6507C39.9512 43.7893 39.7195 44.926 39.5357 46.0704C39.9837 46.1082 40.4347 46.1082 40.8837 46.0694C40.7344 45.1129 40.5075 44.1708 40.3533 43.2142C40.3265 43.0158 40.2633 42.826 40.1695 42.6507Z" fill="#484848"/>
<path d="M43.8776 41.5974C44.5315 41.5683 45.194 41.518 45.8422 41.6322C46.272 41.7087 46.6014 42.0882 46.6732 42.5162C46.7575 43.0341 46.7594 43.5715 46.6713 44.0895C46.6119 44.4312 46.3343 44.6597 46.0988 44.8853C46.3659 45.1283 46.6665 45.3994 46.6943 45.7887C46.7699 46.5235 46.6675 47.271 46.8206 48H46.0605C45.9839 47.4539 45.9906 46.9021 45.9982 46.3531C45.9915 46.0355 45.9906 45.6521 45.7168 45.4391C45.397 45.199 44.9748 45.2726 44.6033 45.2658C44.5707 46.1769 44.5889 47.0889 44.5956 48H43.8737C43.89 45.8661 43.8795 43.7312 43.8776 41.5974ZM44.6042 42.2664C44.5813 43.04 44.5659 43.8155 44.6129 44.5891C44.9748 44.5697 45.373 44.6442 45.7043 44.4593C46.0585 44.2153 45.9848 43.7274 46.004 43.3537C45.9867 43.0099 46.0337 42.5626 45.7043 42.3496C45.3644 42.1763 44.968 42.2625 44.6042 42.2664Z" fill="#484848"/>
<path d="M59.9621 41.5974C60.616 41.5673 61.2776 41.5199 61.9267 41.6312C62.3873 41.7106 62.7214 42.1386 62.775 42.5956C62.8372 43.0913 62.8401 43.5996 62.7597 44.0934C62.7109 44.4409 62.4217 44.6656 62.1814 44.8863C62.4351 45.107 62.7147 45.351 62.7664 45.7083C62.9062 46.4645 62.7817 47.239 62.8889 48H62.1489C62.0943 47.452 62.1029 46.9011 62.1048 46.3512C62.0972 46.0297 62.0761 45.6512 61.8109 45.4314C61.4882 45.2087 61.0756 45.2726 60.707 45.2639C60.6926 46.1759 60.706 47.088 60.7022 48H59.9583C59.9746 45.8661 59.964 43.7312 59.9621 41.5974ZM60.707 42.2654C60.6993 43.0409 60.6907 43.8155 60.7147 44.591C61.1531 44.5668 61.7889 44.6946 62.01 44.1892C62.123 43.679 62.1259 43.1252 62.0072 42.6159C61.7946 42.094 61.1426 42.2683 60.707 42.2654Z" fill="#484848"/>
</svg>
