<svg width="120" height="28" viewBox="0 0 120 28" fill="none" xmlns="http://www.w3.org/2000/svg">
<path id="path0" fill-rule="evenodd" clip-rule="evenodd" d="M14.2586 1.26987C12.7632 1.84913 11.9805 2.85554 8.40147 8.80084C6.57735 11.8307 4.01798 16.0806 2.71384 18.2449C0.422396 22.0482 0.342951 22.2166 0.343263 23.2707C0.343886 25.1389 1.55269 26.6919 3.17742 26.9115L3.94477 27.015L6.27826 22.8852L8.61176 18.7555L11.9182 18.6589L15.2244 18.562L16.6073 16.5325C18.4486 13.8304 18.5745 14.0198 14.9362 14.0198C13.2467 14.0198 11.864 13.985 11.864 13.9426C11.864 13.6933 16.2615 6.19434 16.3999 6.20783C16.5946 6.22696 25.4971 21.165 25.4971 21.473C25.4974 22.4022 25.3634 22.422 18.3601 22.5246L11.7681 22.6211L11.7117 23.6915C11.6491 24.8786 12.0569 25.7075 13.0778 26.4693C13.9396 27.1122 28.7422 27.2016 30.0348 26.5715C31.5121 25.8518 32.3153 23.9393 31.7757 22.4261C31.4785 21.5928 21.1666 3.70231 20.3892 2.67176C19.2231 1.12561 16.3354 0.465438 14.2586 1.26987ZM96.0703 11.2063C93.8692 11.811 93.6228 12.6637 93.7001 19.3984C93.777 26.0741 94.201 26.9704 97.2813 26.9704C100.134 26.9704 100.864 25.8285 100.864 21.3648V18.1756L99.1743 18.1194L97.4841 18.0636L97.5421 19.1826C97.5969 20.243 97.6274 20.3051 98.1278 20.3628L98.6559 20.4239V22.1294C98.6559 24.1482 98.3618 24.7152 97.3147 24.7152C96.1925 24.7152 96.1597 24.5524 96.1597 18.9418C96.1597 13.3995 96.1915 13.2464 97.3383 13.2464C98.2269 13.2464 98.515 13.6579 98.6384 15.1024L98.7521 16.4359H99.808H100.864L100.924 15.5957C101.16 12.2842 99.0603 10.3852 96.0703 11.2063ZM114.813 11.2082C112.665 11.9016 112.417 12.6082 112.327 18.2797C112.215 25.3531 112.668 26.6248 115.402 26.909C117.471 27.1238 118.708 26.5201 119.417 24.9488C119.846 23.9979 119.96 14.6166 119.556 13.4205C118.898 11.4676 116.898 10.5348 114.813 11.2082ZM38.4949 11.2446C38.422 11.318 38.3625 14.8427 38.3625 19.0776V26.7772H39.6105H40.8586V23.5877V20.3985H42.3949H43.9311V19.2388V18.079H42.3949H40.8586V15.766V13.4534L42.827 13.3982L44.795 13.343V12.2801V11.217L41.7113 11.164C40.0152 11.1348 38.5681 11.1712 38.4949 11.2446ZM46.7472 11.2493C46.6768 11.3202 46.6191 14.8427 46.6191 19.0776V26.7772H49.8515C53.5816 26.7772 53.2623 26.887 53.1772 25.6335L53.1109 24.6509H51.1167C48.7607 24.6509 48.8757 24.7952 48.9632 21.9447L49.0193 20.1084L50.6995 20.0526L52.3797 19.9968V18.9411V17.8855H50.7512C48.8221 17.8855 48.8757 17.9639 48.9629 15.2762L49.0193 13.5365L51.0836 13.4816L53.148 13.4267V12.2736V11.1204H50.0116C48.2865 11.1204 46.8176 11.1784 46.7472 11.2493ZM55.388 11.2493C55.3176 11.3202 55.2599 14.8427 55.2599 19.0776V26.7772H56.412H57.5642L57.5701 21.51C57.5732 18.6128 57.6455 16.3729 57.7302 16.5325C57.8153 16.6918 58.4754 19.0622 59.1973 21.7998L60.5095 26.7772H61.8233H63.1371L63.087 18.997L63.0368 11.217H61.9807H60.9245L60.8286 15.4693C60.7756 17.8083 60.6725 19.5913 60.5989 19.4319C60.5254 19.2723 60.0678 17.6198 59.5821 15.7594C59.096 13.8987 58.6094 12.0939 58.5004 11.7486L58.3025 11.1204H56.9093C56.1429 11.1204 55.4584 11.1784 55.388 11.2493ZM65.5734 11.2405C65.4984 11.3161 65.437 14.8427 65.437 19.0776V26.7772H66.5913H67.7456L67.6954 18.997L67.6452 11.217L66.6776 11.1599C66.1455 11.1285 65.6488 11.1649 65.5734 11.2405ZM69.9688 11.2819C69.908 11.3807 70.4118 13.1097 71.0879 15.1241L72.3172 18.7865L71.0664 22.4436C70.3785 24.4549 69.7709 26.2529 69.7161 26.4388C69.6292 26.7343 69.761 26.7772 70.7586 26.7772H71.9007L72.8126 23.9763C73.3142 22.4355 73.7884 21.1355 73.8666 21.0869C73.9445 21.0383 74.427 22.2987 74.9386 23.8879L75.8692 26.7772H77.0858C78.5741 26.7772 78.5794 27.1489 77.025 22.5716L75.748 18.811L77.0057 15.0751C78.4027 10.9256 78.3968 11.1204 77.1247 11.1204C76.0184 11.1204 76.0477 11.0771 75.0517 14.1719C74.1345 17.0215 74.146 17.0233 73.1176 13.868L72.2537 11.217L71.1664 11.1596C70.5685 11.1279 70.0295 11.1828 69.9688 11.2819ZM86.3581 11.2458C86.1459 11.3035 85.9902 11.8063 85.8113 13.0115C85.6736 13.9379 85.3998 15.6964 85.2023 16.9192C84.8206 19.2855 83.9408 24.8388 83.7539 26.0625L83.6414 26.7976L84.7642 26.739L85.8867 26.6803L86.0612 25.3757L86.2354 24.071H87.7208C89.3892 24.071 89.3334 24.0218 89.5396 25.6837L89.6755 26.7772H90.9101H92.1448L92.0408 26.1491C91.9834 25.8035 91.7635 24.4116 91.5519 23.0561C91.3404 21.7007 90.9921 19.4827 90.7777 18.1273C90.5637 16.7718 90.245 14.7493 90.0696 13.6331C89.8758 12.3993 89.6378 11.5086 89.4624 11.3619C89.1907 11.1345 87.0594 11.0548 86.3581 11.2458ZM103.216 11.2276C103.137 11.3104 103.072 14.8427 103.072 19.0776V26.7772H104.32H105.569V23.5877V20.3985H106.25C107.544 20.3985 107.869 20.9972 107.895 23.434C107.931 26.6647 107.933 26.6694 109.32 26.7368L110.477 26.7932L110.414 24.1275C110.346 21.2506 110.065 20.0325 109.354 19.531L108.948 19.2444L109.44 18.71C110.641 17.4072 110.749 13.5371 109.622 12.2049C108.953 11.4152 103.791 10.6274 103.216 11.2276ZM116.983 13.6761C117.38 14.2469 117.433 23.7978 117.042 24.3134C116.592 24.9062 115.818 24.9347 115.266 24.379L114.767 23.8769L114.824 18.8358C114.878 14.1051 114.904 13.778 115.254 13.5205C115.819 13.1053 116.637 13.179 116.983 13.6761ZM107.522 13.7598C107.81 14.0226 107.873 14.3773 107.873 15.7522C107.873 17.7785 107.701 18.0806 106.469 18.2204L105.569 18.3224V15.8811V13.4399H106.369C106.846 13.4399 107.313 13.5698 107.522 13.7598ZM88.4034 18.18C88.9695 21.9958 88.9789 21.9447 87.7283 21.9447C86.5643 21.9447 86.5578 21.9349 86.7706 20.4951C87.8171 13.4107 87.7171 13.5528 88.4034 18.18Z" fill="#484848"/>
</svg>
