<svg width="248" height="28" viewBox="0 0 248 28" fill="none" xmlns="http://www.w3.org/2000/svg">
<path fill-rule="evenodd" clip-rule="evenodd" d="M10.9842 0.55065C10.9842 1.00176 11.1344 1.10194 11.8146 1.10322C13.2912 1.10577 14.5601 1.5824 14.5601 2.13497C14.5601 2.64095 4.58596 22.7604 3.42445 24.5974C2.72255 25.7064 1.45557 26.5965 0.574683 26.5978C0.234604 26.5984 0 26.7547 0 26.9812C0 27.3086 0.737691 27.3634 5.10886 27.3634C9.48003 27.3634 10.2177 27.3086 10.2177 26.9812C10.2177 26.6922 9.90641 26.5984 8.94562 26.5984C4.85636 26.5984 4.74832 25.8104 7.97333 19.5229C11.0571 13.5117 10.2663 14.1051 15.1898 14.1051C20.2392 14.1051 19.5245 13.5551 22.8454 20.0002C26.0097 26.1422 26.009 26.5984 22.8313 26.5984C21.8674 26.5984 21.6896 26.6731 21.7632 27.045C21.8622 27.551 42.283 27.5823 43.2278 27.0776C44.3382 26.4848 41.1841 19.2045 39.8168 19.2045H39.136L40.0002 21.1806C41.0173 23.5057 41.1764 25.4786 40.4036 26.1766C39.5272 26.9685 32.1944 26.7873 31.1965 25.9495C30.5407 25.3982 24.7778 14.8759 24.7778 14.2282C24.7778 14.128 25.9125 14.091 27.299 14.1466C30.2019 14.2633 31.3851 14.8235 32.6009 16.6567C33.1648 17.5072 33.974 18.0285 33.974 17.5417C33.974 17.0714 31.8799 13.3751 31.5398 13.245C31.3103 13.1569 29.5396 13.0854 27.6052 13.0854H24.0887L21.3042 7.61723C17.904 0.940509 17.8452 1.27358 22.4478 1.14469C27.1277 1.01452 28.6977 1.78084 30.9089 5.27361C31.6587 6.45914 33.3521 7.51322 32.9097 6.51975C32.2443 5.0254 30.0152 1.06621 29.6579 0.742709C29.2423 0.368165 28.0898 0.297339 20.0851 0.158241L10.9842 0V0.55065ZM52.8101 0.365613C38.3267 2.24727 36.8443 23.8681 50.9505 27.4834C60.7841 30.0038 69.2387 23.0106 68.6398 12.8526C68.1463 4.48496 61.4936 -0.762487 52.8101 0.365613ZM91.7677 0.277559C85.6604 0.351575 84.3224 0.689112 87.5928 1.33164C89.4038 1.68705 90.2751 2.3149 90.7277 3.59167C91.2729 5.12941 91.2077 20.2943 90.6503 21.5181C88.1451 27.0157 78.3218 26.9481 76.9282 21.423C76.5977 20.1144 76.5076 2.70285 76.8285 2.22366C77.1226 1.78403 77.9414 1.43182 79.1234 1.23657C79.8036 1.12363 80.2095 0.922004 80.2095 0.696767C80.2095 0.396876 79.2238 0.336899 74.3342 0.336899C69.3027 0.336899 68.4589 0.391135 68.4589 0.715911C68.4589 0.96029 68.8162 1.15235 69.4618 1.25571C72.3225 1.71193 72.2905 1.5824 72.2905 12.8124V21.654L72.9464 22.9678C75.6325 28.3486 85.6111 29.5341 90.5199 25.0562C93.0456 22.7521 93.0839 22.5697 93.2348 12.1928C93.3901 1.49945 93.293 1.80317 96.7494 1.2353C97.7133 1.07706 98.2299 0.528956 97.643 0.287768C97.5376 0.244379 94.8943 0.239914 91.7677 0.277559ZM99.7979 0.246932C99.3415 0.702511 99.7334 1.0828 100.92 1.33675C103.42 1.87208 103.701 2.17325 103.706 4.32608L103.71 5.89317L105.643 7.76845C106.707 8.79956 107.684 9.68137 107.815 9.72795C107.955 9.77836 108.053 8.2872 108.053 6.11267C108.053 1.74001 108.528 1.1013 111.788 1.1013C112.021 1.1013 112.142 0.922643 112.091 0.655294C112.002 0.193334 100.243 -0.197162 99.7979 0.246932ZM114.299 0.35604C114.249 0.436436 114.14 1.58368 114.056 2.90575C113.973 4.22718 113.855 5.62391 113.795 6.00994C113.587 7.33775 114.584 6.9077 114.934 5.51863C115.563 3.02635 117.529 1.87081 121.144 1.86762L123.123 1.86634V13.102C123.123 26.1052 123.188 25.8232 120.212 25.8378C119.137 25.8429 118.72 26.1569 118.823 26.8823L118.909 27.4911H125.295H131.681L131.71 26.9079C131.744 26.2462 131.341 25.9776 129.934 25.7243C127.149 25.2221 127.214 25.5367 127.212 12.5118L127.211 1.86634H129.288C132.975 1.86634 134.896 2.93127 135.5 5.3087C135.711 6.13691 135.977 6.61355 136.26 6.66906C136.636 6.74308 136.658 0.850541 136.282 0.394962C136.166 0.253312 114.386 0.215027 114.299 0.35604ZM143.815 0.583831C143.815 0.997935 143.981 1.10194 144.645 1.10322C146.122 1.10577 147.391 1.5824 147.391 2.13497C147.391 2.64095 137.416 22.7604 136.255 24.5974C135.553 25.7064 134.286 26.5965 133.405 26.5978C133.065 26.5984 132.83 26.7547 132.83 26.9812C132.83 27.3086 133.569 27.3634 137.939 27.3634C142.31 27.3634 143.048 27.3086 143.048 26.9812C143.048 26.6922 142.737 26.5984 141.776 26.5984C137.71 26.5984 137.576 25.8129 140.625 19.8617C143.903 13.4657 143.082 14.1051 148.02 14.1051C153.061 14.1051 152.334 13.5449 155.667 20.0021C158.835 26.1364 158.836 26.5984 155.681 26.5984C154.71 26.5984 154.543 26.6743 154.543 27.1133C154.543 27.6168 154.673 27.6263 160.354 27.5593C165.246 27.5019 166.166 27.4324 166.166 27.1191C166.166 26.9015 165.808 26.6743 165.303 26.571C163.828 26.2698 163.308 25.4295 156.696 12.649L150.26 0.209285L147.038 0.137822C143.946 0.0695489 143.815 0.0874156 143.815 0.583831ZM172.131 0.342003C167.62 0.879892 165.164 3.35112 165.171 7.3486C165.178 12.4582 167.576 14.2174 174.851 14.4503C181.496 14.6627 183.408 15.8598 183.408 19.8049C183.408 26.8045 174.277 27.701 167.598 21.3561C166.352 20.1731 165.137 19.2045 164.898 19.2045C164.371 19.2045 164.211 18.8127 166.65 23.4929C168.75 27.523 169.339 28.1202 169.861 26.7509C170.218 25.8123 170.379 25.8059 172.805 26.6405C181.755 29.7198 190.598 21.8429 185.573 15.2664C183.934 13.1225 181.355 12.2304 175.723 11.8604C170.609 11.5247 168.971 10.4285 168.98 7.34414C168.994 2.78069 174.312 0.354765 179.049 2.7507C180.541 3.50489 182.734 5.62519 184.424 7.94519C185.435 9.3349 187.035 10.2722 186.686 9.27109C185.238 5.11027 181.434 -0.419847 181.044 1.06748C180.924 1.52561 180.853 1.52179 179.162 0.967947C177.096 0.290959 174.5 0.0599777 172.131 0.342003ZM214.364 0.351573C212.972 0.628494 211.94 1.26784 210.485 2.75644L209.336 3.93176L210.613 3.36452C214.929 1.44841 218.391 3.92602 216.487 7.56873C215.904 8.68343 216.014 8.68726 217.148 7.59106C221.374 3.50681 219.748 -0.719739 214.364 0.351573ZM221.47 1.06366C221.47 1.20148 221.706 1.86379 221.994 2.53567C222.371 3.41429 222.473 4.02811 222.354 4.7236C222.114 6.14585 223.35 6.1937 223.742 4.77783C223.881 4.27504 224.461 3.26051 225.031 2.52291C226.244 0.953907 226.27 0.846713 225.442 0.846713C225.024 0.846713 224.584 1.14979 224.12 1.75787L223.423 2.66967L223.149 1.82168C222.885 1.00814 221.47 0.368802 221.47 1.06366ZM227.723 1.16511C227.57 1.58751 226.834 5.14536 226.834 5.46439C226.834 5.95506 230.266 5.61753 230.362 5.11729C230.432 4.7504 230.259 4.67128 229.388 4.67128C227.911 4.67128 228.015 3.83924 229.516 3.65101C230.915 3.47618 231.141 2.63138 229.79 2.63138C228.412 2.63138 228.561 1.91866 229.961 1.81721C230.751 1.76042 231.067 1.61813 231.129 1.29272C231.235 0.733138 227.925 0.609353 227.723 1.16511ZM234.145 1.42033C233.181 2.93765 231.687 5.45865 231.687 5.56776C231.687 5.98442 233.204 5.63093 233.347 5.18109C233.466 4.80655 233.734 4.67128 234.357 4.67128C234.989 4.67128 235.238 4.8008 235.337 5.18109C235.462 5.65709 236.796 5.96783 236.796 5.52054C236.796 5.2985 236.294 2.16241 236.139 1.42033C236.048 0.981346 235.842 0.846713 235.265 0.846713C234.759 0.846713 234.388 1.03686 234.145 1.42033ZM239.22 1.16511C238.99 1.80126 238.336 4.80974 238.332 5.2449C238.325 6.18094 239.564 5.79108 239.75 4.79889C239.843 4.30758 240.065 3.90624 240.244 3.90624C240.424 3.90624 240.646 4.30758 240.738 4.79889C240.876 5.53075 241.019 5.69091 241.533 5.69091C242.227 5.69091 242.344 5.18683 241.913 4.05491C241.709 3.51957 241.754 3.35878 242.168 3.13673C242.947 2.72135 242.849 1.4114 242.016 1.09556C241.083 0.741432 239.357 0.784183 239.22 1.16511ZM245.027 1.24359C244.11 1.88421 244.267 2.97785 245.369 3.62613C246.46 4.2693 246.292 4.73636 245.008 4.6247C243.673 4.50857 243.456 5.57606 244.765 5.82107C247.31 6.29771 248.668 3.87625 246.487 2.7507C245.53 2.25684 245.769 1.78467 246.909 1.91739C247.752 2.01565 248.225 1.61367 247.894 1.07833C247.658 0.699319 245.64 0.815449 245.027 1.24359ZM58.9111 2.35829C63.8039 4.6298 66.699 10.6455 65.5458 16.145C64.2162 22.4886 58.4041 27.9058 55.6234 25.3944C53.8214 23.7667 56.79 21.7957 58.8043 23.2824C59.2192 23.5886 59.5784 23.7986 59.6021 23.7501C59.6264 23.7009 60.0393 23.2352 60.5194 22.7145L61.3933 21.7682L60.2644 21.2565C56.4404 19.5254 52.6247 22.7891 54.8934 25.8519L55.4956 26.6648L53.9946 26.5544C47.7671 26.0969 43.0699 18.4241 44.5772 11.1732C46.1479 3.61975 52.8082 -0.475997 58.9111 2.35829ZM241.266 2.37998C241.266 2.58863 241.008 2.79536 240.691 2.84067C240.069 2.92872 240.036 2.88342 240.276 2.25748C240.471 1.75149 241.266 1.85039 241.266 2.37998ZM235.245 3.46023C235.255 3.56551 235.036 3.65101 234.758 3.65101C234.306 3.65101 234.285 3.58019 234.554 2.98998C234.845 2.35319 235.162 2.56885 235.245 3.46023ZM17.2443 9.16645C18.1936 11.0085 18.891 12.6433 18.7939 12.8002C18.5912 13.1276 11.858 13.2105 11.6586 12.8883C11.4873 12.612 15.1565 5.41526 15.356 5.63731C15.4455 5.73685 16.295 7.32499 17.2443 9.16645ZM150.083 9.22005C151.485 11.9707 151.748 12.665 151.455 12.8494C150.979 13.1505 144.653 13.1524 144.467 12.8519C144.283 12.5559 147.973 5.41335 148.19 5.6456C148.278 5.74067 149.13 7.34924 150.083 9.22005ZM234.829 7.08763C231.811 7.93116 224.097 13.4983 224.874 14.2735C225.189 14.5881 228.218 12.4672 229.731 10.8726L231.377 9.13965L233.442 9.04586C241.005 8.70321 247.08 19.6824 242.12 24.7276C240.774 26.0962 240.957 26.1109 243.181 24.8144C246.985 22.5971 248.099 19.6448 246.762 15.3244C244.992 9.60353 239.468 5.79108 234.829 7.08763ZM211.891 8.84168C210.972 9.26663 209.166 10.6825 208.866 11.2134C208.747 11.4226 209.128 11.2784 209.711 10.8931C213.133 8.63239 216.146 10.285 223.001 18.1849C231.109 27.5287 235.608 29.499 240.093 25.6675C241.378 24.5693 241.317 24.3205 239.957 25.1226C239.135 25.6075 238.601 25.7064 236.796 25.7064C233.045 25.7064 230.825 24.0844 224.411 16.6593C218.052 9.29853 215.011 7.39965 211.891 8.84168ZM103.71 17.2527C103.71 26.7675 103.838 26.2877 101.227 26.5678C100.155 26.6826 99.7506 26.8313 99.7506 27.1089C99.7506 27.4381 100.602 27.4911 105.881 27.4911C111.009 27.4911 112.012 27.4317 112.012 27.1286C112.012 26.8919 111.506 26.666 110.553 26.4759C107.969 25.961 108.053 26.2105 108.053 18.9588V12.6726L106.028 10.8395C104.914 9.83068 103.938 9.00566 103.857 9.00566C103.776 9.00566 103.71 12.7166 103.71 17.2527ZM204.136 17.7867C200.012 22.1396 206.289 28.2357 214.474 27.8254C215.954 27.7514 217.055 27.5529 217.638 27.2562C219.615 26.2494 223.757 21.5915 223.462 20.7071C223.323 20.295 221.131 22.7158 220.844 23.5963C220.419 24.9075 219.531 25.1978 215.977 25.1883C209.94 25.1723 205.504 22.1881 205.504 18.1428C205.504 17.1844 205.492 16.3996 205.478 16.3996C205.463 16.3996 204.859 17.0242 204.136 17.7867ZM69.6837 23.2115C69.5833 25.4862 68.923 25.9878 67.1689 25.1213L66.061 24.5745L64.9615 25.268C63.6965 26.0656 63.6888 26.25 64.8925 26.8945C68.2134 28.6721 71.829 25.6202 70.5089 22.153C70.0793 21.0268 69.7623 21.4339 69.6837 23.2115Z" fill="#484848"/>
</svg>
