<svg width="138" height="38" viewBox="0 0 138 38" fill="none" xmlns="http://www.w3.org/2000/svg">
<path fill-rule="evenodd" clip-rule="evenodd" d="M30.6882 2.93526C30.6762 4.54329 30.9778 5.85881 31.3589 5.85881C31.74 5.85881 32.0517 5.39451 32.0517 4.8269C32.0517 4.25929 32.3635 3.79499 32.7442 3.79499C33.1253 3.79499 33.437 4.25929 33.437 4.8269C33.437 5.39451 33.7488 5.85881 34.1299 5.85881C34.511 5.85881 34.8126 4.54329 34.8005 2.93526C34.7803 0.215627 34.7078 0.10497 33.7616 1.34697C32.7547 2.66868 32.7341 2.66868 31.7271 1.34697C30.781 0.10497 30.7085 0.215627 30.6882 2.93526ZM40.3924 1.35471C38.702 3.37674 40.938 6.57924 43.3879 5.646C45.512 4.83657 44.373 0.355693 42.0431 0.355693C41.5942 0.355693 40.8515 0.805291 40.3924 1.35471ZM49.0242 1.04363C48.7889 1.42203 48.9264 1.73157 49.3297 1.73157C49.7335 1.73157 50.0635 2.66016 50.0635 3.79499C50.0635 4.9302 50.3753 5.85881 50.7564 5.85881C51.1371 5.85881 51.4488 4.9302 51.4488 3.79499C51.4488 2.66016 51.7606 1.73157 52.1417 1.73157C52.5228 1.73157 52.8345 1.42203 52.8345 1.04363C52.8345 0.665226 52.0735 0.355693 51.1433 0.355693C50.2135 0.355693 49.26 0.665226 49.0242 1.04363ZM57.6837 3.10744C57.6837 5.71758 57.7924 5.85881 59.8032 5.85881C60.9749 5.85881 61.7391 5.56475 61.5127 5.20105C61.2875 4.83889 60.6457 4.7174 60.0865 4.93059C59.5269 5.14379 59.0694 4.97547 59.0694 4.55644C59.0694 4.1378 59.537 3.79499 60.1087 3.79499C61.5478 3.79499 61.4164 2.59014 59.9353 2.20554C58.7806 1.90607 58.7806 1.88749 59.9353 1.81127C61.8311 1.68668 61.356 0.355693 59.4158 0.355693C57.8571 0.355693 57.6837 0.631178 57.6837 3.10744ZM66.5166 0.75035C64.8702 2.40596 66.0018 5.85881 68.1906 5.85881C69.3975 5.85881 70.1507 5.62665 69.8651 5.34266C69.5791 5.05905 68.9817 4.8269 68.5371 4.8269C68.0928 4.8269 67.573 3.79229 67.3824 2.52746C67.1919 1.26263 66.8022 0.463258 66.5166 0.75035ZM78.9863 0.75267C78.2436 1.49632 78.3422 5.85881 79.1017 5.85881C79.4512 5.85881 79.8951 5.47189 80.0883 4.99869C80.3541 4.34828 80.6117 4.38504 81.1475 5.15075C81.5368 5.70752 82.0726 5.94702 82.338 5.68353C82.6037 5.41966 82.4264 4.7321 81.9444 4.1556C81.2379 3.31019 81.2379 2.90431 81.9444 2.0589C83.1399 0.628854 82.3582 0.0295236 81.0244 1.35394C80.0583 2.3131 79.9317 2.3104 79.7298 1.32492C79.6067 0.72404 79.272 0.466739 78.9863 0.75267ZM87.4728 3.06682C87.4728 4.6021 87.7845 5.85881 88.1656 5.85881C88.5463 5.85881 88.8581 4.79362 88.8581 3.49165C88.8581 2.19006 88.5463 0.933744 88.1656 0.699659C87.7471 0.443134 87.4728 1.38064 87.4728 3.06682ZM93.7077 3.10744C93.7077 5.58371 93.8807 5.85881 95.4394 5.85881C96.3922 5.85881 97.1715 5.55895 97.1715 5.19254C97.1715 4.82613 96.7039 4.70425 96.1322 4.92208C94.8857 5.39721 94.7158 4.06196 95.9592 3.56091C96.6108 3.29819 96.5679 3.03161 95.7858 2.48219C94.8892 1.85267 94.9129 1.7513 95.9592 1.74201C96.626 1.73621 97.1715 1.42203 97.1715 1.04363C97.1715 0.665226 96.3922 0.355693 95.4394 0.355693C93.8807 0.355693 93.7077 0.631178 93.7077 3.10744ZM101.328 0.6157C101.328 1.52921 103.528 5.85881 103.992 5.85881C104.6 5.85881 106.314 0.949999 105.863 0.50195C105.714 0.354922 105.146 1.08078 104.6 2.11539L103.607 3.99696L103.147 2.17652C102.783 0.736804 101.328 -0.511774 101.328 0.6157ZM43.0107 3.27923C42.8891 4.13045 42.4776 4.8269 42.0965 4.8269C41.7158 4.8269 41.3043 4.13045 41.1827 3.27923C41.0303 2.21444 41.3152 1.73157 42.0965 1.73157C42.8778 1.73157 43.1631 2.21444 43.0107 3.27923ZM2.78014 16.3191C0.399195 20.8882 -0.30028 22.8386 0.254235 23.3625C0.797059 23.8756 1.2522 23.7185 1.8149 22.8235C3.46364 20.201 4.06413 19.7723 6.62238 19.3939C9.08477 19.0291 9.32131 19.1536 10.3875 21.3738C11.4696 23.6264 12.8545 24.4025 13.6144 23.1814C13.9858 22.5848 7.16599 9.98101 6.4782 9.99301C6.25531 9.99688 4.59137 12.8434 2.78014 16.3191ZM127.922 10.6601C125.495 11.6335 123.496 14.7463 123.496 17.551C123.496 24.4823 133.302 26.1924 136.578 19.8331C139.517 14.1264 133.96 8.23757 127.922 10.6601ZM23.0458 17.8455V23.7429H26.5093C29.1264 23.7429 29.9732 23.4906 29.9732 22.7109C29.9732 22.0269 29.2842 21.6794 27.9266 21.6794C25.8823 21.6794 25.88 21.674 25.675 17.0434C25.3294 9.21918 23.0458 9.91601 23.0458 17.8455ZM39.6719 17.2082C39.6719 20.0455 39.6555 22.5991 39.6353 22.8831C39.6154 23.1667 40.083 23.4991 40.6746 23.6214C41.4882 23.7897 41.7505 23.2445 41.7505 21.3858C41.7505 19.2225 41.9578 18.9277 43.4822 18.9277C44.5597 18.9277 45.2139 18.5381 45.2139 17.8962C45.2139 17.2543 44.5597 16.8643 43.4822 16.8643C40.9606 16.8643 41.0681 14.2843 43.6018 13.9868C46.9469 13.5936 46.3452 12.0495 42.847 12.0495H39.6719V17.2082ZM58.8512 12.5652C56.3709 16.831 53.5274 22.3975 53.5274 22.9868C53.5274 24.4172 55.3842 23.7405 56.1721 22.023C56.8151 20.622 57.4557 20.3036 59.6301 20.3036C61.7679 20.3036 62.4834 20.6456 63.2261 22.023C64.2066 23.8427 64.9559 24.1708 65.6363 23.0785C66.0716 22.3786 60.4535 12.0692 59.6298 12.0568C59.3667 12.0526 59.016 12.2816 58.8512 12.5652ZM72.6166 12.6759C72.1778 13.3805 77.2487 23.2329 78.2007 23.5258C78.9637 23.7599 84.7774 13.0419 84.1991 12.4673C83.2483 11.5233 82.5168 12.2344 80.7395 15.8323C79.7119 17.9132 78.689 19.6156 78.4669 19.6156C78.2444 19.6156 77.2219 17.9132 76.1939 15.8323C74.3932 12.1864 73.4427 11.348 72.6166 12.6759ZM93.7077 17.8962C93.7077 22.6347 93.9044 23.7429 94.7469 23.7429C95.589 23.7429 95.7858 22.6347 95.7858 17.8962C95.7858 13.1576 95.589 12.0495 94.7469 12.0495C93.9044 12.0495 93.7077 13.1576 93.7077 17.8962ZM104.792 13.081C104.792 13.7871 105.503 14.1125 107.043 14.1113L109.295 14.1098L109.065 18.9261C108.85 23.4206 108.931 23.7429 110.277 23.7429C111.601 23.7429 111.719 23.3474 111.719 18.9277V14.1129H113.798C115.183 14.1129 115.876 13.7689 115.876 13.081C115.876 12.2499 114.798 12.0495 110.334 12.0495C105.87 12.0495 104.792 12.2499 104.792 13.081ZM133.314 13.1878C136.367 15.9314 134.161 21.6794 130.055 21.6794C127.214 21.6794 125.952 20.1612 126.144 16.9734C126.397 12.7691 130.46 10.6237 133.314 13.1878ZM7.41032 17.4307C4.95027 17.9828 4.23676 17.3022 5.4627 15.5727L6.62199 13.9368L7.51163 15.5727C8.25514 16.9397 8.23878 17.2446 7.41032 17.4307ZM60.0892 18.1287C58.5893 18.4382 58.2456 18.0041 58.8181 16.5222C59.2674 15.3595 59.3426 15.3634 60.2548 16.5957C61.0918 17.7267 61.07 17.9263 60.0892 18.1287ZM44.6064 31.1511C44.1505 31.9969 43.1214 32.6849 42.3112 32.6849C40.8947 32.6849 40.8865 32.7329 42.0762 34.0379C42.7707 34.8002 43.1541 35.9799 42.9542 36.7394C42.6397 37.9342 42.7851 38.0034 44.2323 37.3488C45.4513 36.797 46.1348 36.8315 46.9254 37.483C47.824 38.2236 47.9853 38.1164 47.9853 36.7785C47.9853 35.9106 48.5013 34.6346 49.1318 33.9427C50.2135 32.7561 50.18 32.6849 48.5449 32.6849C47.4199 32.6849 46.5696 32.1467 46.1223 31.1511L45.4329 29.6178L44.6064 31.1511ZM59.9813 31.2401C59.7206 32.2291 59.046 32.6849 57.8419 32.6849C56.1375 32.6849 56.1211 32.7263 57.317 34.0379C58.0118 34.8002 58.3953 35.9799 58.195 36.7394C57.8805 37.9342 58.0258 38.0034 59.4735 37.3488C60.6924 36.797 61.3755 36.8315 62.1662 37.483C63.0648 38.2236 63.2261 38.1164 63.2261 36.7785C63.2261 35.9106 63.7421 34.6346 64.3726 33.9427C65.4559 32.7541 65.4177 32.6849 63.6797 32.6849C62.5403 32.6849 61.8404 32.3076 61.8404 31.6936C61.8404 30.0457 60.3889 29.6913 59.9813 31.2401ZM75.222 31.2401C74.9613 32.2291 74.2868 32.6849 73.0831 32.6849C71.423 32.6849 71.3887 32.7557 72.4709 33.9427C73.1014 34.6346 73.6173 35.9106 73.6173 36.7785C73.6173 38.1164 73.7786 38.2236 74.6772 37.483C75.4679 36.8315 76.151 36.797 77.3699 37.3488C78.8176 38.0034 78.963 37.9342 78.6485 36.7394C78.4482 35.9799 78.8316 34.8002 79.5264 34.0379C80.7235 32.7247 80.7056 32.6849 78.9205 32.6849C77.7811 32.6849 77.0812 32.3076 77.0812 31.6936C77.0812 30.0457 75.6296 29.6913 75.222 31.2401ZM90.6409 31.1504C90.2999 32.2171 89.6039 32.6849 88.3577 32.6849C86.665 32.6849 86.6291 32.7549 87.7117 33.9427C88.3422 34.6346 88.8581 35.9106 88.8581 36.7785C88.8581 38.1164 89.0194 38.2236 89.918 37.483C90.7087 36.8315 91.3922 36.797 92.6111 37.3488C94.0584 38.0034 94.2037 37.9342 93.8893 36.7394C93.6893 35.9799 94.0728 34.8002 94.7672 34.0379C95.9553 32.7344 95.9491 32.6849 94.5922 32.6849C93.8175 32.6849 92.7222 31.9942 92.1575 31.1504L91.1315 29.6159L90.6409 31.1504Z" fill="#484848"/>
</svg>
