<svg width="87" height="36" viewBox="0 0 87 36" fill="none" xmlns="http://www.w3.org/2000/svg">
<path fill-rule="evenodd" clip-rule="evenodd" d="M20.6486 5.9643C18.6145 11.0855 15.9083 17.944 14.3825 21.8447L13.9771 22.8814L14.6132 24.4563C14.9631 25.3225 15.407 26.4162 15.5994 26.8866C15.7919 27.3573 16.2768 28.5527 16.677 29.5434C17.0772 30.5338 17.6059 31.8409 17.8519 32.4477C18.0976 33.0545 18.3245 33.5502 18.3562 33.5497C18.3876 33.5491 18.8231 32.5259 19.3239 31.2757C19.8247 30.0257 21.1149 26.8147 22.1914 24.14C23.2679 21.4653 24.8809 17.4532 25.7759 15.2244C26.6711 12.9955 27.6844 10.4837 28.0278 9.64264C28.3711 8.80159 28.6357 8.05066 28.6158 7.97405C28.5854 7.85748 27.7648 6.65378 25.8844 3.96722C25.7108 3.71948 25.4027 3.27388 25.1996 2.97654C24.3044 1.66729 23.2545 0.175066 23.1511 0.0653882C23.0598 -0.0316134 22.5894 1.07701 20.6486 5.9643ZM5.41916 6.96049C5.25405 7.19638 3.99389 9.00524 2.61918 10.9803L0.119629 14.571L0.407745 15.258C1.00913 16.6921 4.5652 25.2762 5.05723 26.4815C5.34016 27.1749 6.30045 29.4963 7.19104 31.6402C8.08163 33.7842 8.81012 35.5773 8.81012 35.6253C8.81012 35.6799 10.4183 35.7121 13.1488 35.7121H17.4875L17.4246 35.5096C17.3601 35.3018 16.1434 32.2622 15.2884 30.1736C15.0248 29.5299 14.5487 28.3546 14.2302 27.562C13.4178 25.541 12.5947 23.5045 11.846 21.6634C10.7873 19.0598 9.22343 15.1739 6.36004 8.03192C5.69251 6.36608 5.77206 6.45674 5.41916 6.96049ZM39.7413 20.991L38.3789 22.4615V23.6833C38.3789 24.3555 38.404 24.9055 38.4344 24.9055C38.465 24.9055 38.8969 24.5542 39.3947 24.1248C39.8925 23.6955 40.329 23.3193 40.3651 23.2887C40.4384 23.2267 41.1679 19.6911 41.1286 19.5872C41.1149 19.5506 40.4906 20.1822 39.7413 20.991ZM26.5872 22.5455C26.5872 22.5849 27.5554 25.2698 28.7385 28.5117C29.9219 31.7538 30.9773 34.6495 31.0839 34.9466L31.2777 35.487L31.7465 35.5142C32.0185 35.5299 32.215 35.5035 32.215 35.4511C32.215 35.4013 33.2653 32.532 34.5486 29.0749C35.8321 25.6176 36.902 22.718 36.9263 22.6315C37.0129 22.3231 35.9873 22.4102 35.867 22.7216C35.7607 22.9966 34.3543 26.9335 32.7888 31.3377C32.2268 32.9192 31.7547 34.2251 31.7397 34.2403C31.7249 34.2551 30.7723 31.6141 29.6231 28.3706L27.5336 22.4739H27.0604C26.8001 22.4739 26.5872 22.5061 26.5872 22.5455ZM43.9217 25.7187C42.2983 26.0621 41.4082 27.4102 41.8961 28.7859C42.196 29.6316 42.7895 30.0557 44.8489 30.8956C47.059 31.797 47.676 32.4063 47.4463 33.4604C47.1637 34.7572 44.6275 35.2781 42.4486 34.4866C41.4137 34.1107 41.5055 34.0942 41.5055 34.6561C41.5055 35.2354 41.6154 35.3087 42.8715 35.5705C46.0301 36.228 48.3711 35.1397 48.3782 33.0104C48.3829 31.6686 47.7282 31.0657 45.1969 30.0794C43.4168 29.3858 42.9491 29.0493 42.755 28.3234C42.3527 26.8161 44.5245 26.0023 46.9786 26.7411C47.4092 26.8706 47.7968 26.9767 47.8397 26.9767C47.9337 26.9767 48.2328 26.2539 48.1666 26.1869C47.8036 25.821 44.9339 25.5043 43.9217 25.7187ZM53.2994 25.7653C49.6397 26.7935 49.1239 33.6412 52.5827 35.2819C53.6903 35.8074 55.618 35.8598 57.0269 35.4029L57.7638 35.164V34.7079C57.7638 34.3094 57.7442 34.2601 57.6075 34.3158C54.0741 35.7606 51.2613 34.3579 51.2443 31.1428L51.2427 30.8513L54.6993 30.8276L58.1558 30.8041L58.1345 29.9036C58.0604 26.7648 56.0045 25.0053 53.2994 25.7653ZM71.5374 25.7664C68.2445 26.6598 67.3769 32.8296 70.2521 34.9052C71.8621 36.0676 76.077 35.9477 76.077 34.7399C76.077 34.2612 76.0772 34.2612 75.202 34.5445C71.9592 35.5928 69.8781 34.4133 69.5156 31.3219L69.4601 30.8491H72.9473H76.4342L76.4312 30.1962C76.4151 26.8651 74.3568 25.0017 71.5374 25.7664ZM82.0175 25.754C81.2877 25.9386 80.9421 26.1255 80.4553 26.5984C80.2016 26.845 79.9799 27.0004 79.9627 26.9442C79.9452 26.8877 79.9053 26.6086 79.8736 26.3239L79.8159 25.8061H79.4204H79.0248V30.6691V35.5322H79.463H79.9015L79.9389 32.2674C79.9816 28.5701 80.0382 28.2044 80.6855 27.4422C81.7248 26.2181 84.3082 26.1062 85.2021 27.2468C85.6772 27.8533 85.7247 28.292 85.7247 32.0839V35.5322H86.1758H86.6271L86.6003 31.727C86.5705 27.5281 86.5626 27.4656 85.9475 26.6526C85.2795 25.77 83.5338 25.3707 82.0175 25.754ZM38.2898 30.6691V35.5322H38.7364H39.1831V30.6691V25.8061H38.7364H38.2898V30.6691ZM59.1932 25.8557C59.1932 25.8912 62.3994 34.321 62.8307 35.4194C62.8701 35.5197 63.8386 35.5947 63.8386 35.4974C63.8386 35.4784 64.6625 33.3086 65.6698 30.6755C67.8088 25.0835 67.6079 25.8061 67.0248 25.8061C66.5664 25.8061 66.5448 25.8168 66.4538 26.0987C66.4018 26.2597 65.8303 27.7894 65.1838 29.4982C64.5373 31.207 63.8648 33.0308 63.6894 33.5508C63.5139 34.0708 63.3578 34.5106 63.3422 34.528C63.3269 34.5453 63.2673 34.3833 63.2102 34.1678C63.1528 33.9523 62.6039 32.4386 61.9902 30.8041C61.3768 29.1694 60.7073 27.3771 60.5029 26.8205L60.1314 25.8088L59.6623 25.8075C59.4042 25.8066 59.1932 25.8284 59.1932 25.8557ZM55.2009 26.5325C56.3014 26.8147 57.1387 28.0807 57.1387 29.4627V29.9485H54.2239H51.3091L51.3673 29.5065C51.6514 27.3463 53.3216 26.0505 55.2009 26.5325ZM73.5411 26.5694C74.5989 26.8861 75.4411 28.2675 75.4502 29.701L75.4515 29.9485H72.4957H69.54L69.5987 29.5657C69.9525 27.257 71.6155 25.9929 73.5411 26.5694Z" fill="#484848"/>
</svg>
