<svg width="98" height="39" viewBox="0 0 98 39" fill="none" xmlns="http://www.w3.org/2000/svg">
<path fill-rule="evenodd" clip-rule="evenodd" d="M10.4412 0.749628C8.2481 1.70803 8.04798 5.14702 10.1274 6.14158L10.6861 6.40879V8.53868V10.6688L9.61727 11.1244C5.47735 12.889 1.16803 18.2113 1.16803 21.5598C1.16803 21.8872 2.94204 22.1165 3.02795 21.8005C4.29814 17.1187 7.09721 13.9845 11.2911 12.5485L12.6218 12.0927L12.622 8.43287V4.77303L11.8895 4.69027C10.6327 4.54805 10.0867 3.55227 10.8475 2.78924C11.2877 2.34777 18.9069 2.28467 19.523 2.71764C20.4 3.3336 19.682 4.7308 18.4885 4.7308H17.9458V8.42656V12.1223L19.2767 12.5601C23.0943 13.8163 26.0197 16.9719 27.2066 21.1137L27.4735 22.0449L28.3962 21.9405C28.9039 21.8833 29.3293 21.8282 29.3417 21.8185C29.3543 21.8085 29.2379 21.3273 29.0835 20.7487C27.9471 16.4947 25.0604 13.0623 21.1228 11.2836L19.7203 10.6501V8.61149V6.57285L20.4573 6.05203C22.3582 4.70823 22.1968 1.85438 20.1641 0.867335C19.2881 0.442133 11.3647 0.346026 10.4412 0.749628ZM44.1927 10.9943C44.1511 11.0644 42.5755 14.7988 40.6916 19.2925C38.8078 23.7865 37.1983 27.5934 37.1153 27.7524C36.9747 28.022 37.0698 28.0385 38.5183 27.9951L40.0721 27.9487L40.9319 25.8453L41.7917 23.7421H45.4486H49.1055L49.9653 25.8453L50.8251 27.9487L52.4517 27.9948L54.0781 28.0409L53.674 27.1049C53.4516 26.5901 51.8323 22.747 50.0752 18.5644L46.8802 10.9601L45.5745 10.9132C44.8562 10.8875 44.2346 10.9239 44.1927 10.9943ZM56.6638 19.4544V28.0295H61.9875H67.3112V26.6544V25.2791H63.4394H59.5676V18.079V10.8792H58.1157H56.6638V19.4544ZM70.0024 10.9846C69.9419 11.0452 69.8925 14.9053 69.8925 19.5621V28.0295H71.425H72.9575V24.7129V21.3959H75.9422H78.9266V20.0206V18.6455H75.9422H72.9575V16.2217V13.7981L76.3052 13.7544L79.6526 13.7105V12.3354V10.9601L74.8825 10.9173C72.2589 10.8938 70.0629 10.9241 70.0024 10.9846ZM87.0202 11.1559C86.9364 11.3151 85.3272 15.1223 83.4438 19.6163C81.5607 24.11 79.9873 27.8414 79.9476 27.9082C79.9079 27.9749 80.5615 28.0295 81.3998 28.0295H82.924L83.8037 25.8858L84.6833 23.7421L88.3194 23.6986L91.9557 23.6552L92.8363 25.8018L93.7169 27.9487L95.2753 27.9951C96.1324 28.0205 96.8337 27.9803 96.8337 27.9055C96.8337 27.8308 95.2436 23.9874 93.3 19.3648L89.7662 10.9601L88.4694 10.9132C87.3585 10.8732 87.1506 10.9079 87.0202 11.1559ZM14.3532 14.641C11.6701 17.8354 10.4446 20.904 10.4444 24.4296C10.4441 25.6086 10.4245 26.5734 10.4006 26.5734C10.3766 26.5734 10.0567 26.3833 9.68987 26.1511C7.9536 25.0519 4.84285 24.0906 2.37047 23.8894L0.955322 23.7741L1.06155 25.1334C1.4981 30.7096 4.19118 35.1099 8.47122 37.2398C18.2064 42.0847 28.5785 36.1118 29.3494 25.2162L29.4515 23.7741L28.0362 23.8894C27.2577 23.9527 25.9209 24.1804 25.066 24.3954C23.7268 24.7323 23.0089 25.0378 20.0431 26.5333C19.9985 26.5556 19.9864 25.787 20.0162 24.8252C20.1232 21.3447 18.6468 17.5623 16.0072 14.5551C15.1796 13.612 15.2195 13.6098 14.3532 14.641ZM46.758 17.9603L47.9249 20.8297L46.7362 20.8768C46.0826 20.9028 44.969 20.9028 44.2617 20.8768L42.9757 20.8297L44.1946 17.871C44.8649 16.244 45.4535 14.9526 45.5023 15.0019C45.5512 15.0509 46.1165 16.3823 46.758 17.9603ZM89.6394 17.947C90.2246 19.3869 90.7035 20.6429 90.7035 20.738C90.7035 20.8525 89.8855 20.9105 88.2662 20.9105C86.3816 20.9105 85.8472 20.8647 85.909 20.7084C85.9528 20.597 86.4404 19.4138 86.9923 18.079C87.5443 16.7442 88.0658 15.4701 88.151 15.2477C88.3467 14.7371 88.3029 14.6578 89.6394 17.947ZM16.1553 18.0196C18.9519 22.5771 18.7267 28.0397 15.5847 31.8602L15.2089 32.3172L14.8844 31.9126C11.6144 27.8368 11.5319 22.0886 14.6748 17.3252C15.219 16.5003 15.2246 16.503 16.1553 18.0196ZM4.93215 26.2625C9.54322 27.4388 12.3413 30.1589 13.6696 34.7561C14.3907 37.2524 14.2649 37.3272 11.1174 36.2744C7.07301 34.9213 4.55102 32.1386 3.43424 27.7968C2.89074 25.6836 2.84525 25.73 4.93215 26.2625ZM27.3027 26.3127C27.3027 26.9073 26.5339 29.4532 26.0272 30.5375C24.4864 33.8331 21.5799 35.9474 17.3752 36.8316C16.1132 37.0969 16.1125 37.0944 16.7387 34.8837C18.0827 30.1398 20.7717 27.5123 25.5742 26.2498C27.142 25.838 27.3027 25.8438 27.3027 26.3127ZM38.3233 32.2281C36.7985 33.1608 37.1731 34.7197 39.1756 35.7751C40.1249 36.2756 40.2972 36.4326 40.3434 36.8396C40.4438 37.724 39.624 37.981 38.5135 37.4133C37.6087 36.9505 36.9783 37.449 37.6123 38.1259C38.8712 39.4697 41.6605 38.6843 41.6605 36.9862C41.6605 35.9996 41.2811 35.5252 40.0472 34.9679C39.1189 34.5488 38.7567 34.2156 38.7567 33.7807C38.7567 33.064 39.7547 32.7769 40.4784 33.2853C40.8129 33.52 41.338 33.0987 41.338 32.5956C41.338 31.9961 39.1407 31.7284 38.3233 32.2281ZM53.6445 32.1068C53.5175 32.2655 51.4417 37.1049 50.8999 38.5059C50.8462 38.6443 51.0015 38.7081 51.3916 38.7081C51.9259 38.7081 51.9874 38.6523 52.368 37.8184L52.7741 36.9284H54.1355H55.4969L55.8572 37.8184C56.2067 38.6817 56.2359 38.7081 56.8426 38.7081H57.4679L57.1947 38.0206C54.9933 32.4774 54.2882 31.303 53.6445 32.1068ZM59.0432 32.0214L58.4383 32.0939V35.4011V38.7081H59.0837H59.729V37.4946C59.729 36.3091 59.7382 36.2812 60.1312 36.2812C60.4446 36.2812 60.7309 36.5491 61.428 37.4946C62.3118 38.6931 62.3319 38.7081 63.0513 38.7081H63.7797L62.7377 37.3701L61.6959 36.0319L62.2614 35.5499C64.2987 33.8125 62.3074 31.6292 59.0432 32.0214ZM73.6186 32.2665C73.5388 32.4723 72.9217 33.9503 72.2475 35.5506C70.8222 38.9343 70.8709 38.7081 71.5676 38.7081C72.0781 38.7081 72.137 38.6506 72.4736 37.8184L72.8339 36.9284H74.1767C75.6305 36.9284 75.6165 36.9204 76.0429 37.9778C76.2822 38.5715 76.3616 38.6317 76.967 38.6768L77.6293 38.7266L77.1275 37.5444C76.8514 36.8942 76.2125 35.3793 75.7077 34.178C74.8213 32.0685 74.7722 31.992 74.2768 31.943C73.8652 31.9022 73.7353 31.966 73.6186 32.2665ZM79.8958 32.1704C77.6463 33.1487 77.1969 36.6445 79.1304 38.1235C80.1995 38.9416 81.9643 39.0285 83.2166 38.3249L83.847 37.9708L83.8937 36.5598L83.9404 35.1487H82.5628H81.1851V35.715V36.2812H82.0021H82.8188L82.7684 36.8013C82.6627 37.888 80.7991 38.0298 79.7995 37.0272C77.9425 35.1648 80.1373 32.0752 82.4614 33.2805C82.9069 33.5115 83.2824 33.1863 83.2824 32.5699C83.2824 32.0267 80.878 31.7432 79.8958 32.1704ZM85.9039 32.0299L85.3797 32.0949V35.4016V38.7081H85.9443H86.5088V37.4946V36.2812L86.9526 36.2858C87.3166 36.2894 87.554 36.5076 88.2746 37.4992C89.139 38.6884 89.1649 38.7081 89.8674 38.7081C90.4116 38.7081 90.5457 38.6601 90.4305 38.5059C90.3475 38.3948 89.8889 37.8021 89.4112 37.1893L88.543 36.0749L88.9573 35.7332C89.5373 35.2543 89.7355 34.8002 89.7355 33.9484C89.7355 32.3888 88.3983 31.7192 85.9039 32.0299ZM92.6229 32.3633C89.3021 34.103 91.0756 39.3648 94.7923 38.8003C99.0244 38.1574 98.608 31.9126 94.3333 31.9126C93.7162 31.9126 93.2465 32.0364 92.6229 32.3633ZM43.1125 35.3914V38.7081H43.6729H44.2331L44.2779 36.3489L44.3224 33.9896L45.2904 35.3761C46.473 37.0704 46.3863 37.0697 47.5578 35.3985L48.5168 34.0302L48.5616 36.3693L48.6061 38.7081H49.2471H49.8881V35.3914V32.0745H49.2604C48.6513 32.0745 48.6034 32.1175 47.6384 33.5307C46.433 35.2958 46.6191 35.2956 45.3605 33.5334C44.3718 32.1488 44.2936 32.0796 43.7174 32.0772L43.1125 32.0745V35.3914ZM63.6008 32.5599V33.0453H64.6494H65.6979V35.8768V38.7081H66.3433H66.9887V35.8768V33.0453H68.0372H69.0857V32.5599V32.0745H66.3433H63.6008V32.5599ZM61.4227 33.3688C61.9435 33.8023 61.6877 34.7012 60.9654 34.9767C59.8967 35.3842 59.729 35.2621 59.729 34.076V33.0033L60.4548 33.0853C60.854 33.1305 61.2896 33.2579 61.4227 33.3688ZM88.3211 33.5372C88.8806 34.2301 88.3692 34.9806 87.2515 35.1068L86.5088 35.1907V34.0969V33.0033L87.2689 33.0892C87.7909 33.1482 88.1205 33.2885 88.3211 33.5372ZM95.397 33.2958C96.8855 34.0678 96.8778 36.6518 95.3842 37.4405C93.8396 38.2565 92.1554 37.1944 92.1554 35.4048C92.1554 33.5739 93.8311 32.4837 95.397 33.2958ZM54.9655 35.6201C55.065 35.9348 55.0112 35.9576 54.1742 35.9576C53.1165 35.9576 53.1 35.9093 53.6973 34.5621L54.1188 33.6115L54.4886 34.4469C54.6921 34.9063 54.9067 35.4342 54.9655 35.6201ZM74.6926 34.6291C75.2008 35.9433 75.1949 35.9576 74.1503 35.9576C73.3532 35.9576 73.2593 35.9241 73.3592 35.6744C73.4219 35.5188 73.6211 35.0092 73.8023 34.542C74.2139 33.4805 74.25 33.4841 74.6926 34.6291Z" fill="#484848"/>
</svg>
