<svg width="205" height="30" viewBox="0 0 205 30" fill="none" xmlns="http://www.w3.org/2000/svg">
<path fill-rule="evenodd" clip-rule="evenodd" d="M185.751 3.44051L182.742 6.52287L185.979 9.76036L189.217 12.9979L192.455 9.76036L195.693 6.52287L192.683 3.44051C191.027 1.74507 189.468 0.358154 189.217 0.358154C188.967 0.358154 187.407 1.74507 185.751 3.44051ZM4.74205 11.3117C3.10487 15.206 1.28688 19.5148 0.703046 20.8866C-0.739913 24.274 1.37495 24.4419 3.11478 21.0785C4.19438 18.9905 4.65923 18.7759 8.10273 18.7759C11.5462 18.7759 12.0117 18.9905 13.0913 21.0785C14.095 23.0195 17.1763 24.586 16.4169 22.7687C12.2916 12.9028 8.39902 4.22145 8.10273 4.22612C7.89159 4.22903 6.37923 7.41754 4.74205 11.3117ZM144.13 5.36691C143.181 6.03646 142.403 7.2554 142.403 8.076C142.403 8.89602 141.886 9.56732 141.253 9.56732C140.55 9.56732 140.101 10.2829 140.101 11.4033C140.101 12.4135 140.619 13.4388 141.253 13.682C142.1 14.0068 142.403 15.3453 142.403 18.752C142.403 23.1775 142.488 23.3805 144.322 23.3805C146.172 23.3805 146.241 23.2014 146.241 18.3921V13.4044H148.543H150.845V18.3921C150.845 23.1758 150.923 23.3805 152.728 23.3805C154.5 23.3805 154.623 23.1017 154.838 18.584C155.054 14.0407 155.167 13.7881 156.985 13.7881C158.803 13.7881 158.916 14.0407 159.132 18.584C159.43 24.845 163.061 26.2155 163.197 20.1191C163.237 18.3251 163.323 15.3034 163.389 13.4044L163.508 9.95108L159.074 9.72012C154.837 9.49966 153.393 8.03226 157.414 8.03226C158.901 8.03226 159.287 7.63625 159.287 6.11403C159.287 4.45766 158.943 4.19521 156.772 4.19521C153.698 4.19521 150.845 6.06329 150.845 8.076C150.845 9.22146 150.312 9.56732 148.543 9.56732C147.277 9.56732 146.241 9.22204 146.241 8.79979C146.241 8.37753 146.956 8.03226 147.829 8.03226C149.037 8.03226 149.359 7.61934 149.172 6.30591C148.867 4.15905 146.475 3.71405 144.13 5.36691ZM74.1021 7.26473C74.1021 8.53092 73.7568 9.56732 73.3345 9.56732C72.9128 9.56732 72.5675 10.0852 72.5675 10.718C72.5675 11.3514 72.9128 11.8693 73.3345 11.8693C73.7784 11.8693 74.1021 14.2996 74.1021 17.6252C74.1021 22.2292 74.3324 23.3805 75.2534 23.3805C76.1743 23.3805 76.4047 22.2292 76.4047 17.6252C76.4047 12.3808 76.5406 11.8693 77.9392 11.8693C78.7832 11.8693 79.4744 11.492 79.4744 11.03C79.4744 10.5687 78.7832 10.01 77.9392 9.78953C76.8521 9.50549 76.4047 8.74263 76.4047 7.1755C76.4047 5.72035 76.0104 4.96273 75.2534 4.96273C74.4858 4.96273 74.1021 5.73026 74.1021 7.26473ZM81.1419 6.23592C81.2912 7.01278 81.9269 7.6485 82.5545 7.6485C84.1993 7.6485 83.9619 5.41882 82.2821 5.09513C81.2568 4.898 80.9441 5.21061 81.1419 6.23592ZM98.6598 6.88097C98.6598 8.56242 98.9928 8.79979 101.346 8.79979H104.032V16.0901C104.032 23.3548 104.038 23.3805 105.95 23.3805C107.862 23.3805 107.869 23.3548 107.869 16.0901V8.79979H110.555C112.909 8.79979 113.241 8.56242 113.241 6.88097C113.241 4.96973 113.216 4.96273 105.95 4.96273C98.6854 4.96273 98.6598 4.96973 98.6598 6.88097ZM194.193 11.8821L191.184 14.9639L194.421 18.202L197.659 21.4395L200.896 18.202L204.135 14.9639L201.124 11.8821C199.469 10.1867 197.91 8.79979 197.659 8.79979C197.408 8.79979 195.848 10.1867 194.193 11.8821ZM19.9946 11.4196C14.6235 16.7906 19.1652 25.3798 26.5223 23.7637C27.8451 23.4732 29.1195 22.7354 29.354 22.1236C29.9408 20.595 28.9971 19.8304 27.89 20.9373C25.4357 23.3916 19.6143 20.2993 19.6143 16.541C19.6143 12.7477 24.2815 10.6165 28.1064 12.6637C29.2298 13.265 29.5908 13.209 29.5908 12.4333C29.5908 9.11298 22.9977 8.41602 19.9946 11.4196ZM33.3691 11.8104C28.1933 16.986 32.7263 25.1704 40.0111 23.8033C48.3201 22.2449 46.8999 9.56732 38.4165 9.56732C36.3407 9.56732 35.0302 10.1494 33.3691 11.8104ZM48.0092 15.203C48.0092 23.5665 53.6545 27.2059 58.1782 21.7585C59.988 19.5778 60.1461 9.56732 58.3695 9.56732C57.466 9.56732 57.2187 10.627 57.2187 14.5003C57.2187 24.6484 50.6414 25.0864 50.1608 14.9703C49.8091 7.56743 48.0092 7.76223 48.0092 15.203ZM63.0296 10.7723C61.0268 12.7756 61.8614 15.0876 65.2769 16.9994C70.4515 19.8957 67.9237 23.181 62.3986 20.7402C61.456 20.3238 61.0559 20.4865 61.0559 21.2867C61.0559 22.8194 65.1661 24.4384 67.5417 23.8418C72.0414 22.7127 71.8122 18.0614 67.1392 15.6778C63.2093 13.6732 63.0372 11.5742 66.8388 12.018C68.9805 12.2682 69.5043 12.0839 69.3264 11.1426C69.0027 9.42967 64.6295 9.17247 63.0296 10.7723ZM81.5204 10.0788C80.3731 11.2266 80.9576 23.3805 82.1602 23.3805C83.0981 23.3805 83.3116 22.1015 83.3116 16.4739C83.3116 10.1395 82.9062 8.69306 81.5204 10.0788ZM87.8568 11.8104C82.6292 17.0379 87.8813 25.7006 95.0349 23.6488C96.4714 23.237 97.6128 22.347 97.7732 21.5147C97.9914 20.3833 97.7534 20.2124 96.6271 20.6912C93.3394 22.0892 91.1347 21.9947 89.5267 20.3868C85.0205 15.8808 90.6383 9.57606 96.4084 12.6637C97.5691 13.2848 97.8928 13.2072 97.8928 12.3073C97.8928 8.97476 91.032 8.63532 87.8568 11.8104ZM113.753 10.0788C113.471 10.3599 113.241 13.4679 113.241 16.9854V23.3805H115.544C117.812 23.3805 117.846 23.321 117.846 19.313C117.846 15.059 118.749 13.4044 121.069 13.4044C122.031 13.4044 122.451 12.8217 122.451 11.4855C122.451 9.38535 120.42 8.83536 118.767 10.4882C118.05 11.2044 117.846 11.2044 117.846 10.4882C117.846 9.52066 114.633 9.1993 113.753 10.0788ZM125.461 11.8104C121.271 16.0003 123.603 23.6721 129.023 23.5251C130.262 23.4913 132.744 23.4429 134.538 23.4166L137.799 23.3694V17.2356C137.799 13.8622 137.886 10.8428 137.991 10.5261C138.097 10.21 137.233 9.84143 136.072 9.70787C134.753 9.55623 133.962 9.82977 133.962 10.4369C133.962 11.1928 133.757 11.2044 133.041 10.4882C131.369 8.81553 127.84 9.43142 125.461 11.8104ZM167.496 11.4132C161.98 16.5252 166.85 25.2036 174.436 23.7806C176.57 23.3799 176.938 22.9868 176.938 21.11C176.938 18.9829 176.861 18.9386 174.634 19.779C171.302 21.0365 168.509 18.3571 169.921 15.2579C170.763 13.4102 171.156 13.2498 173.941 13.6237C176.917 14.0226 177.019 13.9643 176.791 11.9941C176.441 8.96717 170.534 8.59799 167.496 11.4132ZM9.48445 12.445C9.90439 13.6056 10.4637 15.0829 10.7274 15.7285C11.1193 16.6874 10.6603 16.8489 8.21005 16.6156L5.21331 16.3298L6.39089 13.332C7.78369 9.78603 8.4521 9.59414 9.48445 12.445ZM42.0012 13.1396C45.0626 15.9099 42.6188 21.8454 38.4165 21.8454C34.2819 21.8454 31.9034 16.3607 34.6983 13.2726C36.2807 11.524 40.1389 11.4535 42.0012 13.1396ZM133.041 14.3253C135.591 16.8752 132.59 21.2733 129.448 19.5918C127.391 18.4907 126.994 16.9026 128.307 15.0269C129.57 13.2241 131.634 12.9185 133.041 14.3253ZM185.751 20.3232L182.742 23.4056L185.979 26.643L189.217 29.8805L192.455 26.643L195.693 23.4056L192.683 20.3232C191.027 18.6283 189.468 17.2414 189.217 17.2414C188.967 17.2414 187.407 18.6283 185.751 20.3232Z" fill="#484848"/>
</svg>
