<svg width="113" height="44" viewBox="0 0 113 44" fill="none" xmlns="http://www.w3.org/2000/svg">
<path id="Logo" fill-rule="evenodd" clip-rule="evenodd" d="M39.5168 8.65357V17.3071H33.4206H27.3243L26.808 16.7463C22.2572 11.8028 14.1222 15.048 14.1222 21.8069C14.1222 28.546 22.2342 31.7717 26.7782 26.8401L27.2115 26.3696H33.364H39.5165L39.5323 35.0075L39.5481 43.6454L44.0029 43.6614L48.458 43.6778V21.8389V0H43.9874H39.5168V8.65357ZM19.6483 0.442988C6.16422 1.74101 -2.72787 15.1137 1.24563 28.1183C5.14503 40.8797 19.4494 46.9985 31.0989 40.8881C32.4758 40.1655 34.0267 39.1419 33.9701 38.992C33.9537 38.9492 32.7612 37.2938 31.3201 35.3135C28.7589 31.7936 28.6972 31.715 28.5668 31.8096C21.0678 37.2586 10.4811 32.545 9.40292 23.2774C8.20329 12.9663 19.544 5.82108 28.0787 11.5107C28.3956 11.7218 28.6749 11.8936 28.6996 11.8922C28.7541 11.889 33.9526 4.73761 33.9777 4.63121C34.0137 4.47856 32.1517 3.2866 30.8176 2.60855C27.4893 0.916574 23.2558 0.0956215 19.6483 0.442988ZM65.129 4.00602C58.3051 4.88504 55.3333 12.8355 59.9562 17.8447C61.0454 19.0248 62.5061 19.8816 64.2258 20.3493L64.9427 20.544L68.9186 20.5652L72.8945 20.5864L73.2335 20.407C74.4815 19.746 74.4362 17.9494 73.157 17.3635L72.828 17.2129L68.9787 17.1781C64.6247 17.1392 64.872 17.166 63.7465 16.6114C60.2667 14.8957 60.2214 9.77286 63.6707 7.96474C64.6978 7.42613 64.7986 7.41257 68.0473 7.3698L70.9035 7.3319L71.1961 7.1577C72.3436 6.47374 72.3131 4.75847 71.1426 4.1524L70.8414 3.99663L68.0782 3.98933C66.5585 3.98515 65.2316 3.9928 65.129 4.00602ZM76.0879 11.5685C76.0879 17.1301 76.1071 19.2338 76.1593 19.3903C76.6317 20.8083 78.4783 20.9581 79.2422 19.641L79.4096 19.3524L79.4265 13.3248L79.4433 7.29713L83.5241 7.31452L87.6053 7.3319L87.9059 7.51098C88.8074 8.0482 89.0101 9.20852 88.3405 10.0017C87.8839 10.5423 87.9093 10.5375 85.308 10.5733C82.8068 10.6074 82.9001 10.5942 82.3756 10.9919C81.8878 11.3619 81.6823 12.1248 81.893 12.783C82.0415 13.2469 89.3607 20.7286 89.8931 20.9609C91.0365 21.4592 92.3514 20.5224 92.2104 19.3096C92.1445 18.7442 91.9922 18.5572 89.6976 16.2237C88.4822 14.9872 87.5 13.9649 87.5155 13.9517C87.5309 13.9385 87.8078 13.8662 88.1312 13.791C93.1068 12.6342 93.3325 5.65418 88.4438 4.14336L87.9779 3.99941L82.0329 3.98029L76.0879 3.96081V11.5685ZM96.5465 4.00602C95.9623 4.14754 95.5867 4.44275 95.3575 4.94032L95.2127 5.25501L95.2121 12.3073L95.2114 19.3593L95.3716 19.6848C95.9805 20.9234 97.684 20.8914 98.319 19.6299C98.436 19.3976 98.4401 19.2272 98.4401 14.7608C98.4401 12.2152 98.461 10.1345 98.4868 10.1373C98.5121 10.1397 99.5186 11.284 100.723 12.6808C103.205 15.5595 103.154 15.515 103.966 15.5115C104.702 15.5081 104.674 15.5317 107.359 12.6071L109.772 9.9801L109.802 14.7396L109.834 19.4991L110.021 19.77C110.76 20.835 112.152 20.8163 112.813 19.7328L113 19.4254V12.3404V5.25501L112.866 5.00326C112.562 4.43336 112.01 4.09468 111.383 4.09225C110.662 4.08947 110.723 4.03453 107.196 7.89555C105.443 9.81528 103.984 11.3713 103.956 11.3532C103.927 11.3351 102.538 9.7433 100.87 7.81557C98.437 5.0043 97.7828 4.28419 97.5643 4.17535C97.2864 4.03731 96.7709 3.95177 96.5465 4.00602ZM22.6452 19.0836C24.524 19.9887 24.947 22.3542 23.498 23.8549C21.7155 25.7003 18.5269 24.3678 18.5314 21.7798C18.5351 19.6222 20.7498 18.1709 22.6452 19.0836ZM58.9507 23.0893C58.6266 23.1971 58.3981 23.3542 58.1497 23.6404C57.6811 24.1797 57.7045 23.7499 57.7233 31.504L57.7405 38.4217L57.877 38.6808C58.5888 40.0296 60.3445 40.0254 60.9761 38.6735L61.1229 38.3588L61.1236 35.6995L61.1243 33.0402L65.9516 33.0562L70.7793 33.0722L70.8102 35.8101C70.8349 37.9892 70.8589 38.5796 70.9278 38.7051C71.6335 39.9871 73.2389 40.0243 73.9635 38.775L74.1319 38.4847V31.3732V24.2614L73.9669 23.977C73.2365 22.7176 71.593 22.7252 70.9711 23.9909L70.8102 24.3177V26.9798V29.6423H65.9671H61.1243V27.105C61.1243 24.2246 61.1126 24.1342 60.6824 23.6387C60.2574 23.1494 59.4962 22.9078 58.9507 23.0893ZM77.2018 23.1171C76.6986 23.26 76.3685 23.5649 76.1188 24.1182L75.9562 24.478L75.9806 28.5234C76.009 33.2992 76.0214 33.3931 76.832 35.0903C79.7434 41.1875 88.4842 41.1746 91.4821 35.0691C92.266 33.4727 92.3243 33.0026 92.3243 28.2893V24.3873L92.1401 24.05C91.4334 22.7572 89.7991 22.7864 89.1178 24.1043L88.9714 24.3873L88.9388 28.3836C88.9062 32.3618 88.9055 32.3819 88.7611 32.8204C87.2019 37.5535 80.8515 37.4123 79.4577 32.6142C79.3664 32.2992 79.3489 31.7526 79.3194 28.2577L79.2855 24.2614L79.117 23.9711C78.6982 23.2492 77.9349 22.9088 77.2018 23.1171ZM96.3578 23.1129C96.3414 23.156 96.3355 26.9016 96.3441 31.4362L96.3602 39.6805H102.383C108.859 39.6805 108.788 39.6836 109.613 39.3512C112.702 38.1067 113.724 34.3055 111.693 31.618C111.291 31.0853 111.302 31.191 111.596 30.7011C113.08 28.2247 112.275 25.082 109.797 23.6717C109.311 23.3949 108.632 23.1731 108.042 23.098C107.255 22.9982 96.3956 23.0117 96.3578 23.1129ZM108.099 26.5821C109.322 27.1593 109.343 28.8978 108.136 29.4994L107.785 29.6739L105.519 29.7063C103.05 29.7414 103.083 29.7365 102.656 30.1274C101.803 30.9069 101.954 32.2355 102.964 32.8374L103.252 33.0092L105.767 33.0409C108.196 33.0711 108.29 33.077 108.53 33.2085C109.712 33.8562 109.726 35.5559 108.554 36.1477L108.226 36.3135H103.985H99.744V31.3732V26.4325L103.764 26.4332L107.785 26.4339L108.099 26.5821Z" fill="black"/>
</svg>
