<svg width="23" height="23" viewBox="0 0 23 23" fill="none" xmlns="http://www.w3.org/2000/svg">
<path fill-rule="evenodd" clip-rule="evenodd" d="M22.1577 12.3536C22.2558 12.3536 22.3529 12.3343 22.4435 12.2967C22.5342 12.2592 22.6165 12.2042 22.6859 12.1348C22.7552 12.0655 22.8103 11.9831 22.8478 11.8925C22.8853 11.8019 22.9047 11.7047 22.9047 11.6066C22.9047 11.5085 22.8853 11.4114 22.8478 11.3208C22.8103 11.2302 22.7552 11.1478 22.6859 11.0785C22.6165 11.0091 22.5342 10.9541 22.4435 10.9165C22.3529 10.879 22.2558 10.8597 22.1577 10.8597L12.3533 10.8607L12.3544 1.05636C12.3544 0.958268 12.3351 0.861137 12.2975 0.770511C12.26 0.679886 12.205 0.597542 12.1356 0.52818C12.0662 0.458819 11.9839 0.403798 11.8933 0.36626C11.8026 0.328722 11.7055 0.309401 11.6074 0.309401C11.5093 0.309401 11.4122 0.328722 11.3216 0.36626C11.2309 0.403798 11.1486 0.458819 11.0792 0.52818C11.0099 0.597542 10.9549 0.679886 10.9173 0.770511C10.8798 0.861137 10.8605 0.958268 10.8605 1.05636L10.8615 10.8607L1.05715 10.8597C0.85904 10.8597 0.669048 10.9384 0.528966 11.0785C0.388884 11.2185 0.310185 11.4085 0.310186 11.6066C0.310186 11.8047 0.388884 11.9947 0.528966 12.1348C0.669048 12.2749 0.85904 12.3536 1.05715 12.3536L10.8615 12.3525L10.8605 22.1569C10.8605 22.355 10.9392 22.545 11.0792 22.6851C11.2193 22.8252 11.4093 22.9039 11.6074 22.9039C11.8055 22.9039 11.9955 22.8252 12.1356 22.6851C12.2757 22.545 12.3544 22.355 12.3544 22.1569L12.3533 12.3525L22.1577 12.3536Z" fill="#FF4200"/>
</svg> 
