<svg width="166" height="46" viewBox="0 0 166 46" fill="none" xmlns="http://www.w3.org/2000/svg">
<path fill-rule="evenodd" clip-rule="evenodd" d="M9.84333 1.30846C0.888837 4.29065 -2.74558 13.9256 2.36118 21.1424C5.96223 26.2307 5.87613 26.0362 6.41544 30.2907C6.54652 31.3244 6.98861 32.4639 7.49116 33.0644C8.26216 33.9857 8.34438 34.4485 8.34438 37.8867C8.34438 41.94 8.79953 43.1403 10.3377 43.1403C10.7328 43.1403 11.1739 43.5336 11.3752 44.0645C11.9072 45.471 15.9924 45.471 16.5245 44.0645C16.7615 43.4374 17.1547 43.1403 17.7458 43.1403C18.9241 43.1403 19.8348 42.0396 19.8348 40.6156C19.8348 39.9705 20.0003 39.443 20.2029 39.443C20.4051 39.443 20.5705 39.1936 20.5705 38.8882C20.5705 38.5834 20.4051 38.334 20.2029 38.334C19.6907 38.334 19.742 37.0967 20.2764 36.5595C20.6199 36.2143 20.6199 36.0169 20.2764 35.6722C19.7478 35.1408 19.6854 33.5277 20.1933 33.5277C20.7916 33.5277 21.6221 31.5344 21.996 29.2012C22.453 26.3464 23.1234 24.7766 24.916 22.3642C33.2339 11.1671 23.0325 -3.08412 9.84333 1.30846ZM19.8082 3.0441C27.701 6.60435 29.2788 14.7458 23.5578 22.3924C21.9911 24.4858 21.1539 26.6313 20.7601 29.56C20.4056 32.2004 19.3424 33.2311 16.7509 33.447L14.6459 33.6225L14.7576 31.4678C14.8785 29.1341 16.6623 27.2332 17.7265 28.3028C18.408 28.9878 18.7316 28.7856 18.7316 27.6737C18.7316 26.1403 18.4641 26.0698 16.48 27.0805L14.6855 27.9945V25.6084V23.2223L15.9329 23.4255C18.8539 23.9019 23.298 20.2201 23.1152 17.4752C23.0736 16.8485 23.1607 15.8922 23.3087 15.3496C23.7392 13.773 22.8714 10.3639 21.831 9.54084C21.3082 9.12759 21.0199 8.60398 21.1408 8.287C21.3662 7.69678 20.8404 7.06476 18.8631 5.54935C17.043 4.15355 11.1943 4.19439 9.38818 5.61499C7.21691 7.32292 6.89236 7.7138 7.07229 8.40417C7.18789 8.84902 6.94943 9.29143 6.39851 9.65412C5.40066 10.3114 4.52713 13.7715 4.96051 15.3496C5.10997 15.8922 5.19558 16.7829 5.15157 17.3293C4.91601 20.2483 9.25178 23.9282 12.3343 23.4255L13.5817 23.2223V25.589V27.9557L11.8961 27.2293C9.58601 26.2341 9.1681 26.2895 9.1681 27.5905C9.1681 28.8599 9.71612 29.3622 10.1843 28.5211C10.4808 27.9892 10.6501 27.9921 12.046 28.5536L13.5817 29.1716V31.3939V33.6167L11.3607 33.4548C8.36615 33.2374 7.82732 32.6419 7.39055 29.0656C6.99973 25.8622 6.57119 24.902 4.02796 21.5245C-4.05638 10.7884 7.35379 -2.57413 19.8082 3.0441ZM13.5817 7.55093C13.5817 8.94333 13.4966 9.14607 13.0632 8.78387C12.1674 8.03711 11.9483 9.09016 12.8078 10.0095C13.8231 11.0961 13.9585 14.7721 12.9766 14.5961C12.0683 14.4332 11.9556 15.302 12.8238 15.7692C13.4908 16.128 13.5817 16.5267 13.5817 19.0922V22.0078L12.4799 22.2509C9.8767 22.8255 5.89644 19.5609 6.35982 17.2311C6.4788 16.6351 6.38207 15.7196 6.14506 15.1975C5.81228 14.4624 5.81809 14.0817 6.17166 13.5124C6.4227 13.1084 6.54168 12.4968 6.43527 12.1535C5.98399 10.6945 7.74413 9.71586 9.4912 10.4544C11.0177 11.099 11.0071 11.0995 11.0071 10.4019C11.0071 10.0863 10.4392 9.58946 9.74514 9.29824C7.94292 8.54127 7.90084 8.23206 9.43703 7.04191C12.1491 4.94018 13.5817 5.11617 13.5817 7.55093ZM18.6397 6.87952C20.1662 8.09642 20.1463 8.61614 18.5478 9.28755C17.8396 9.58508 17.2602 10.0863 17.2602 10.4019C17.2602 11.1092 17.6283 11.1229 18.897 10.4612C20.4757 9.63808 22.5449 10.8982 21.7715 12.2119C21.67 12.384 21.7996 12.9232 22.0588 13.4103C22.4211 14.0905 22.4332 14.511 22.1111 15.2218C21.8804 15.7308 21.7822 16.6054 21.8934 17.166C22.3848 19.6518 17.9074 23.1882 15.604 22.1332C14.3324 21.5508 14.1859 16.446 15.4212 15.7814C15.8256 15.5636 16.1569 15.2252 16.1569 15.0288C16.1569 14.8328 15.8256 14.6724 15.4212 14.6724C14.7861 14.6724 14.6855 14.4259 14.6855 12.8736C14.6855 11.6348 14.9143 10.782 15.4212 10.1349C15.8256 9.61766 16.1569 9.07655 16.1569 8.93264C16.1569 8.78824 15.8256 8.75762 15.4212 8.86409C14.7692 9.03522 14.6855 8.87527 14.6855 7.45516C14.6855 5.175 16.2212 4.95136 18.6397 6.87952ZM18.1879 13.1799C17.873 13.6923 19.3337 15.0419 20.2029 15.0419C21.2356 15.0419 21.1185 14.5757 19.8498 13.6325C18.6184 12.7175 18.4936 12.6835 18.1879 13.1799ZM68.3873 15.5966C68.3873 17.6094 68.3762 17.6298 67.284 17.6298C66.5483 17.6298 66.1807 17.8146 66.1807 18.1845C66.1807 18.5506 66.5449 18.7393 67.2531 18.7393H68.3259L68.4487 23.1382C68.5953 28.3898 68.9629 29.0909 71.5709 29.0909C72.7463 29.0909 73.169 28.9445 73.169 28.5366C73.169 28.1876 72.8193 27.9819 72.2254 27.9819C70.0362 27.9819 69.8587 27.6066 69.8587 22.9777V18.7393H71.3301C72.3927 18.7393 72.8014 18.5851 72.8014 18.1845C72.8014 17.7839 72.3927 17.6298 71.3301 17.6298H69.8587V15.5966C69.8587 13.8094 69.7697 13.563 69.123 13.563C68.4768 13.563 68.3873 13.8094 68.3873 15.5966ZM75.4607 21.2299C75.5507 28.1914 75.6194 28.9081 76.2037 29.0209C76.7841 29.1332 76.8475 28.7588 76.8475 25.2117C76.8475 20.0485 77.5145 18.7743 80.2294 18.7509C82.9724 18.7271 83.6234 19.8365 83.7801 24.8043C83.8895 28.2726 84.0191 29.0909 84.4573 29.0909C84.9125 29.0909 84.9802 28.3504 84.8776 24.4756L84.7557 19.8604L83.5746 18.6741C82.1574 17.2511 79.5846 17.0182 77.8588 18.1568L76.8475 18.8243V16.1936C76.8475 13.8007 76.7802 13.563 76.1045 13.563C75.3795 13.563 75.3635 13.7511 75.4607 21.2299ZM7.32912 14.4133C7.32912 15.1542 8.12189 15.7814 9.05782 15.7814C10.0973 15.7814 10.1785 15.0448 9.1681 14.7794C8.76374 14.6729 8.43241 14.439 8.43241 14.2592C8.43241 14.0798 8.18428 13.9329 7.88053 13.9329C7.57725 13.9329 7.32912 14.1493 7.32912 14.4133ZM39.6974 17.5107C39.3942 17.6293 38.8766 17.9614 38.5472 18.2487C38.0297 18.7008 37.9199 18.694 37.7313 18.2006C37.6118 17.8865 37.2601 17.6298 36.9501 17.6298C36.4688 17.6298 36.3871 18.4612 36.3871 23.3603C36.3871 28.8444 36.4185 29.0909 37.1228 29.0909C37.8149 29.0909 37.8585 28.8444 37.8585 24.8894C37.8585 19.9527 38.3997 18.7393 40.6029 18.7393C43.104 18.7393 43.5437 19.5818 43.6825 24.6419C43.7914 28.594 43.8794 29.1191 44.4182 29.015C44.9396 28.9149 45.0465 28.2678 45.1355 24.6604C45.2535 19.8886 45.7856 18.7393 47.8775 18.7393C50.4304 18.7393 51.0999 20.1331 51.0999 25.4489C51.0999 28.4399 51.1985 29.0909 51.6517 29.0909C52.4682 29.0909 52.4474 21.0257 51.6271 19.4311C50.5093 17.2579 47.4949 16.778 45.3943 18.4388L44.4356 19.1967L43.6298 18.4432C42.7838 17.6527 40.6368 17.1431 39.6974 17.5107ZM58.0959 17.6726C56.7929 18.1952 55.8816 19.1141 55.8816 19.9056C55.8816 20.8619 56.565 20.7544 57.4187 19.6635C58.9225 17.7416 62.8704 18.7937 62.8704 21.1157C62.8704 21.932 62.6784 22.037 60.7552 22.2723C56.5404 22.7886 55.1459 23.7814 55.1459 26.2672C55.1459 29.3544 58.524 30.1692 62.5942 28.0631C62.7461 27.9843 62.8704 28.1837 62.8704 28.5055C62.8704 28.8278 63.1185 29.0909 63.4218 29.0909C64.2387 29.0909 64.229 20.0096 63.4111 18.8355C62.5129 17.5472 59.858 16.9662 58.0959 17.6726ZM90.8507 17.8948C86.3461 20.2498 87.1137 28.4584 91.9148 29.2737C93.6179 29.5629 96.415 28.487 97.0472 27.2998C97.6803 26.1106 96.8682 25.9745 95.482 27.0373C93.0863 28.874 89.3532 27.5526 89.3532 24.868V23.9151H93.3992H97.4457L97.4443 22.3437C97.4409 18.6342 93.9463 16.2763 90.8507 17.8948ZM103.239 17.9517C102.102 18.5346 101.859 18.5637 101.859 18.1174C101.859 17.8005 101.592 17.6274 101.216 17.7003C100.259 17.8855 100.228 28.8298 101.185 29.0145C101.723 29.1191 101.812 28.594 101.92 24.6419C102.057 19.6426 102.507 18.7393 104.859 18.7393C107.147 18.7393 107.744 19.9999 107.744 24.8227C107.744 28.8444 107.787 29.0909 108.48 29.0909C109.173 29.0909 109.216 28.8444 109.216 24.8894C109.216 19.9527 109.757 18.7393 111.96 18.7393C114.462 18.7393 114.902 19.5818 115.04 24.6419C115.149 28.5935 115.237 29.1191 115.776 29.0155C116.464 28.8838 116.823 24.3998 116.385 21.3962C115.868 17.8496 112.352 16.2549 109.583 18.3114C108.418 19.1773 108.417 19.1773 107.621 18.4437C106.39 17.3084 104.833 17.1334 103.239 17.9517ZM122.198 17.6697C121.024 18.011 119.883 19.2162 119.883 20.1151C119.883 20.8692 120.647 20.6645 121.57 19.6635C123.232 17.8612 126.871 18.7456 126.871 20.9518C126.871 21.9674 126.78 22.0248 124.756 22.2742C121.006 22.7371 119.147 23.9228 119.147 25.8525C119.147 28.84 122.426 30.3398 125.506 28.7612C126.584 28.2085 126.871 28.1696 126.871 28.5765C126.871 28.8595 127.202 29.0909 127.607 29.0909C128.705 29.0909 128.719 21.0286 127.625 19.224C126.62 17.5685 124.568 16.9808 122.198 17.6697ZM139.639 17.9599C138.561 18.5122 138.274 18.5511 138.274 18.1447C138.274 17.8617 138.026 17.6298 137.722 17.6298C137.256 17.6298 137.17 18.5132 137.17 23.3603C137.17 28.0573 137.264 29.0909 137.691 29.0909C138.105 29.0909 138.237 28.1725 138.335 24.621C138.471 19.6712 138.928 18.7393 141.216 18.7393C143.474 18.7393 143.956 19.6853 144.159 24.5242C144.318 28.3096 144.43 28.9149 144.986 29.0218C145.57 29.1337 145.63 28.7413 145.63 24.8495C145.63 19.9586 146.217 18.7393 148.573 18.7393C150.924 18.7393 151.516 19.961 151.516 24.8227C151.516 28.8444 151.558 29.0909 152.251 29.0909C153.177 29.0909 153.357 22.1843 152.486 20.1137C151.273 17.2341 148.062 16.4931 145.825 18.5764C145.097 19.2551 144.848 19.328 144.624 18.9269C143.778 17.4067 141.558 16.9764 139.639 17.9599ZM158.885 17.7314C154.73 19.2084 154.781 27.433 158.954 29.0296C161.219 29.896 165.125 28.3932 165.125 26.6551C165.125 25.8773 164.444 26.0212 163.219 27.0577C161.243 28.7292 158.489 28.1812 157.553 25.9307C156.715 23.9141 156.714 23.9151 161.263 23.9151H165.493V22.7939C165.493 19.066 162.208 16.5495 158.885 17.7314ZM9.1681 18.3561C9.1681 18.5526 9.54054 18.9094 9.99569 19.1496C10.4508 19.3898 10.9558 19.8118 11.1174 20.0869C11.5483 20.8206 12.1109 20.6976 12.1109 19.8691C12.1109 19.4739 11.7428 18.8919 11.2934 18.5754C10.3812 17.9332 9.1681 17.8082 9.1681 18.3561ZM17.6283 18.7393C17.2234 19.1457 16.8926 19.6353 16.8926 19.8263C16.8926 20.6159 17.6384 20.5439 18.5071 19.6703C19.0169 19.1583 19.6065 18.7393 19.8184 18.7393C20.0298 18.7393 20.2029 18.5725 20.2029 18.3693C20.2029 17.7149 18.3877 17.976 17.6283 18.7393ZM94.5233 19.1199C95.2972 19.5361 96.342 21.3242 96.342 22.2329C96.342 22.7103 95.7582 22.8061 92.8478 22.8061C89.5617 22.8061 89.3532 22.7604 89.3532 22.0423C89.3532 19.5132 92.2311 17.8865 94.5233 19.1199ZM162.946 19.8195C163.578 20.455 164.021 21.2931 164.021 21.8532V22.8061H160.733C157.055 22.8061 156.785 22.6389 157.538 20.8264C158.526 18.4514 161.107 17.9711 162.946 19.8195ZM62.8704 23.9267C62.8704 27.1953 59.3279 29.2236 56.9704 27.3047C55.2093 25.8714 56.6608 24.1518 60.1226 23.5699C62.8447 23.1124 62.8704 23.1158 62.8704 23.9267ZM126.759 24.7464C126.374 27.6314 122.877 29.1434 120.986 27.2424C119.369 25.6172 120.655 24.162 124.249 23.5519C127.106 23.0667 126.99 23.0113 126.759 24.7464ZM131.653 28.1667C131.653 28.9061 131.837 29.0909 132.573 29.0909C133.308 29.0909 133.492 28.9061 133.492 28.1667C133.492 27.4272 133.308 27.2424 132.573 27.2424C131.837 27.2424 131.653 27.4272 131.653 28.1667ZM18.7316 35.0557C18.7316 35.8958 17.6578 36.1049 13.306 36.1107C9.6397 36.1156 9.5357 36.0927 9.53619 35.2838C9.53667 34.4655 9.61212 34.4519 14.1346 34.4519C18.1429 34.4519 18.732 34.5292 18.7316 35.0557ZM18.7316 37.7312C18.7316 38.7998 17.5557 39.0633 12.7542 39.0691C9.57633 39.0735 9.5357 39.0618 9.5357 38.1609C9.5357 37.2489 9.53909 37.2484 13.8579 37.1312C16.2348 37.0666 18.304 36.9781 18.4559 36.9343C18.6072 36.891 18.7316 37.2494 18.7316 37.7312ZM18.6638 40.8295L18.5478 41.8461H14.1336C9.85687 41.8461 9.71612 41.8208 9.6039 41.0269C9.4912 40.2311 9.59906 40.2048 13.4661 40.0891C15.6539 40.0235 17.7448 39.9345 18.1124 39.8912C18.6382 39.8295 18.7557 40.0293 18.6638 40.8295ZM15.4212 43.5098C15.4212 43.713 14.759 43.8798 13.9498 43.8798C13.1406 43.8798 12.4785 43.713 12.4785 43.5098C12.4785 43.3066 13.1406 43.1403 13.9498 43.1403C14.759 43.1403 15.4212 43.3066 15.4212 43.5098Z" fill="#484848"/>
</svg>
