<svg width="142" height="40" viewBox="0 0 142 40" fill="none" xmlns="http://www.w3.org/2000/svg">
<path id="path0" fill-rule="evenodd" clip-rule="evenodd" d="M14.0031 3.86643C11.2173 6.65901 10.8773 7.09144 11.1797 7.45588C11.4857 7.82456 11.8845 7.51042 14.7875 4.61407C17.2999 2.10659 17.9873 1.28103 17.7748 1.02462C17.3477 0.51002 17.3626 0.499041 14.0031 3.86643ZM21.5001 0.974683C21.1619 1.52151 27.8239 7.89504 28.2684 7.45057C28.6087 7.11022 28.2974 6.7132 25.4709 3.87953C22.3646 0.765726 21.8582 0.395271 21.5001 0.974683ZM19.201 2.05311C18.8518 2.96296 19.219 6.68416 19.6667 6.76986C20.0683 6.84636 20.1133 6.59491 20.1133 4.28399C20.1133 1.81086 19.6904 0.777059 19.201 2.05311ZM11.9454 9.63469C11.9454 10.3738 16.8604 10.3026 17.0024 9.56174C17.0792 9.16012 16.8278 9.11514 14.5166 9.11514C12.1005 9.11514 11.9454 9.1463 11.9454 9.63469ZM22.4585 9.56174C22.6005 10.3026 27.5155 10.3738 27.5155 9.63469C27.5155 9.1463 27.3607 9.11514 24.9443 9.11514C22.6331 9.11514 22.3816 9.16012 22.4585 9.56174ZM55.465 9.60778C53.1743 10.1617 51.1106 12.0058 50.3793 14.1521C49.9054 15.5421 49.8017 24.4263 50.2408 26.007C51.9347 32.1067 60.6994 32.8476 63.7068 27.1456C64.6067 25.4393 64.8986 16.9082 64.1456 14.3174C63.1356 10.8427 59.196 8.70537 55.465 9.60778ZM68.0998 20.2185V30.8116H69.3758C70.5445 30.8116 70.6522 30.7609 70.6522 30.2127V29.6141L72.0918 30.3405C77.7579 33.1986 83.0607 27.1442 80.992 20.1789C79.8077 16.191 75.4495 14.1977 72.0581 16.0936C71.3899 16.4669 70.8002 16.7725 70.7478 16.7725C70.695 16.7725 70.6522 15.1646 70.6522 13.199V9.62549H69.3758H68.0998V20.2185ZM111.092 9.96088C111.015 10.161 110.987 10.9426 111.03 11.6981L111.109 13.0715H112.385H113.661V11.4122V9.75299L112.446 9.67507C111.575 9.61946 111.191 9.70021 111.092 9.96088ZM135.229 11.2847C135.229 12.0674 135.308 12.1779 135.868 12.1779C136.427 12.1779 136.506 12.0674 136.506 11.2847C136.506 10.5017 136.427 10.3912 135.868 10.3912C135.308 10.3912 135.229 10.5017 135.229 11.2847ZM138.548 12.0504V13.7093H136.881H135.216L135.286 17.347C135.353 20.7905 135.384 20.9842 135.868 20.9842C136.346 20.9842 136.382 20.7901 136.45 17.8573L136.521 14.7304H137.535H138.548L138.562 16.5813C138.586 19.672 139.304 20.8429 141.182 20.8528C142.254 20.8585 142.065 19.745 140.973 19.621C139.932 19.5028 139.832 19.2612 139.828 16.8363L139.824 14.7304H140.845C141.696 14.7304 141.866 14.6454 141.866 14.2201C141.866 13.7947 141.696 13.7093 140.845 13.7093H139.824V12.0504C139.824 10.4507 139.801 10.3912 139.186 10.3912C138.57 10.3912 138.548 10.4507 138.548 12.0504ZM3.44005 14.4301C0.533859 17.3427 0.218308 17.7429 0.586983 18.0486C1.05872 18.4403 7.42889 12.3986 7.29289 11.6885C7.13919 10.8874 6.57184 11.2911 3.44005 14.4301ZM13.9928 14.3422C11.4698 16.8713 10.8787 17.5945 11.1287 17.8446C11.4673 18.1831 17.9044 12.06 17.7373 11.5589C17.5318 10.9426 16.9609 11.3669 13.9928 14.3422ZM21.6864 11.4898C21.4736 11.7462 22.161 12.5721 24.6737 15.0793C27.5764 17.976 27.9751 18.2901 28.2811 17.9214C28.5836 17.5566 28.2436 17.1245 25.4578 14.332C22.0983 10.9642 22.1132 10.9756 21.6864 11.4898ZM32.1924 11.5652C31.9229 12.2679 38.337 18.4945 38.8728 18.05C39.2433 17.7426 38.9323 17.3477 36.0219 14.4308C32.622 11.0234 32.4499 10.8945 32.1924 11.5652ZM59.1011 12.3154C60.3137 12.8218 60.8934 13.3591 61.4905 14.5289C62.1999 15.919 62.2024 24.2907 61.4937 25.8341C59.9369 29.2249 54.8292 29.4647 53.1173 26.2273C52.3619 24.7986 52.2198 16.4764 52.9221 14.7956C53.9336 12.3749 56.6418 11.2879 59.1011 12.3154ZM8.62735 14.8583C8.62735 17.1129 8.66312 17.2832 9.13768 17.2832C9.6126 17.2832 9.64837 17.1129 9.64837 14.8583C9.64837 12.6033 9.6126 12.4333 9.13768 12.4333C8.66312 12.4333 8.62735 12.6033 8.62735 14.8583ZM19.0922 14.8583C19.0922 17.1129 19.128 17.2832 19.6029 17.2832C20.0775 17.2832 20.1133 17.1129 20.1133 14.8583C20.1133 12.6033 20.0775 12.4333 19.6029 12.4333C19.128 12.4333 19.0922 12.6033 19.0922 14.8583ZM29.8128 14.8583C29.8128 17.1129 29.8486 17.2832 30.3232 17.2832C30.7978 17.2832 30.8335 17.1129 30.8335 14.8583C30.8335 12.6033 30.7978 12.4333 30.3232 12.4333C29.8486 12.4333 29.8128 12.6033 29.8128 14.8583ZM88.4735 15.5846C80.9283 17.6944 82.4735 31.0666 90.2624 31.0666C91.5352 31.0666 93.7341 30.2562 94.7725 29.4048L95.5375 28.7769L94.6404 27.8798L93.743 26.9823L92.734 27.668C90.1972 29.3921 86.8866 28.1486 86.3206 25.2597L86.1584 24.4302H91.4229H96.6871V22.6899C96.6871 17.4546 93.0474 14.3061 88.4735 15.5846ZM121.374 15.5103C114.002 17.3186 114.684 30.2856 122.189 31.0067C123.547 31.1374 125.015 30.757 126.104 29.9927L126.806 29.5004V30.2963C126.806 33.7323 122.244 35.3403 119.94 32.7163L119.154 31.8199L118.13 32.3419C116.876 32.9819 116.871 33.1009 118.047 34.4028C120.769 37.4157 125.039 37.365 127.747 34.2877C129.371 32.4432 129.431 32.0795 129.548 23.4729L129.654 15.7515H128.23C126.994 15.7515 126.806 15.8163 126.806 16.2441C126.806 16.7137 126.756 16.7088 125.721 16.1368C124.441 15.4285 122.719 15.1802 121.374 15.5103ZM107.011 15.7493C105.618 15.954 103.498 16.7938 103.214 17.2542C102.869 17.8123 102.558 17.5237 102.558 16.645V15.7515H101.282H100.006V23.2817V30.8116H101.282H102.558L102.559 26.9189C102.562 20.5762 103.804 18.5667 107.727 18.5607L108.684 18.5593V17.0279C108.684 16.1853 108.598 15.5106 108.492 15.528C108.387 15.5457 107.72 15.6452 107.011 15.7493ZM111.041 23.2176L111.109 30.6837H112.385H113.661L113.729 23.2176L113.796 15.7515H112.385H110.973L111.041 23.2176ZM76.9515 18.5904C79.6562 20.2525 79.5343 26.0548 76.7546 27.9627C73.1854 30.4124 69.4944 25.8494 70.8806 20.7012C71.5513 18.2097 74.6045 17.1483 76.9515 18.5904ZM92.4231 18.4704C93.1441 18.8433 94.1181 20.5334 94.129 21.4308C94.1343 21.8374 93.7784 21.8778 90.1784 21.8778C85.8089 21.8778 85.919 21.9302 86.6978 20.2185C87.6944 18.0277 90.1292 17.2843 92.4231 18.4704ZM124.037 18.0553C124.581 18.2065 125.352 18.7374 125.888 19.331L126.806 20.3474V22.9891C126.806 26.6034 125.466 28.5141 122.93 28.5141C120.217 28.5141 118.906 26.7684 118.904 23.1538C118.901 19.275 120.983 17.2071 124.037 18.0553ZM1.39516 19.7507C0.74529 20.4006 1.30804 20.6014 3.77756 20.6014C6.15995 20.6014 6.32995 20.5674 6.32995 20.0907C6.32995 19.575 1.87787 19.2679 1.39516 19.7507ZM11.9454 20.0815C11.9454 20.5702 12.1005 20.6014 14.5166 20.6014C16.8278 20.6014 17.0792 20.556 17.0024 20.1548C16.8604 19.4135 11.9454 19.3427 11.9454 20.0815ZM22.5807 19.7507C21.9308 20.4006 22.4935 20.6014 24.9631 20.6014C27.3455 20.6014 27.5155 20.5674 27.5155 20.0907C27.5155 19.575 23.0634 19.2679 22.5807 19.7507ZM33.1309 20.0907C33.1309 20.5656 33.3009 20.6014 35.5558 20.6014C37.8104 20.6014 37.9807 20.5656 37.9807 20.0907C37.9807 19.6161 37.8104 19.5803 35.5558 19.5803C33.3009 19.5803 33.1309 19.6161 33.1309 20.0907ZM0.515089 21.938C0.0901042 22.4501 6.6795 29.0326 7.14804 28.564C7.4002 28.3119 6.78504 27.5678 4.13525 24.9176C1.44899 22.2312 0.749539 21.6557 0.515089 21.938ZM24.6217 24.8992C21.7137 27.8136 21.4031 28.2078 21.7739 28.5152C22.4096 29.0432 28.8517 22.5939 28.2698 22.012C27.9277 21.6699 27.5275 21.9865 24.6217 24.8992ZM11.0338 22.1622C10.7399 22.6382 17.2244 28.9529 17.6108 28.5665C17.8626 28.3147 17.2779 27.5993 14.7485 25.0638C11.4871 21.7942 11.3349 21.6752 11.0338 22.1622ZM35.1783 25.0628C32.6553 27.5919 32.0639 28.3151 32.3142 28.5651C32.6525 28.9037 39.0899 22.7809 38.9228 22.2794C38.7174 21.6632 38.1465 22.0874 35.1783 25.0628ZM8.68189 25.3844C8.74457 27.5147 8.81894 27.8823 9.20143 27.9556C9.60304 28.0324 9.64837 27.781 9.64837 25.4697C9.64837 23.0536 9.61685 22.8985 9.12847 22.8985C8.6362 22.8985 8.61247 23.0302 8.68189 25.3844ZM19.201 23.2392C18.8518 24.149 19.219 27.8702 19.6667 27.9559C20.0683 28.0324 20.1133 27.781 20.1133 25.4697C20.1133 22.9969 19.6904 21.9631 19.201 23.2392ZM29.8128 25.4697C29.8128 27.781 29.8578 28.0324 30.2594 27.9556C31.0003 27.8139 31.0715 22.8985 30.3324 22.8985C29.844 22.8985 29.8128 23.0536 29.8128 25.4697ZM11.9454 30.547C11.9454 31.0354 12.1005 31.0666 14.5166 31.0666C16.8278 31.0666 17.0792 31.0216 17.0024 30.62C16.8604 29.879 11.9454 29.8079 11.9454 30.547ZM22.5895 30.207C21.9294 30.8675 22.484 31.0666 24.9818 31.0666C27.293 31.0666 27.5441 31.0216 27.4676 30.62C27.3784 30.1546 23.0117 29.7848 22.5895 30.207ZM11.0349 32.6263C10.7402 33.1026 17.331 39.5314 17.7543 39.1801C18.0351 38.9474 17.466 38.2522 14.8364 35.6169C11.4875 32.2604 11.3352 32.1404 11.0349 32.6263ZM24.6245 35.6169C21.9949 38.2522 21.4258 38.9474 21.7066 39.1801C22.1298 39.5314 28.7206 33.1026 28.426 32.6263C28.126 32.1404 27.9734 32.2604 24.6245 35.6169ZM19.0922 35.9165C19.0922 38.2989 19.1262 38.4689 19.6029 38.4689C20.0793 38.4689 20.1133 38.2989 20.1133 35.9165C20.1133 33.534 20.0793 33.364 19.6029 33.364C19.1262 33.364 19.0922 33.534 19.0922 35.9165Z" fill="#484848"/>
</svg>
