<svg width="77" height="38" viewBox="0 0 77 38" fill="none" xmlns="http://www.w3.org/2000/svg">
<path fill-rule="evenodd" clip-rule="evenodd" d="M9.70293 0.0620373C-0.461519 1.15548 -3.56336 14.4512 5.05147 20.0008C5.30851 20.1663 7.75199 21.3619 10.4817 22.6576C13.2111 23.9532 15.71 25.1417 16.0349 25.2988C17.9987 26.2486 18.1538 28.6094 16.3122 29.5205L15.8895 29.7295L7.9449 29.7541L0 29.7786V30.2234V30.6683H8.00824C17.1595 30.6683 16.5413 30.7208 17.473 29.8652C18.8897 28.5648 18.9386 26.5152 17.5853 25.1694C17.1871 24.7732 16.791 24.5599 14.1092 23.2959C5.35398 19.1695 5.01862 18.9871 3.75969 17.67C-1.23343 12.446 0.796094 3.91362 7.59981 1.52612C9.0527 1.01635 9.49424 0.984412 15.0661 0.983884L20.1178 0.983622V0.491811V0L15.0661 0.0142556C12.2878 0.0221752 9.87429 0.0438222 9.70293 0.0620373ZM21.8091 0.491284V0.982301L28.1963 1.00527L34.5831 1.02823V1.43055V1.83287L28.1963 1.85584L21.8091 1.8788V2.32521V2.77187H28.2186H34.6278V3.21881V3.666H28.2139H21.7999L21.8267 4.13537L21.8538 4.60474L28.2407 4.62771L34.6278 4.65068V5.05167V5.45294L28.2407 5.4759L21.8538 5.49887L21.8267 5.96824L21.7999 6.43761H28.2186H34.6375L34.6105 6.86237L34.5831 7.28712L28.1963 7.31009L21.8091 7.33306V7.77893V8.22481L28.1963 8.24778L34.5831 8.27048L34.6057 23.1354L34.6283 38H35.0728H35.5175L35.5398 23.1354L35.5624 8.27048L35.9853 8.24329L36.4082 8.2161V23.1079V38H36.8976H37.3872V23.1129V8.22586H37.7878H38.1886V23.1129V38H38.6777H39.167L39.1896 23.1354L39.2123 8.27048L39.6349 8.24329L40.0578 8.2161V23.1079V38H40.5474H41.037V23.1079V8.21557L41.4152 8.24302L41.7937 8.27048L41.816 23.1354L41.8386 38H42.328H42.8174V22.666V7.33174H41.9304H41.0433L41.0179 6.41543L40.9924 5.49887L40.0801 5.47326L39.1676 5.44792V4.55696V3.666H38.2774H37.3872V2.77504V1.88382L36.4749 1.85848L35.5624 1.83287L35.5372 0.916566L35.5117 0H28.6604H21.8091V0.491284ZM37.2984 0.491811V0.983622H47.1792H57.0601V0.491811V0H47.1792H37.2984V0.491811ZM65.7264 0.0976783C54.6742 1.08816 46.698 11.914 49.0001 22.8001C50.9439 31.9916 58.5364 37.9995 68.2096 38H69.7006V37.1059V36.2118H70.6352H71.5701V35.273V34.334H72.4603H73.3502V33.4399V32.5457H74.285H75.2196V31.607V30.6683H76.1098H77V23.6047V16.5412H71.1248H65.2497V16.9881V17.4353H70.6352H76.0207V23.6047V29.7741H75.6202H75.2196V24.0517V18.3295H70.2346H65.2497V18.8213V19.3128H69.745H74.2403V24.5435V29.7741H73.7954H73.3502V24.9907V20.207H69.3H65.2497V20.6531V21.0992L68.8328 21.1225L72.4156 21.146V25.4376V29.7295H72.015H71.6145L71.5914 25.8624L71.568 21.9952H68.4044H65.2405L65.2673 22.4646L65.2944 22.9342L67.9426 22.9577L70.5908 22.9815V26.3827V29.7839L70.1679 29.7567L69.745 29.7295L69.7216 26.7549L69.6982 23.7803L67.4963 23.8043L65.2944 23.8283L65.2673 24.2977L65.2405 24.7671H67.0253H68.8104V27.2839V29.8011L67.4529 29.7451C57.8465 29.3502 53.2909 18.1719 59.9929 11.4399C62.2322 9.191 64.7721 8.22877 68.4766 8.22666L69.7006 8.22586V7.76917V7.31273L67.6755 7.35523C60.7738 7.50043 55.9486 12.2918 55.9486 19C55.9486 25.6071 60.6589 30.3871 67.4973 30.7197L68.8104 30.7836V31.173V31.5624L67.6755 31.5619C54.4894 31.5579 50.1859 13.7089 61.9426 7.78474C64.0065 6.74489 65.1769 6.51601 68.6992 6.46269L71.5701 6.41939V5.93683V5.45426H69.2964C64.6286 5.45426 62.1071 6.15488 59.4513 8.19049C49.2432 16.0146 54.4213 32.0238 67.3194 32.5162L68.8104 32.5732V33.0196V33.4657L67.4973 33.4042C52.7563 32.7107 47.7874 14.1666 60.3157 6.60287C62.955 5.0097 64.6998 4.65068 69.8118 4.64989L73.3502 4.64936V4.15755V3.666L69.8565 3.66759C66.2799 3.66917 65.2993 3.73649 63.9792 4.0707C52.3327 7.01812 48.3099 21.3429 56.7484 29.819C59.631 32.7144 63.0443 34.1888 67.1412 34.3087L68.8104 34.3575V34.7928V35.2281H67.8277C51.9639 35.2281 45.3665 15.0106 58.221 5.78873C61.5885 3.37298 64.1613 2.77187 71.1343 2.77187H75.2196V2.3194V1.86692L70.2123 1.90256C64.3151 1.94454 63.6654 2.03218 60.9804 3.14938C50.7723 7.39721 47.2013 20.2925 53.7729 29.1759C57.1621 33.7575 62.1809 36.203 68.2096 36.211L68.8104 36.2118V36.6141V37.0164H67.5688C54.9446 37.0164 46.2415 24.2571 50.822 12.4647C52.9613 6.95688 57.7589 2.79167 63.514 1.44586C65.3033 1.02744 66.082 0.983622 71.708 0.983622H77V0.491811V0L71.7703 0.0124107C68.894 0.0190104 66.174 0.0575521 65.7264 0.0976783ZM39.1676 2.3025V2.77187H47.1792H55.1909V2.3025V1.83287H47.1792H39.1676V2.3025ZM9.39122 1.93503C2.57226 3.33417 -0.430243 10.8201 3.64747 16.2556C4.91822 17.9493 5.26673 18.1626 11.9587 21.3405C17.1069 23.785 17.6173 24.0472 18.0936 24.4899C20.4669 26.6966 19.4742 30.6031 16.3316 31.4254C15.8824 31.5429 14.8127 31.5624 8.8385 31.5624H1.86947V32.0542V32.5457L8.83508 32.5444C14.5163 32.5431 15.9108 32.5194 16.3984 32.4156C20.2829 31.5885 21.7021 26.6942 18.8757 23.8724C18.2055 23.203 18.7291 23.4757 11.8229 20.2006C6.56034 17.7049 6.08358 17.4388 5.11849 16.4599C0.451794 11.7256 3.20461 3.7679 9.82067 2.86665C10.2394 2.80963 12.43 2.77187 15.3174 2.77187H20.1178V2.32468V1.87775L14.8438 1.88804C11.9427 1.89385 9.48925 1.91497 9.39122 1.93503ZM36.4082 3.21881V3.666H35.963H35.518V3.21881V2.77187H35.963H36.4082V3.21881ZM9.3468 3.80143C4.27588 4.84207 1.99247 10.7958 5.0265 15.0663C6.04337 16.4979 6.24863 16.6207 12.774 19.7104C18.8613 22.5929 18.8169 22.5683 19.6595 23.4746C22.3282 26.3449 21.4653 31.0175 17.9448 32.7622C16.7505 33.3541 16.8354 33.3477 9.9032 33.3493L3.64983 33.3506V33.8425V34.334L9.9032 34.3324C16.6294 34.3308 16.7387 34.3245 17.8894 33.8575C22.7046 31.904 23.693 25.389 19.6713 22.1122C19.2103 21.7365 18.3517 21.289 15.3999 19.8859C13.3683 18.92 10.7844 17.6909 9.65825 17.1547C7.42477 16.0909 6.66547 15.5943 6.01288 14.7712C3.28319 11.3264 4.72767 6.3922 8.90184 4.9049C9.4748 4.70083 9.53157 4.69846 14.777 4.65173L20.0734 4.60474L20.1002 4.13537L20.1273 3.666L15.0264 3.67419C11.1632 3.68079 9.78493 3.71141 9.3468 3.80143ZM40.9479 4.15755V4.64936H47.1792H53.4105V4.15755V3.666H47.1792H40.9479V4.15755ZM36.4082 5.05167V5.45426H35.963H35.518V5.05167V4.64936H35.963H36.4082V5.05167ZM38.1886 5.05167V5.45426H37.7878H37.3872V5.05167V4.64936H37.7878H38.1886V5.05167ZM9.9484 5.54612C5.56897 6.29057 3.92974 11.6619 7.14854 14.72C7.83451 15.3718 7.63792 15.2704 14.6879 18.6045C19.5982 20.9268 19.7491 21.009 20.6209 21.8408C24.5858 25.6237 23.5356 32.1141 18.5772 34.4737C17.0867 35.183 17.1808 35.174 10.9668 35.2073L5.421 35.2371L5.44781 35.702L5.47462 36.1671L10.3261 36.1941C16.6749 36.2292 17.3989 36.1529 19.1964 35.2588C24.4621 32.6389 25.6521 25.4598 21.5074 21.3183C20.5076 20.3191 20.1008 20.0956 14.1383 17.2675C8.10075 14.4037 7.82216 14.2453 7.20584 13.3224C5.47882 10.7369 6.80635 7.28422 9.80017 6.57541C10.2722 6.46348 11.2123 6.43999 15.2488 6.43893L20.1273 6.43761L20.1002 5.96824L20.0734 5.49887L15.222 5.48673C12.5538 5.47986 10.1805 5.50679 9.9484 5.54612ZM42.7885 5.51286C42.7554 5.54612 42.7283 5.76787 42.7283 6.00546V6.43761H47.184H51.6394L51.6125 5.96824L51.5855 5.49887L47.2171 5.47564C44.8143 5.46297 42.8216 5.4796 42.7885 5.51286ZM36.4082 6.88956V7.34151L35.9853 7.31431L35.5624 7.28712L35.5353 6.86237L35.5083 6.43761H35.9582H36.4082V6.88956ZM38.1886 6.8848V7.33174H37.7878H37.3872V6.8848V6.43761H37.7878H38.1886V6.8848ZM40.0578 6.8848V7.33174H39.6128H39.1676V6.8848V6.43761H39.6128H40.0578V6.8848ZM9.72842 7.46162C6.77244 8.38928 6.44129 12.5616 9.21197 13.971C9.50634 14.121 12.0973 15.3586 14.9694 16.7215C20.5683 19.3783 21.0461 19.6455 22.1079 20.7117C26.9055 25.5308 25.1612 33.8264 18.8169 36.3617C17.2841 36.9744 16.8339 37.0164 11.8032 37.0164H7.29941V37.5082V38L11.728 37.9997C17.2557 37.9992 18.025 37.8955 20.029 36.8799C26.3901 33.6566 27.8054 25.077 22.8076 20.0343C21.5029 18.7181 21.7326 18.845 14.2122 15.2825C11.2904 13.8984 9.2853 12.8971 9.07688 12.7179C8.01297 11.8032 7.97329 10.0611 8.99304 9.03684C9.77205 8.25438 9.58781 8.27787 15.1996 8.24619L20.1178 8.21874V7.77524V7.33174L15.1108 7.33781C11.232 7.3423 10.0188 7.37028 9.72842 7.46162ZM44.5978 7.77893V8.22586H47.1792H49.7607V7.77893V7.33174H47.1792H44.5978V7.77893ZM70.5908 31.1202V31.5722L70.1679 31.545C69.7597 31.5186 69.7442 31.5072 69.7166 31.2184C69.6717 30.7467 69.7387 30.6683 70.1873 30.6683H70.5908V31.1202ZM72.4426 31.1376L72.47 31.5624H72.02H71.5701V31.1749C71.5701 30.6936 71.61 30.6535 72.0563 30.6865L72.4156 30.7129L72.4426 31.1376ZM74.2403 31.1152V31.5624H73.7954H73.3502V31.1152V30.6683H73.7954H74.2403V31.1152ZM70.5908 32.9483V33.3506H70.1456H69.7006V33.0077C69.7006 32.5764 69.7337 32.5457 70.205 32.5457H70.5908V32.9483ZM72.4603 32.9483V33.3506H72.015H71.5701V32.9483V32.5457H72.015H72.4603V32.9483ZM70.5908 34.7812V35.2281H70.1456H69.7006V34.7812V34.334H70.1456H70.5908V34.7812Z" fill="#484848"/>
</svg>
