<svg width="121" height="38" viewBox="0 0 121 38" fill="none" xmlns="http://www.w3.org/2000/svg">
<path fill-rule="evenodd" clip-rule="evenodd" d="M32.4339 1.04702C28.7329 2.38728 27.7809 7.10521 30.7167 9.55523C34.2188 12.4779 39.1541 10.2628 39.1541 5.76853C39.1541 2.30308 35.6885 -0.132016 32.4339 1.04702ZM10.8159 8.65685C-4.83698 14.0752 -1.10703 36.8993 15.4315 36.8993C30.9874 36.8993 35.8339 16.2538 21.8871 9.39968C18.5937 7.78116 14.1975 7.48618 10.8159 8.65685ZM49.1783 13.8988V19.7966H50.3675H51.5569V15.0784V10.3605H52.7463H53.9354V15.0784V19.7966H55.1249H56.314V13.8988V8.0012H52.7463H49.1783V13.8988ZM61.6877 8.77837C61.1364 9.47313 61.0714 9.9574 61.0714 13.3622C61.0714 17.0176 61.0422 17.1985 60.3372 17.8974C59.3795 18.8472 59.7351 20.2624 60.8486 19.9334C62.7808 19.3628 63.4319 17.6896 63.4427 13.267C63.4488 10.9504 63.5373 10.3903 63.9202 10.2443C65.2135 9.75229 65.234 9.82573 65.234 14.9309V19.7966H66.4234H67.6125V13.8988V8.0012H64.9582C62.4448 8.0012 62.2711 8.0427 61.6877 8.77837ZM73.706 8.36993C73.4344 9.12888 70.5859 19.3559 70.5859 19.5715C70.5859 20.3645 72.8995 19.7497 73.0687 18.912C73.2427 18.0479 73.2884 18.0273 75.0146 18.0273C76.7372 18.0273 76.7875 18.05 76.9783 18.912C77.1487 19.6808 77.305 19.7966 78.1738 19.7966C79.7476 19.7966 79.7892 20.0946 76.7992 9.99174L76.2101 8.0012H75.024C74.3436 8.0012 73.7815 8.15855 73.706 8.36993ZM82.7765 13.8988V19.7966H83.9656H85.155V17.4374V15.0784H86.3318H87.5086L87.5953 17.3636L87.6823 19.6491H88.8717H90.0609V13.8988V8.14869H88.8717H87.6823L87.5953 10.4342L87.5086 12.7194H86.3318H85.155V10.3605V8.0012H83.9656H82.7765V13.8988ZM94.2071 8.37948C94.1268 8.58729 94.0976 11.2081 94.1421 14.2033L94.2234 19.6491L97.4199 19.7327L100.616 19.8163V18.6268V17.4374H98.5347H96.4535V16.258V15.0784H97.9401H99.4267V14.0463V13.0141H97.9401H96.4535V11.6873V10.3605H98.3859H100.319V9.18083V8.0012H97.3362C95.1843 8.0012 94.3128 8.1066 94.2071 8.37948ZM103.645 9.09753C103.733 10.1542 103.797 10.2177 104.853 10.3043L105.968 10.396V15.0963V19.7966H107.157H108.347V15.0963V10.396L109.462 10.3043C110.52 10.2175 110.576 10.1607 110.576 9.18083V8.14869L107.064 8.06539L103.552 7.98239L103.645 9.09753ZM115.343 8.35291C114.947 9.49552 112.212 19.2171 112.212 19.4828C112.212 20.303 114.321 19.8059 114.635 18.912C115.117 17.5425 118.301 17.5425 118.604 18.912C118.781 19.7112 118.913 19.7966 119.966 19.7966C121.389 19.7966 121.435 20.435 119.528 13.7516L117.929 8.14869L116.703 8.05793C115.892 7.99792 115.432 8.09764 115.343 8.35291ZM75.5071 13.3524C76.1077 15.5901 76.0857 15.6681 74.8626 15.6681C73.889 15.6681 73.8053 15.6054 73.9775 15.0046C74.0823 14.6398 74.3216 13.7116 74.5092 12.9419C74.9126 11.2851 74.9571 11.3033 75.5071 13.3524ZM117.215 13.3315C117.731 15.5489 117.698 15.6681 116.564 15.6681H115.564L116.026 13.7516C116.583 11.4425 116.761 11.3798 117.215 13.3315ZM80.2492 25.1078C77.7066 25.6464 77.1271 26.7529 77.1277 31.0663C77.1283 35.6382 78.4155 37.4111 81.5085 37.0997C84.4581 36.8026 85.248 35.3563 85.105 30.516C84.9753 26.1247 83.4526 24.4292 80.2492 25.1078ZM49.1783 30.9842V36.8993H50.2064H51.2345L51.3215 34.6141C51.4587 30.9976 53.4538 31.3221 54.1998 35.0826L54.5601 36.8993H55.7661C56.622 36.8993 56.9302 36.7901 56.827 36.5234C56.7469 36.3165 56.5154 35.3549 56.3128 34.3863C56.031 33.0407 55.7098 32.4062 54.95 31.6953C53.9788 30.7871 53.9698 30.7564 54.5574 30.3676C55.0598 30.0356 56.6114 26.2209 56.6114 25.318C56.6114 25.1809 56.1198 25.1099 55.5192 25.1603C54.5234 25.2436 53.3032 27.3673 53.0525 29.4537C53.0474 29.4943 52.715 29.5275 52.3131 29.5275C51.6129 29.5275 51.5795 29.4397 51.4955 27.3897L51.4082 25.2517L50.2931 25.1603L49.1783 25.0687V30.9842ZM60.0214 25.4646C59.9371 25.6822 59.9046 28.3111 59.9494 31.3063L60.0307 36.7521L61.3008 36.8429L62.5706 36.934L62.4899 31.0928L62.4093 25.2517L61.2921 25.16C60.5611 25.1 60.1216 25.2054 60.0214 25.4646ZM66.4234 30.9842V36.8993H67.6125H68.802V34.5404V32.1814H69.9911H71.1805V34.5404V36.8993H72.3699H73.5591V30.9842V25.0687L72.4443 25.1603L71.3292 25.2517L71.2422 27.5369L71.1555 29.8224H69.9911H68.8269L68.7399 27.5369L68.6532 25.2517L67.5382 25.1603L66.4234 25.0687V30.9842ZM82.3092 27.6319C82.9989 28.3159 82.9794 33.5342 82.2843 34.2961C80.7056 36.026 79.5056 34.6365 79.5056 31.0779C79.5056 27.4823 80.6902 26.0262 82.3092 27.6319Z" fill="#484848"/>
</svg>
