<svg width="132" height="35" viewBox="0 0 132 35" fill="none" xmlns="http://www.w3.org/2000/svg">
<path fill-rule="evenodd" clip-rule="evenodd" d="M11.2933 0.119533C11.2665 0.189964 11.0662 0.243332 10.7006 0.276732C9.88604 0.351157 8.06953 0.714204 6.97897 1.02062C6.16588 1.24861 5.17639 1.56736 5.09247 1.62836C5.05105 1.65813 4.90321 1.7075 4.76395 1.738C4.5347 1.78773 4.22831 1.90681 3.58341 2.19653C3.45879 2.25243 3.17026 2.37623 2.94208 2.47135C2.53642 2.64053 1.41302 3.20398 0.471374 3.71007L0.000373402 3.96348L1.61685e-05 7.38991C-0.000698011 9.91963 0.0221557 10.8243 0.0867889 10.8461C0.140352 10.8643 0.199272 11.2015 0.239266 11.7156C0.275332 12.1774 0.338895 12.8316 0.381031 13.1693C0.423168 13.5065 0.489943 14.0762 0.52958 14.4348C0.645277 15.4826 1.13306 17.5109 1.54371 18.6542C2.15969 20.3685 1.93223 20.3373 4.0362 18.9965C4.32651 18.8117 4.77966 18.5293 5.04319 18.3695C5.30637 18.2098 5.60168 18.0272 5.69917 17.9637C5.79665 17.9005 6.09768 17.7139 6.36835 17.5494C6.63903 17.385 6.93362 17.1715 7.02254 17.0749L7.18466 16.8996L7.03111 16.2236C6.78043 15.121 6.64403 14.4283 6.57011 13.8816C6.5319 13.598 6.48012 13.3326 6.45512 13.2916C6.43048 13.2509 6.37764 12.8959 6.33836 12.5027C6.29908 12.1099 6.21873 11.5123 6.16017 11.1747C6.10125 10.837 6.03304 9.91708 6.00805 9.13L5.96306 7.69887L6.58403 7.39137C6.92577 7.22219 7.29 7.06136 7.39391 7.03413C7.49747 7.0069 7.70137 6.93828 7.8467 6.88092C10.3438 5.89924 14.5911 5.59828 19.1647 6.07859C20.3141 6.19912 21.6275 6.44599 22.1735 6.64385C22.6888 6.83046 22.8755 6.79742 23.3394 6.43764C23.5701 6.2583 24.2053 5.80086 24.7506 5.42111C25.2959 5.04136 25.9265 4.59264 26.1522 4.42382C26.3779 4.255 26.8503 3.9141 27.202 3.66578C27.5663 3.4091 27.8419 3.16042 27.8419 3.08853C27.8419 2.94876 26.0711 2.00738 25.8083 2.00738C25.7569 2.00738 25.6248 1.95837 25.5148 1.89846C25.3109 1.78773 24.8356 1.61928 24.2168 1.43885C24.0282 1.38403 23.8011 1.29944 23.7125 1.25115C23.6236 1.20287 23.4822 1.16366 23.3979 1.16366C23.3137 1.16366 23.0869 1.10884 22.8937 1.0424C22.7009 0.975961 22.3856 0.894275 22.1931 0.860875C22.001 0.827838 21.5547 0.743611 21.2022 0.673906C19.7664 0.38964 19.3186 0.32175 18.5801 0.274917C17.9923 0.238249 17.8066 0.200856 17.8066 0.119533C17.8066 -0.0398444 11.3537 -0.0398444 11.2933 0.119533ZM63.0795 4.50732C60.7734 4.84096 59.5408 5.44543 58.0167 6.98947C55.867 9.16739 55.1111 11.7541 55.5721 15.3555C55.8981 17.9019 57.9778 20.7969 60.1746 21.7615C60.7888 22.0312 61.2444 22.2001 61.759 22.3482C63.4023 22.8212 66.2273 22.4749 67.5314 21.6406C67.5935 21.6007 67.7292 21.5259 67.8331 21.474C71.4147 19.6885 73.3087 13.3555 71.3808 9.61249C71.3451 9.54351 71.2426 9.33149 71.153 9.14162C70.4966 7.75478 68.8008 5.92611 67.7345 5.45596C67.6435 5.41603 67.5182 5.35104 67.4557 5.31147C66.9439 4.98836 65.9295 4.68267 65.0021 4.57267C64.545 4.51857 64.0865 4.45831 63.9833 4.4387C63.8805 4.41946 63.4738 4.45032 63.0795 4.50732ZM36.5492 4.95423C36.3903 5.37464 36.5242 5.49517 37.2077 5.54818C37.9922 5.60917 38.3857 5.8201 38.6492 6.32256L38.8206 6.64857L38.8414 13.4198C38.8614 20.1448 38.8606 20.1935 38.7035 20.5642C38.42 21.2351 38.055 21.4536 37.0477 21.5571C36.5913 21.6043 36.5556 21.6214 36.5346 21.8061C36.4896 22.1979 36.4435 22.1939 40.7586 22.1866C45.721 22.1786 46.9237 22.0792 48.215 21.5694C48.4017 21.4957 48.6392 21.4151 48.7431 21.3901C50.4168 20.9864 52.5215 18.562 53.2206 16.2323C53.7809 14.3659 53.6541 11.2389 52.9607 9.83213C52.9296 9.76896 52.8 9.49268 52.6729 9.21858C51.8291 7.39826 50.2854 5.98528 48.6017 5.49154C46.5549 4.89142 46.1078 4.85476 40.7614 4.84967C37.2312 4.84641 36.5838 4.86238 36.5492 4.95423ZM74.7549 4.95387C74.6835 5.02611 74.631 5.32962 74.5985 5.85568C74.5714 6.2917 74.4921 7.2142 74.4225 7.90544C74.2993 9.12455 74.3 9.16558 74.4364 9.26723C74.7774 9.52064 74.9727 9.3206 75.1584 8.52734C75.242 8.16901 75.3598 7.76712 75.4202 7.63424C75.4802 7.50137 75.5294 7.3547 75.5294 7.30823C75.5294 7.12707 76.1169 6.5756 76.5104 6.38681L76.9253 6.18823L80.1509 6.16608C82.2449 6.15156 83.3769 6.17044 83.3769 6.21945C83.3769 6.29932 83.2262 6.53167 82.4766 7.60738C82.227 7.96607 81.9046 8.43222 81.7603 8.64315C81.3139 9.29555 80.7194 10.1585 80.2234 10.8734C79.0057 12.6298 78.0094 14.0725 77.5788 14.7035C77.3199 15.0832 76.8907 15.7044 76.625 16.0842C76.3597 16.4639 75.9537 17.051 75.7234 17.3882C75.493 17.7259 75.1834 18.1746 75.0356 18.3855C74.8874 18.5968 74.6857 18.8902 74.5871 19.0379C74.4882 19.1853 74.1679 19.6515 73.8751 20.0733C73.5822 20.4952 73.2405 20.9889 73.1155 21.1705C72.8913 21.4965 72.8227 21.8817 72.952 22.0893C73.0448 22.2378 86.5317 22.2302 86.6781 22.0813C86.7338 22.0247 86.8263 21.6627 86.8831 21.2776C86.9402 20.8924 87.0081 20.542 87.0338 20.4992C87.0599 20.4567 87.1116 20.1706 87.1491 19.8638C87.1863 19.5571 87.2698 19.0648 87.3341 18.7693C87.5023 17.9985 87.4905 17.5302 87.3006 17.4267C87.0724 17.3026 86.8635 17.4543 86.8017 17.7898C86.5328 19.2474 85.3905 20.525 84.0693 20.8459C83.5083 20.9824 76.5104 21.0053 76.5104 20.8709C76.5104 20.7864 76.6739 20.5257 77.2238 19.7317C77.3835 19.5019 77.7027 19.0357 77.9341 18.6963C78.1651 18.3568 78.6165 17.699 78.9368 17.235C79.2575 16.7707 79.626 16.2359 79.756 16.046C79.8859 15.8562 80.3348 15.2001 80.7533 14.5884C81.1722 13.9767 81.6903 13.2172 81.9046 12.9006C82.6302 11.8296 84.3935 9.26287 85.7251 7.33909C85.9004 7.08568 86.2293 6.60246 86.4557 6.26483C86.6824 5.92756 86.9499 5.55144 87.0502 5.42982C87.1506 5.30784 87.2224 5.13539 87.2099 5.04608L87.1874 4.88416L81.0247 4.86456C75.7805 4.84786 74.846 4.86093 74.7549 4.95387ZM88.9764 4.93717C88.7264 5.19094 88.9271 5.51659 89.3956 5.61824C90.4569 5.84842 90.9122 6.25866 91.3903 7.41569C91.5431 7.78563 92.7733 10.6886 92.9265 11.0404C93.1633 11.5842 93.2579 11.8082 93.455 12.2871C93.5678 12.5612 93.7264 12.9409 93.8074 13.1308C93.8885 13.3207 94.0028 13.5882 94.061 13.7254C94.1192 13.8623 94.2145 14.0867 94.2727 14.2239C94.3309 14.3611 94.4499 14.6374 94.537 14.8378C94.6238 15.0382 94.7587 15.3486 94.8362 15.528C94.9141 15.7073 95.1194 16.1993 95.2922 16.6211C95.4654 17.0433 95.6532 17.4921 95.71 17.6184C95.7672 17.7451 95.8882 18.0214 95.9793 18.2323C96.0703 18.4432 96.1903 18.7195 96.2457 18.8459C96.301 18.9726 96.5035 19.4558 96.6956 19.9201C97.0855 20.8619 97.1869 21.1029 97.358 21.4925C97.423 21.6402 97.544 21.9238 97.6269 22.1227C97.9458 22.8873 98.3786 22.7112 98.7989 21.646C98.8738 21.4562 98.9963 21.1454 99.0713 20.9555C99.3266 20.3068 99.983 18.693 100.085 18.4625C100.195 18.216 100.392 17.724 100.654 17.0433C100.743 16.811 100.862 16.5176 100.918 16.3913C100.975 16.2646 101.111 15.9368 101.222 15.6623C101.333 15.3882 101.467 15.06 101.521 14.9337C101.575 14.807 101.711 14.4642 101.824 14.172C101.937 13.8794 102.056 13.586 102.089 13.52C102.121 13.4535 102.217 13.2266 102.301 13.0157C102.385 12.8048 102.589 12.3041 102.754 11.9033C102.919 11.5025 103.146 10.9354 103.259 10.6432C103.371 10.3506 103.49 10.0572 103.522 9.99078C103.555 9.92471 103.649 9.6978 103.732 9.48687C104.07 8.62681 104.223 8.25215 104.293 8.11528C104.334 8.03577 104.413 7.839 104.469 7.67781C104.819 6.66709 105.666 5.79432 106.503 5.58121C106.902 5.47992 107.058 5.17133 106.828 4.93789C106.651 4.75782 101.66 4.81119 101.564 4.99417C101.391 5.32272 101.568 5.6128 101.942 5.6128C102.226 5.6128 102.969 5.97149 103.111 6.17734C103.375 6.56108 103.15 7.68725 102.541 9.02653C102.503 9.11112 102.317 9.57691 102.128 10.0623C101.939 10.5473 101.735 11.036 101.673 11.1482C101.612 11.26 101.561 11.3943 101.561 11.4466C101.561 11.4985 101.497 11.6833 101.42 11.8565C101.341 12.03 101.21 12.3444 101.126 12.5553C100.778 13.4394 100.635 13.7955 100.539 14.013C100.484 14.1397 100.365 14.433 100.276 14.665C100.053 15.2448 99.8858 15.6659 99.5737 16.4294C99.4273 16.7881 99.2227 17.3051 99.1191 17.5785C98.8288 18.3449 98.8963 18.4258 97.9375 16.1611C97.5983 15.3592 97.253 14.5481 97.1702 14.3582C97.0873 14.1684 96.972 13.9008 96.9138 13.7636C96.8552 13.6267 96.7588 13.4023 96.6992 13.2651C96.6399 13.1279 96.366 12.4806 96.0914 11.8267C95.8164 11.1729 95.5618 10.5684 95.525 10.4842C95.4883 10.3999 95.3501 10.0717 95.2176 9.75553C95.0851 9.43895 94.8851 8.9728 94.773 8.71975C93.7871 6.49246 93.9167 5.77544 95.3401 5.57867C95.85 5.50824 95.9182 5.45415 95.8889 5.14447L95.8646 4.88416L92.4662 4.8642C89.8855 4.84895 89.0456 4.86637 88.9764 4.93717ZM108.382 4.95423C108.227 5.36375 108.362 5.49517 108.994 5.55253C109.751 5.62079 110.258 5.84842 110.486 6.22163L110.654 6.495V13.5145C110.654 19.902 110.642 20.5544 110.529 20.7638C110.258 21.263 109.822 21.4743 108.881 21.5618C108.395 21.6072 108.39 21.6105 108.367 21.8519C108.331 22.2237 108.34 22.2244 112.163 22.183L115.709 22.1445V21.8762C115.709 21.6243 115.693 21.6065 115.445 21.5869C114.195 21.4892 113.622 21.1254 113.448 20.3198C113.288 19.581 113.311 7.19895 113.473 6.59194C113.648 5.93918 114.274 5.53765 115.119 5.53656C115.514 5.5362 115.747 5.40804 115.747 5.19094C115.747 4.84895 115.713 4.84568 111.967 4.84568C108.98 4.84568 108.417 4.86274 108.382 4.95423ZM117.346 4.93789C117.027 5.26282 117.293 5.50461 118.029 5.55834C118.851 5.61824 119.186 5.81683 119.482 6.4184L119.708 6.87874V13.5588V20.2392L119.529 20.6284C119.256 21.2209 118.622 21.5694 117.817 21.5694C117.323 21.5694 117.141 21.9721 117.559 22.1441C117.681 22.1942 119.959 22.2142 124.094 22.2011L130.441 22.1812L130.639 21.7314C130.748 21.4841 130.838 21.2285 130.838 21.1639C130.838 21.0989 130.902 20.8615 130.98 20.6364C131.226 19.9314 131.652 18.5503 131.705 18.2897C131.733 18.1495 131.802 18.0406 131.862 18.0406C132.109 18.0406 131.997 17.3683 131.74 17.3109C131.45 17.2463 131.367 17.3182 131.105 17.8664C129.852 20.4843 128.885 20.9446 124.805 20.8644C122.851 20.8256 122.744 20.7983 122.48 20.265L122.308 19.9201L122.329 13.3225L122.349 6.72517L122.539 6.38137C122.827 5.8564 123.316 5.62514 124.286 5.55398C125.113 5.49299 125.239 5.40949 125.096 5.01849L125.033 4.84568H121.235C118.382 4.84568 117.415 4.86855 117.346 4.93789ZM64.9114 5.75729C66.86 6.25249 67.9888 7.62553 68.7647 10.4457C68.9187 11.0055 69.1404 13.023 69.0758 13.276C69.0476 13.386 69.0283 13.7349 69.0329 14.0515C69.1022 18.7678 66.9554 21.5397 63.3423 21.3992C61.0652 21.311 59.5386 19.5992 58.7055 16.1993C58.4431 15.1283 58.4088 11.7752 58.6516 10.9445C58.7134 10.7336 58.7852 10.433 58.8116 10.2765C58.838 10.12 58.9091 9.89566 58.9694 9.77767C59.0301 9.66005 59.0798 9.51846 59.0798 9.46364C59.0801 9.40845 59.1433 9.21858 59.2201 9.04141C59.2969 8.86461 59.3819 8.66784 59.409 8.60467C60.3724 6.34434 62.6278 5.17714 64.9114 5.75729ZM45.9267 6.35269C47.9207 7.04901 49.423 8.58724 50.0465 10.5709C50.4775 11.9422 50.4785 11.9483 50.4785 13.6082C50.4785 15.2662 50.4832 15.2339 50.0497 16.616C49.2673 19.112 46.9698 20.9519 44.4687 21.0859C43.3539 21.1458 41.8066 20.9563 41.5549 20.729C41.4867 20.6676 41.4753 6.55854 41.5431 6.44672C41.7952 6.03248 44.824 5.96749 45.9267 6.35269ZM29.6092 9.3068C29.0157 9.69272 28.7461 9.86735 28.144 10.254C27.8326 10.454 27.4591 10.6944 27.3138 10.7884C27.1688 10.8824 26.846 11.0894 26.5971 11.2484C26.3482 11.407 26.0522 11.6023 25.9401 11.6819C25.8276 11.7614 25.7187 11.8267 25.698 11.8267C25.4205 11.8267 24.9774 12.339 24.9759 12.6617C24.9749 12.942 24.7235 14.7431 24.5896 15.4321C24.5442 15.6641 24.4635 16.0784 24.4099 16.3528C24.235 17.2463 23.8679 18.5079 23.5397 19.3447C23.449 19.5767 23.334 19.87 23.2851 19.9967C22.4452 22.1612 19.6617 25.3934 16.4247 27.9627C15.5727 28.6387 15.5548 28.6423 14.8796 28.2749C13.193 27.3579 11.1712 25.2602 9.74749 22.9501C9.21293 22.0832 9.18793 22.0741 8.54053 22.5112C8.26271 22.6989 7.47497 23.2238 6.79007 23.6784C4.36294 25.2889 4.50292 25.1585 4.72324 25.6065C5.55133 27.2867 8.51982 30.569 10.6931 32.2067C12.3667 33.4679 12.8585 33.7642 14.7289 34.6366C14.9242 34.7277 15.0853 34.8457 15.087 34.8984C15.0917 35.0414 15.8448 35.0298 15.8448 34.8867C15.8448 34.8276 15.938 34.7408 16.0523 34.6943C16.1665 34.6479 16.4297 34.5128 16.6372 34.3944C16.8446 34.2757 17.2521 34.047 17.5424 33.8858C19.4743 32.8148 21.0722 31.6458 22.6763 30.129C24.4781 28.4259 26.3782 25.93 27.3831 23.9474C27.4149 23.8842 27.4788 23.7633 27.5248 23.6787C27.8941 23.0013 28.4151 21.6903 28.8357 20.3801C29.2514 19.0855 29.2764 18.9994 29.276 18.8676C29.276 18.7954 29.3267 18.5834 29.3892 18.3964C29.5335 17.9644 29.7238 16.9555 29.9916 15.202C30.2669 13.3994 30.398 9.44766 30.1909 9.19244C30.0537 9.02363 30.0402 9.02617 29.6092 9.3068ZM82.9391 25.1901C82.6548 25.4791 83.0998 26.182 83.6772 26.3562C84.4228 26.5817 85.2191 26.1021 85.1727 25.4559C85.1416 25.0195 84.6024 24.9534 84.4956 25.3731C84.3828 25.8153 83.8021 25.9057 83.7061 25.4958C83.6157 25.1102 83.1862 24.9392 82.9391 25.1901ZM129.635 26.679C129.285 26.9778 129.071 27.429 128.874 28.2807C128.663 29.1905 128.512 29.3942 128.049 29.3942H127.744V28.1617C127.744 26.7421 127.712 26.6325 127.298 26.6325C126.816 26.6325 126.829 26.5385 126.836 29.9798C126.843 33.3176 126.833 33.2262 127.22 33.2287C127.677 33.2312 127.703 33.1488 127.744 31.5678C127.782 30.1377 127.784 30.1225 127.953 30.0981C128.254 30.0549 128.637 30.3632 128.729 30.7226C128.774 30.899 128.859 31.2192 128.919 31.4338C128.978 31.6484 129.027 31.905 129.027 32.0041C129.027 32.7299 130.014 33.5195 130.522 33.2004C130.868 32.9829 130.762 32.3091 130.382 32.3091C130.19 32.3091 130.03 32.0742 129.97 31.7032C129.94 31.5177 129.868 31.2512 129.811 31.1114C129.753 30.9713 129.706 30.7763 129.706 30.6779C129.706 30.5795 129.591 30.3131 129.449 30.0854L129.193 29.6716L129.407 29.2835C129.526 29.07 129.656 28.6819 129.697 28.4209C129.794 27.8062 129.928 27.5568 130.243 27.4062C130.455 27.3045 130.502 27.237 130.521 27.0039C130.563 26.4982 130.061 26.3141 129.635 26.679ZM42.7472 26.842C42.6419 26.9995 42.5558 27.1956 42.5558 27.2776C42.5558 27.3597 42.4915 27.6367 42.413 27.8926C42.2773 28.3356 42.073 29.0497 41.8409 29.8927C41.7831 30.1036 41.6624 30.5353 41.5731 30.8515C40.9664 33.0007 40.9635 33.0131 41.0585 33.1292C41.1492 33.24 41.7066 33.2643 41.862 33.1641C41.9523 33.1056 42.2194 32.2078 42.3105 31.6571C42.374 31.2708 42.4451 31.2352 43.1496 31.2363C43.9852 31.2378 44.0463 31.3013 44.2573 32.3861C44.3752 32.992 44.5634 33.2298 44.9247 33.2298C45.3997 33.2298 45.4839 33.0965 45.3283 32.5912C45.2104 32.21 45.0669 31.705 44.7462 30.544C44.6648 30.2481 44.5277 29.7562 44.4416 29.4508C44.3559 29.1455 44.2384 28.7229 44.1806 28.512C44.1227 28.3011 44.0052 27.9013 43.9192 27.6243C43.8335 27.347 43.7631 27.0649 43.7631 26.997C43.7631 26.5421 43.0229 26.4292 42.7472 26.842ZM95.2062 26.7479C94.4224 27.2896 94.2045 27.9732 94.2045 29.8927C94.2045 31.5576 94.2449 31.7736 94.6962 32.5229C95.2329 33.4139 96.4756 33.6262 97.2434 32.9582C98.5635 31.8095 98.5128 27.7964 97.1655 26.789C96.7281 26.4619 95.6529 26.4394 95.2062 26.7479ZM105.289 26.7745C104.65 27.2497 104.402 27.812 104.271 29.086C103.983 31.8851 104.949 33.6281 106.611 33.3078C107.669 33.1038 108.533 31.2791 108.33 29.6799C108.088 27.7714 107.866 27.2057 107.171 26.7214C106.778 26.4477 105.687 26.4786 105.289 26.7745ZM37.0152 26.753C36.8599 26.911 36.8331 32.9811 36.9874 33.1376C37.1555 33.3089 39.0003 33.2592 39.4163 33.0719C40.5368 32.568 40.8057 30.7662 39.8819 29.9497C39.6445 29.7398 39.643 29.6923 39.8641 29.4192C40.5765 28.5392 40.3394 27.1912 39.3991 26.7766C38.9553 26.5809 37.2016 26.5635 37.0152 26.753ZM46.3717 26.753C46.2053 26.9222 46.1906 33.0047 46.3563 33.1448C46.4299 33.2069 47.2019 33.2262 49.0538 33.2116L51.648 33.1913L51.6677 30.0168C51.6887 26.6256 51.6894 26.6325 51.3138 26.6325C50.8096 26.6325 50.8221 26.5642 50.7803 29.5605L50.7424 32.271H50.1011H49.4598L49.4401 29.5543C49.4187 26.6608 49.4151 26.6325 49.0441 26.6325C48.5121 26.6325 48.5181 26.6002 48.4974 29.5859L48.4789 32.271H47.8375H47.1962L47.1765 29.5543C47.163 27.7049 47.1298 26.8046 47.073 26.7349C46.958 26.5944 46.5163 26.6056 46.3717 26.753ZM55.8181 26.7665C55.7231 26.8761 55.6921 27.2431 55.6503 28.7422C55.5739 31.5104 55.4207 32.1247 54.7522 32.3476C54.1105 32.5611 54.468 33.4796 55.1214 33.2959C56.0966 33.0221 56.4337 32.0365 56.4941 29.2791C56.5351 27.4181 56.5126 27.4762 57.194 27.4762C57.9132 27.4762 57.8682 27.2863 57.891 30.4365L57.9107 33.1913L58.222 33.2145C58.8002 33.2574 58.7784 33.3852 58.7784 29.9311C58.7784 27.2537 58.7637 26.8587 58.6598 26.753C58.4731 26.5632 55.9845 26.5751 55.8181 26.7665ZM60.2553 26.753C60.076 26.9353 60.076 32.9266 60.2553 33.1093C60.4174 33.2741 60.912 33.2657 61.0598 33.0955C61.187 32.9492 61.5437 32.1777 62.3903 30.2187C62.4678 30.0393 62.5867 29.7667 62.6546 29.6128C62.7221 29.4585 62.7778 29.3005 62.7778 29.2617C62.7778 29.2225 62.8624 29.1096 62.9663 29.0105L63.1549 28.8304V30.9379C63.1549 33.2534 63.1502 33.2298 63.6134 33.2298C64.0712 33.2298 64.0608 33.3053 64.0658 29.9253C64.0704 26.4626 64.0979 26.6325 63.5323 26.6325C63.1181 26.6325 63.0431 26.7302 62.4714 28.0132C62.1797 28.6674 61.8611 29.375 61.7633 29.5859C61.6658 29.7968 61.5058 30.1845 61.4083 30.4478C61.122 31.2196 61.0809 31.0421 61.0673 28.9687C61.0516 26.5893 61.0588 26.6325 60.672 26.6325C60.5017 26.6325 60.3232 26.6841 60.2553 26.753ZM65.3995 26.7153C65.2813 26.7853 65.2678 26.9433 65.2678 28.2412V29.689L65.5127 30.015C65.9891 30.6485 67.0857 30.9103 67.7495 30.549C68.0313 30.3958 68.0595 30.5073 68.0595 31.7703C68.0595 33.2349 68.0581 33.2298 68.4673 33.2298C68.9861 33.2298 68.9651 33.3714 68.9651 29.9311C68.9651 26.5156 68.9815 26.6325 68.4998 26.6325C68.0913 26.6325 68.0595 26.7443 68.0595 28.1882C68.0595 29.7151 68.0716 29.6937 67.1975 29.7209C66.624 29.7391 66.6094 29.7347 66.3933 29.4886L66.173 29.2381V28.0273C66.173 27.188 66.1451 26.7882 66.0826 26.7243C65.9727 26.6129 65.5813 26.6078 65.3995 26.7153ZM70.4416 26.753C70.3377 26.8587 70.3231 27.2562 70.3231 29.9595C70.3231 33.3333 70.3088 33.2298 70.7759 33.2298C71.2126 33.2298 71.2283 33.1793 71.2297 31.7761C71.2312 30.2129 71.1572 30.3254 72.1964 30.3094C73.2448 30.2938 73.1455 30.1453 73.1905 31.7976L73.228 33.1913L73.5922 33.2149C74.2054 33.2548 74.1714 33.4473 74.1714 29.937C74.1714 26.5577 74.1807 26.6325 73.7529 26.6325C73.318 26.6325 73.2723 26.7686 73.2491 28.1322L73.228 29.3557H72.2471H71.2662L71.2455 28.0956C71.2326 27.3252 71.1926 26.7959 71.1419 26.7338C71.028 26.594 70.5859 26.6064 70.4416 26.753ZM75.6544 26.7726C75.4695 26.9803 75.4634 32.845 75.648 33.0327C76.013 33.4037 78.0637 33.1535 78.5404 32.6798C79.806 31.4218 79.0104 29.4643 77.1821 29.3368C76.4165 29.2835 76.4222 29.2947 76.444 27.9384C76.4565 27.1571 76.4347 26.8398 76.3633 26.7519C76.229 26.5878 75.808 26.6002 75.6544 26.7726ZM79.837 26.7396C79.7128 26.8917 79.7128 32.9706 79.837 33.1227C79.9442 33.2537 80.4455 33.2639 80.5698 33.1376C80.6887 33.017 80.7005 27.005 80.5823 26.7806C80.488 26.6016 79.9727 26.573 79.837 26.7396ZM82.2027 26.7414C82.011 26.8837 81.9706 32.8711 82.1599 33.1031C82.3034 33.2788 82.8634 33.2737 83.0141 33.0955C83.1123 32.9793 83.7539 31.664 83.7539 31.579C83.7539 31.562 83.8768 31.2791 84.0268 30.9506C84.1767 30.622 84.3585 30.215 84.4306 30.0462C84.5031 29.8774 84.6502 29.5329 84.7581 29.2802C85.0916 28.4978 85.1123 28.5919 85.1123 30.9067C85.1123 33.2523 85.108 33.2298 85.5651 33.2298C86.0322 33.2298 86.0175 33.3358 86.0175 29.9311C86.0175 26.5094 86.0354 26.6325 85.5447 26.6325C85.0334 26.6325 85.0045 26.6674 84.4331 27.975C84.3596 28.1435 84.2074 28.4888 84.0953 28.7422C83.9832 28.9952 83.8321 29.3405 83.7593 29.5093C83.0769 31.0958 83.0751 31.094 83.0751 28.7476C83.0751 27.1462 83.0576 26.8561 82.9562 26.753C82.8087 26.6027 82.3977 26.5966 82.2027 26.7414ZM89.4552 26.8028C89.3163 27.0046 89.2763 32.6721 89.4113 33.033C89.5095 33.2951 90.1112 33.3267 90.243 33.0766C90.2962 32.9753 90.3208 32.0245 90.3158 30.2782C90.3112 28.8235 90.329 27.5978 90.3555 27.5546C90.4219 27.4454 92.0299 27.4512 92.0966 27.5612C92.1252 27.6076 92.1434 28.7901 92.1373 30.1885C92.1248 33.1717 92.1263 33.1822 92.5844 33.2156C93.1268 33.2556 93.1104 33.3572 93.1104 29.9718C93.1104 26.2052 93.3518 26.6325 91.2239 26.6325C89.6031 26.6325 89.5706 26.6354 89.4552 26.8028ZM99.1609 26.789C99.0056 26.936 98.9956 27.0141 98.9906 28.1123C98.9877 28.7538 98.9552 29.6589 98.9185 30.1228C98.6621 33.3663 98.6503 33.2298 99.1841 33.2298C99.6591 33.2298 99.6701 33.1869 99.7337 31.0882C99.8012 28.8562 99.8512 28.7781 100.276 30.2379C100.85 32.2078 101.181 32.279 101.707 30.5447C102.36 28.3911 102.344 28.3817 102.392 30.9666C102.434 33.2803 102.423 33.2298 102.888 33.2298C103.371 33.2298 103.394 33.131 103.3 31.4349C103.257 30.671 103.186 29.3557 103.141 28.512C103.042 26.6575 103.035 26.6325 102.587 26.6325C102.184 26.6325 102.006 26.834 101.832 27.486C101.709 27.9467 101.61 28.2546 101.401 28.8202C101.323 29.0319 101.26 29.2453 101.26 29.2947C101.26 30.0128 100.975 29.8106 100.697 28.8954C100.583 28.5156 100.424 28.0208 100.346 27.7953C100.267 27.5702 100.203 27.3226 100.203 27.2453C100.203 26.7676 99.5059 26.4622 99.1609 26.789ZM109.406 26.7882C109.201 26.997 109.203 33.0229 109.409 33.1546C109.474 33.1964 110.553 33.228 111.951 33.2287C114.696 33.2298 114.507 33.18 114.476 33.8956C114.464 34.1563 114.496 34.5099 114.547 34.682L114.639 34.9942H115.032C115.512 34.9942 115.521 34.9702 115.521 33.5986C115.521 32.585 115.478 32.4391 115.145 32.3211L114.917 32.2405V29.5158C114.917 26.4836 114.943 26.6325 114.403 26.6325C114.017 26.6325 114.015 26.6456 113.993 29.5543L113.974 32.271H113.295H112.615L112.578 29.5256C112.536 26.5131 112.558 26.6358 112.073 26.6336C111.712 26.6318 111.713 26.6223 111.672 29.5474L111.634 32.271H110.956H110.276L110.239 29.5783C110.209 27.4526 110.179 26.859 110.098 26.7592C109.955 26.5846 109.591 26.6002 109.406 26.7882ZM116.366 26.7243C116.27 26.822 116.227 32.8609 116.321 33.1085C116.377 33.2559 116.952 33.2777 117.09 33.1376C117.153 33.0737 117.181 32.6598 117.182 31.7761C117.183 30.1885 117.098 30.3051 118.243 30.3312L119.18 30.353L119.201 31.6897C119.224 33.1964 119.241 33.2487 119.702 33.2145L120.01 33.1913L120.03 30.0168C120.051 26.586 120.056 26.6314 119.643 26.6336C119.192 26.6358 119.184 26.6605 119.142 28.0676L119.105 29.3557H118.161H117.218L117.198 28.0956C117.185 27.3252 117.144 26.7959 117.094 26.7338C116.99 26.6071 116.487 26.6005 116.366 26.7243ZM121.606 26.7726C121.494 26.8982 121.482 27.2312 121.482 29.9446C121.482 33.3166 121.468 33.2298 121.99 33.2298C122.441 33.2298 122.427 33.2487 123.064 31.8106C123.138 31.6418 123.317 31.2446 123.459 30.9284C123.603 30.6119 123.868 30.0016 124.05 29.5721C124.231 29.1426 124.407 28.8079 124.44 28.8286C124.473 28.8493 124.5 29.8066 124.5 30.956C124.5 33.2479 124.496 33.2298 124.952 33.2298C125.42 33.2298 125.405 33.3358 125.405 29.9311C125.405 26.5094 125.423 26.6325 124.932 26.6325C124.5 26.6325 124.369 26.74 124.111 27.3074C123.593 28.4503 123.489 28.6841 123.09 29.6146C122.399 31.2272 122.379 31.2029 122.391 28.7712C122.398 27.3713 122.376 26.8264 122.309 26.7443C122.18 26.5864 121.757 26.6035 121.606 26.7726ZM96.5585 27.4729C97.0705 27.7903 97.2277 28.3766 97.2069 29.8927C97.1784 31.9889 96.7077 32.8428 95.8314 32.3882C94.7998 31.8531 94.8205 27.9021 95.8575 27.4396C96.1796 27.2958 96.2806 27.3005 96.5585 27.4729ZM106.693 27.4955C107.203 27.8473 107.258 28.084 107.258 29.8927C107.257 31.8008 107.17 32.1102 106.557 32.4133L106.231 32.5741L105.957 32.4224C105.321 32.0695 105.047 30.4721 105.3 28.5988C105.436 27.592 106.087 27.0765 106.693 27.4955ZM39.0281 27.6915C39.3466 28.015 39.2592 29.0301 38.8921 29.2748C38.6228 29.4541 37.9586 29.5267 37.8715 29.3866C37.7647 29.2152 37.7858 27.6773 37.8965 27.5612C38.0411 27.4087 38.8406 27.5009 39.0281 27.6915ZM43.3503 28.9146C43.376 29.0729 43.4625 29.424 43.5424 29.6948C43.7667 30.4554 43.7499 30.4884 43.1454 30.4884C42.6344 30.4884 42.6012 30.4307 42.7808 29.8585C42.8647 29.5921 42.9329 29.3147 42.9329 29.2421C42.9329 28.7062 43.2728 28.4394 43.3503 28.9146ZM77.6438 30.3152C78.3033 30.6576 78.374 31.7751 77.762 32.1828C77.4967 32.3596 76.4715 32.3632 76.4054 32.1878C76.3283 31.9838 76.3543 30.4677 76.4375 30.3094C76.5475 30.1007 77.236 30.104 77.6438 30.3152ZM39.217 30.5676C39.5348 30.8907 39.5255 31.7315 39.1999 32.0771C38.9831 32.3073 38.9567 32.3142 38.4079 32.2928L37.8397 32.271L37.8183 31.351C37.7929 30.2575 37.7958 30.2528 38.5107 30.3138C38.9228 30.349 39.0456 30.3933 39.217 30.5676Z" fill="#484848"/>
</svg>
