<svg width="116" height="29" viewBox="0 0 116 29" fill="none" xmlns="http://www.w3.org/2000/svg">
<path fill-rule="evenodd" clip-rule="evenodd" d="M0.619158 1.0054C0.32764 1.19073 0.19384 1.61687 0.322518 1.95264C0.680653 2.89074 115.112 2.89074 115.47 1.95264C115.598 1.61687 115.465 1.19073 115.173 1.0054C114.474 0.560375 1.31835 0.560375 0.619158 1.0054ZM1.17885 5.94584C1.06669 6.12831 1.04903 8.40204 1.13956 10.999L1.30411 15.7192L3.57306 15.8324L5.84258 15.9451L5.96272 14.6884L6.08342 13.4311L9.49965 13.3362C15.5515 13.1674 17.6946 11.1477 15.732 7.46338C14.8785 5.86118 2.05398 4.52382 1.17885 5.94584ZM20.726 6.43376C20.2927 6.90052 19.938 7.4199 19.938 7.5875C19.938 7.75453 19.1693 9.28751 18.2298 10.9938C15.8874 15.2478 15.9262 15.9137 18.5145 15.8976C19.6612 15.8908 20.8199 15.6482 21.2441 15.3256C22.269 14.5471 26.8837 14.5557 27.5294 15.3382C27.8425 15.7169 28.692 15.9102 30.0432 15.9102C32.734 15.9102 32.7198 15.4463 29.857 9.99909L27.6524 5.80455L24.5829 5.69415C21.8209 5.59519 21.4348 5.66898 20.726 6.43376ZM34.3618 10.7799V15.9463L36.7344 15.833C38.8109 15.7335 39.1087 15.6242 39.1207 14.9561C39.1617 12.751 41.5752 12.5548 43.8015 14.5752C45.115 15.7678 45.4999 15.9102 47.4084 15.9102C49.871 15.9102 50.327 15.0579 48.5961 13.6903C48.0746 13.2778 47.6476 12.8128 47.6476 12.6578C47.6476 12.5022 48.0746 11.9771 48.5961 11.4915C49.6233 10.5351 49.8539 8.81217 49.1353 7.46338C48.3502 5.98988 46.5447 5.61407 40.2577 5.61407H34.3618V10.7799ZM51.3246 5.86003C51.1811 6.00418 51.0638 6.8662 51.0638 7.77455V9.42708H53.5309H55.998V12.6687V15.9102H58.4896H60.9811L60.8963 12.7642L60.812 9.61813L63.2444 9.42708L65.6773 9.2366V7.52058V5.80455L58.6319 5.70102C54.7568 5.64439 51.4686 5.71589 51.3246 5.86003ZM67.6388 5.86804C67.4993 6.00819 67.3854 8.32482 67.3854 11.0161V15.9102H69.6629H71.9404V13.4311C71.9404 12.068 72.0457 10.9526 72.1744 10.9526C72.3031 10.9526 73.4316 12.068 74.6819 13.4311L76.9549 15.9102H79.7619H82.5689V10.7427V5.57575L80.3865 5.69015L78.2035 5.80455V8.18868C78.2035 10.8279 77.9 11.0768 76.5734 9.52261C73.209 5.58032 73.2614 5.61407 70.4703 5.61407C69.052 5.61407 67.7777 5.72847 67.6388 5.86804ZM84.6357 6.10371C84.5287 6.38285 84.4899 8.66059 84.5491 11.1654L84.6568 15.7192L91.4186 15.8239L98.1811 15.928L98.0615 14.6798L97.9419 13.4311L93.646 13.323C89.8232 13.2269 89.3643 13.1434 89.4776 12.5605C89.5881 11.9931 90.0163 11.9233 92.7048 12.0349C96.2907 12.1842 97.2165 11.9742 97.4824 10.9538C97.8201 9.65646 96.8584 9.33156 93.1154 9.47914C90.0151 9.60212 89.5944 9.54091 89.4776 8.9506C89.3581 8.34713 89.7498 8.28306 93.5731 8.28306H97.8001L97.6811 7.04409L97.5621 5.80455L91.196 5.69987C86.169 5.6175 84.7889 5.70216 84.6357 6.10371ZM99.9028 5.86804C99.7639 6.00819 99.65 8.32482 99.65 11.0161V15.9102H102.093H104.536L104.655 14.6707C104.841 12.7384 107.233 12.6841 109.255 14.566C110.573 15.7918 110.899 15.9102 112.968 15.9102C115.463 15.9102 116.326 15.1758 114.978 14.2005C112.555 12.4479 112.642 12.6292 113.792 11.7203C115.877 10.0729 115.104 6.72949 112.464 5.96872C111.065 5.56545 100.29 5.47908 99.9028 5.86804ZM10.4089 9.01352C11.5847 9.76113 10.5376 10.5711 8.39507 10.5711C6.2827 10.5711 5.6581 10.2125 6.03787 9.2183C6.27644 8.59309 9.51047 8.44151 10.4089 9.01352ZM44.1602 9.71309C44.0161 10.4739 39.8688 10.9172 39.1987 10.2439C38.4454 9.48714 39.4093 9.04612 41.8144 9.04612C43.9643 9.04612 44.2701 9.13307 44.1602 9.71309ZM109.448 9.71309C109.241 10.8073 104.585 10.916 104.585 9.82691C104.585 9.11934 104.818 9.04612 107.08 9.04612C109.251 9.04612 109.558 9.1325 109.448 9.71309ZM25.4125 11.1934C25.6169 11.8799 25.4728 12.0337 24.4878 12.179C22.9989 12.3981 22.7922 12.0314 23.5626 10.5351C24.2339 9.23145 24.8995 9.46826 25.4125 11.1934ZM0.271841 20.0092C0.393117 20.6413 3.43983 20.6768 57.8963 20.6768C112.353 20.6768 115.399 20.6413 115.52 20.0092C115.641 19.376 112.694 19.3423 57.8963 19.3423C3.09821 19.3423 0.150565 19.376 0.271841 20.0092ZM1.80231 23.749C-1.04511 25.7528 3.09536 29.1208 6.44384 27.5243C8.1064 26.7315 8.17302 25.5795 6.54746 25.7293C5.97866 25.7819 5.04432 25.8678 4.46982 25.9204C3.75298 25.9856 3.42616 25.8363 3.42616 25.4433C3.42616 24.9897 3.87824 24.8919 5.60857 24.9703C7.85702 25.0721 8.28518 24.7409 7.24892 23.7004C6.50305 22.9505 2.89095 22.9831 1.80231 23.749ZM9.39432 23.749C7.62927 24.9909 8.78908 27.4557 11.3666 27.9419C14.1571 28.4675 16.5695 25.5463 14.8068 23.7754C13.9914 22.9557 10.545 22.9391 9.39432 23.749ZM16.2962 23.6838C15.7673 25.0687 16.3196 27.5392 17.1862 27.6627C17.8284 27.7542 18.0402 27.5946 18.0402 27.0181C18.0402 25.8374 18.6005 25.7539 19.5696 26.7898C21.3426 28.686 22.5952 28.1175 22.5952 25.417C22.5952 22.9248 21.2179 22.0599 20.7112 24.233L20.5045 25.1201L19.5855 24.138C18.5794 23.062 16.6362 22.7938 16.2962 23.6838ZM23.6992 23.9836C23.3337 24.6694 23.3764 24.8982 23.948 25.3181C24.3278 25.5966 24.4348 25.8249 24.186 25.8249C23.2984 25.8249 23.7169 27.363 24.7076 27.7411C28.3937 29.1488 31.088 26.5582 29.1783 23.4413C28.7188 22.6914 24.1467 23.1433 23.6992 23.9836ZM30.3557 23.57C30.0403 24.0837 30.5146 24.5636 31.515 24.7426C32.0878 24.8444 32.3036 25.2288 32.3924 26.3048C32.5211 27.8686 34.3129 28.5453 34.4023 27.0644C34.4245 26.6972 34.4672 26.0537 34.4974 25.6344C34.5355 25.103 34.8686 24.8347 35.5957 24.7506C36.333 24.6654 36.6393 24.4137 36.6393 23.8926C36.6393 23.0437 30.8625 22.7469 30.3557 23.57ZM37.3568 24.1088C37.2178 27.2474 37.3186 27.7314 38.1112 27.7314C38.5035 27.7314 39.037 27.474 39.2966 27.1593C39.5562 26.8447 39.9833 26.5873 40.2457 26.5873C40.5077 26.5873 40.9347 26.8447 41.1943 27.1593C42.3103 28.5104 43.2782 27.8664 43.3431 25.7305C43.4166 23.3046 43.2378 23.169 39.9611 23.1616C37.4906 23.1559 37.3972 23.1896 37.3568 24.1088ZM44.5001 23.3938C43.8943 24.0024 44.2393 26.4769 45.0302 27.196C47.2114 29.1791 50.8463 27.5598 50.6083 24.7106C50.4404 22.7028 48.6912 22.6794 48.4066 24.6808C48.2619 25.6979 48.0359 26.0153 47.4574 26.0153C46.8789 26.0153 46.6535 25.6979 46.5088 24.6808C46.3238 23.3829 45.2175 22.6731 44.5001 23.3938ZM52.0397 23.7548C49.6603 26.1452 53.54 29.2123 56.8002 27.5186C58.4281 26.6731 57.9823 26.0153 55.7805 26.0153C54.3195 26.0153 53.9004 25.8746 53.7962 25.3484C53.6841 24.7764 53.9688 24.6808 55.7805 24.6808C57.9151 24.6808 58.2738 24.4503 57.4408 23.6129C56.7535 22.9231 52.7634 23.0277 52.0397 23.7548ZM58.6552 23.8926C58.6552 24.4137 58.9616 24.6654 59.6989 24.7506C60.6053 24.8559 60.7585 25.0601 60.861 26.3013C60.9612 27.5203 61.1121 27.7314 61.8819 27.7314C62.6511 27.7314 62.802 27.5203 62.9028 26.3013C62.9973 25.1527 63.1886 24.8473 63.8747 24.7495C64.4236 24.6711 64.7287 24.3645 64.7287 23.8915C64.7287 23.2256 64.4389 23.1553 61.6917 23.1553C58.9433 23.1553 58.6552 23.2256 58.6552 23.8926ZM65.6517 23.6569C65.0658 25.1922 65.6551 27.5409 66.6265 27.5409C68.018 27.5409 68.1068 23.4218 66.7198 23.2239C66.2296 23.1541 65.7735 23.3395 65.6517 23.6569ZM69.2103 23.8228C67.7498 25.5314 68.609 27.4986 71.0146 27.9516C74.1695 28.5465 76.5438 25.8735 74.5977 23.9184C73.5796 22.895 70.0564 22.8327 69.2103 23.8228ZM76.5671 23.4842C75.6988 24.0373 76.1287 27.5409 77.0648 27.5409C77.563 27.5409 77.8659 27.2463 77.9456 26.6829C78.1039 25.564 78.5406 25.5983 79.4857 26.8053C80.0483 27.5237 80.5374 27.7531 81.3163 27.6633C82.8023 27.4923 82.9931 23.4339 81.5252 23.2245C80.8824 23.1324 80.6712 23.292 80.6712 23.8692C80.6712 25.0463 80.1103 25.1333 79.2124 24.0957C78.3806 23.1347 77.4531 22.9202 76.5671 23.4842ZM13.2951 25.4433C13.2951 26.3231 11.0654 26.2098 10.8952 25.3215C10.7847 24.7443 10.9755 24.6482 12.0288 24.7495C12.8476 24.8284 13.2951 25.0738 13.2951 25.4433ZM41.1943 25.0624C41.1943 25.2717 40.8629 25.4433 40.4576 25.4433C40.0527 25.4433 39.6154 25.2717 39.4862 25.0624C39.3535 24.8462 39.6724 24.6808 40.223 24.6808C40.7576 24.6808 41.1943 24.8524 41.1943 25.0624ZM73.0091 25.3484C72.8138 26.3814 70.8017 26.4912 70.8017 25.4691C70.8017 24.8433 71.0425 24.6808 71.9683 24.6808C72.8742 24.6808 73.1071 24.8301 73.0091 25.3484Z" fill="#484848"/>
</svg>
