<svg width="328" height="63" viewBox="0 0 328 63" fill="none" xmlns="http://www.w3.org/2000/svg">
<path d="M96.7305 12.4293H80.6937V30.0161H96.6706C98.976 30.0161 100.764 29.1415 102.036 27.3929C103.308 25.6044 103.944 23.5178 103.944 21.1332C103.944 18.7088 103.308 16.662 102.036 14.9928C100.804 13.2838 99.0356 12.4293 96.7305 12.4293ZM103.288 48.795L96.015 33.8909H80.6937V48.795H76.4609V8.55425H97.0285C100.407 8.55425 103.129 9.78633 105.196 12.2505C107.302 14.7146 108.356 17.6358 108.356 21.014C108.356 23.7563 107.64 26.3198 106.209 28.7046C104.778 31.0494 102.811 32.6192 100.307 33.4141L107.819 48.795H103.288ZM117.645 12.9658C116.771 12.9658 116.056 12.6678 115.499 12.0716C114.903 11.4754 114.605 10.7601 114.605 9.92543C114.605 9.13055 114.903 8.43502 115.499 7.83887C116.056 7.24272 116.771 6.94464 117.645 6.94464C118.44 6.94464 119.136 7.24272 119.732 7.83887C120.288 8.47476 120.566 9.17029 120.566 9.92543C120.566 10.7203 120.288 11.4357 119.732 12.0716C119.136 12.6678 118.44 12.9658 117.645 12.9658ZM115.44 48.795V19.2851H119.493V48.795H115.44ZM143.267 22.3255C139.094 22.3255 135.497 24.5909 132.476 29.1218V48.795H128.422V19.2851H131.343L132.059 24.7698C135.159 20.5967 139.094 18.5101 143.863 18.5101C147.599 18.5101 150.58 19.6627 152.805 21.9678C155.071 24.2332 156.203 27.1942 156.203 30.8506V48.795H152.209V31.3277C152.209 28.6249 151.374 26.4589 149.705 24.8294C148.076 23.1602 145.929 22.3255 143.267 22.3255ZM185.913 25.7236C183.727 23.3788 181.064 22.2063 177.924 22.2063C174.785 22.2063 172.161 23.3986 170.055 25.7832C167.949 28.1283 166.895 30.8706 166.895 34.0101C166.895 37.1898 167.949 39.972 170.055 42.3564C172.161 44.7012 174.785 45.8738 177.924 45.8738C181.104 45.8738 183.767 44.7012 185.913 42.3564C188.099 39.972 189.192 37.1898 189.192 34.0101C189.192 30.791 188.099 28.0288 185.913 25.7236ZM178.342 61.5528C173.851 61.5528 169.221 60.5392 164.451 58.5124L165.763 55.2932C169.856 57.0816 173.95 57.976 178.044 57.976C181.342 57.976 183.966 57.1215 185.913 55.4125C187.9 53.7034 188.894 51.2591 188.894 48.0794V44.2643C187.503 45.8936 185.794 47.1854 183.767 48.1394C181.78 49.093 179.733 49.5702 177.626 49.5702C173.374 49.5702 169.817 48.0399 166.955 44.9795C164.093 41.9194 162.663 38.2629 162.663 34.0101C162.663 29.7576 164.114 26.1211 167.015 23.1005C169.916 20.0403 173.473 18.5101 177.686 18.5101C182.296 18.5101 186.191 20.398 189.371 24.1736L190.205 19.2851H192.948V48.0794C192.948 52.4913 191.616 55.8297 188.953 58.0952C186.29 60.4002 182.753 61.5528 178.342 61.5528ZM225.742 45.1583C222.801 48.0995 219.184 49.5702 214.892 49.5702C210.599 49.5702 207.003 48.0794 204.101 45.0987C201.2 42.1179 199.75 38.4816 199.75 34.1892C199.75 29.8172 201.2 26.1211 204.101 23.1005C207.003 20.0403 210.599 18.5101 214.892 18.5101C219.264 18.5101 222.9 20.0403 225.801 23.1005C228.703 26.1608 230.153 29.8571 230.153 34.1892C230.153 38.5211 228.683 42.1775 225.742 45.1583ZM214.892 45.8738C218.111 45.8738 220.754 44.7411 222.821 42.4756C224.887 40.1705 225.921 37.4084 225.921 34.1892C225.921 31.8045 225.325 29.6384 224.132 27.691C222.98 25.7038 221.35 24.1736 219.244 23.1005C217.893 22.5044 216.442 22.2063 214.892 22.2063C211.712 22.2063 209.089 23.3986 207.023 25.7832C204.995 28.1678 203.982 30.9698 203.982 34.1892C203.982 36.5341 204.559 38.72 205.711 40.7468C206.903 42.7739 208.553 44.1846 210.659 44.9795C211.971 45.5758 213.382 45.8738 214.892 45.8738ZM234.019 45.4566L235.688 42.3564C239.742 44.7411 244.094 45.9334 248.744 45.9334C251.01 45.9334 252.699 45.4962 253.812 44.6219C254.964 43.7476 255.501 42.6744 255.421 41.4027C255.381 40.6872 255.163 40.0316 254.766 39.4352C254.408 38.8392 254.01 38.3821 253.573 38.064C253.136 37.7463 252.5 37.4282 251.665 37.1104C250.871 36.7923 250.235 36.5937 249.758 36.5141C249.321 36.3948 248.665 36.2358 247.791 36.0372C246.241 35.6796 244.909 35.3217 243.796 34.9641C242.723 34.6065 241.511 34.0898 240.16 33.4141C238.809 32.7384 237.755 31.8641 237 30.791C236.285 29.6783 235.927 28.4062 235.927 26.9756C235.927 24.114 237.02 21.9877 239.206 20.5967C241.432 19.2056 244.054 18.5101 247.075 18.5101C248.069 18.5101 249.102 18.5697 250.175 18.689C252.242 19.0467 254.309 19.5832 256.375 20.2986C257.448 20.7755 258.303 21.2326 258.939 21.6698L257.389 24.7102C254.408 23.0012 251.089 22.1467 247.433 22.1467C245.247 22.1467 243.458 22.5441 242.068 23.339C240.676 24.2134 240.001 25.3858 240.04 26.8563C240.12 28.0885 240.676 29.0819 241.71 29.837C242.783 30.6319 244.75 31.3475 247.612 31.9833C249.122 32.3014 250.434 32.6389 251.546 32.9969C252.699 33.3545 253.951 33.8909 255.302 34.6065C256.693 35.2822 257.766 36.1762 258.521 37.2892C259.277 38.3624 259.654 39.614 259.654 41.0448C259.694 42.3168 259.455 43.4496 258.939 44.4431C257.111 47.8611 253.514 49.5702 248.148 49.5702C242.982 49.5702 238.272 48.199 234.019 45.4566ZM278.863 45.9334V49.5702C276.359 49.5702 274.074 49.1329 272.007 48.2586C269.98 47.3445 268.609 45.8541 267.894 43.7871C267.417 42.6744 267.178 41.3826 267.178 39.9123V22.8621H263.72V19.2851H267.178V11.7735L271.232 10.0447V19.2851H278.327V21.9678L277.73 22.8621H271.232V39.7931C271.192 41.5815 271.749 43.0521 272.901 44.2047C274.054 45.3572 276.041 45.9334 278.863 45.9334ZM287.557 44.6219C288.789 45.5758 290.379 46.0527 292.326 46.0527C294.273 46.0527 296.022 45.6552 297.572 44.8603C299.122 44.0654 300.93 42.8931 302.997 41.3431V33.4737L293.995 34.3085C293.16 34.3878 292.087 34.5469 290.776 34.7853C287.437 35.5802 285.768 37.4282 285.768 40.3296C285.768 42.2371 286.364 43.6679 287.557 44.6219ZM304.249 48.795L303.295 44.5623C298.923 47.9006 294.929 49.5702 291.312 49.5702C288.093 49.5702 285.649 48.6758 283.98 46.8874C282.31 45.3374 281.476 43.2109 281.476 40.5084C281.476 37.4483 282.549 35.1827 284.695 33.7121C286.881 32.2415 289.584 31.3873 292.803 31.1486L302.997 30.4333V28.1082C302.997 24.0941 300.215 22.0871 294.651 22.0871C291.034 22.0871 287.716 22.6832 284.695 23.8756L283.622 20.5371C287.199 19.1858 290.975 18.5101 294.949 18.5101C298.486 18.5101 301.368 19.2454 303.593 20.7159C305.859 22.1864 306.991 24.5909 306.991 27.9294V48.795H304.249ZM328 45.9334V49.5702C325.496 49.5702 323.21 49.1329 321.144 48.2586C319.117 47.3445 317.746 45.8541 317.03 43.7871C316.553 42.6744 316.315 41.3826 316.315 39.9123V22.8621H312.857V19.2851H316.315V11.7735L320.369 10.0447V19.2851H327.463V21.9678L326.867 22.8621H320.369V39.7931C320.329 41.5815 320.885 43.0521 322.038 44.2047C323.191 45.3572 325.178 45.9334 328 45.9334Z" fill="#767676"/>
<path fill-rule="evenodd" clip-rule="evenodd" d="M0 0.718384H38.7751C39.2111 0.718384 39.6433 0.734724 40.071 0.766824C34.045 0.701548 28.0271 0.716398 22.0102 0.731246C19.4203 0.737637 16.8307 0.744028 14.2406 0.744028H13.818C14.9548 1.04833 16.0917 1.36106 17.1989 1.75831C19.2485 2.48078 21.0421 3.78672 22.3591 5.5154C23.9566 7.59469 24.4891 9.97823 24.3496 12.552C24.2974 14.7417 23.5234 16.8529 22.1478 18.5574C20.6158 20.4339 18.7973 22.057 16.7594 23.3668C16.5608 23.4809 16.4636 23.5696 16.6622 23.7894C17.3902 24.5989 18.1137 25.4135 18.8373 26.2282L18.8374 26.2283L18.8377 26.2286C20.2144 27.7786 21.5916 29.3291 23.0015 30.8471C24.8525 32.8367 26.7364 34.7976 28.6202 36.7584L28.6204 36.7586C29.4334 37.6047 30.2463 38.4509 31.0566 39.2993C31.1215 39.3671 31.1808 39.4387 31.2433 39.5141L31.2434 39.5142L31.2434 39.5142C31.2744 39.5516 31.3061 39.59 31.3397 39.6293L27.384 42.8876C27.3419 42.8079 27.2939 42.7315 27.2403 42.6594C26.7031 42.0598 26.1645 41.4612 25.6257 40.8624L25.6254 40.8621L25.6252 40.8619C24.5577 39.6755 23.4897 38.4884 22.431 37.292C19.7854 34.3 17.144 31.3035 14.5068 28.3029C14.0404 27.7677 13.574 27.2321 13.1073 26.6962L13.1068 26.6956C12.0261 25.4545 10.9442 24.212 9.85806 22.9695C9.63829 22.7117 9.68478 22.5215 9.98908 22.4201C12.0572 21.7307 13.9862 20.6789 15.686 19.3139C17.0009 18.3014 18.0065 16.9415 18.5893 15.3877C18.9566 14.2726 19.1142 13.0991 19.0542 11.9265C19.0574 10.9236 18.8327 9.93302 18.397 9.02961C17.9614 8.1262 17.3263 7.33353 16.5397 6.71139C15.3466 5.8116 13.958 5.20633 12.4867 4.94487C10.8818 4.6436 9.25101 4.50204 7.61818 4.52223H4.55843V4.97866V41.8606C4.5528 43.8047 4.90669 45.7334 5.60229 47.5491C6.71052 50.4208 8.65166 52.8958 11.1766 54.6562C13.7015 56.4169 16.6949 57.3827 19.7727 57.4298C24.3737 57.4467 28.9768 57.4411 33.5791 57.4355L33.5889 57.4354C35.8866 57.4326 38.1841 57.4298 40.4811 57.4298C43.2936 57.4371 46.0517 56.652 48.4387 55.1646C49.3641 54.6684 50.1873 54.0016 50.8646 53.1994C52.6692 50.8285 52.4663 48.0644 50.3532 45.9767C49.2574 44.9664 48.0041 44.1412 46.6428 43.534C45.7231 43.0886 44.7943 42.6593 43.8664 42.2304L43.8661 42.2303C43.016 41.8373 42.1666 41.4448 41.326 41.0406C39.4988 40.2049 37.7931 39.1258 36.2549 37.833C32.4724 34.4986 32.5526 29.3047 34.2769 26.3082C35.6372 23.9743 37.7417 22.1647 40.2529 21.1692C42.6422 20.2183 45.183 19.7044 47.7541 19.652C48.8712 19.6067 49.9915 19.6303 51.1119 19.6539C51.7678 19.6677 52.4238 19.6816 53.0791 19.6816H55.8475V19.3942V17.5227C55.8489 17.6126 55.8496 17.7025 55.8496 17.7927V50.1787C55.8496 56.8709 50.4245 62.296 43.7323 62.296H19.2775C8.63081 62.296 0 53.6653 0 43.0186V0.718384ZM55.8091 43.6232V24.1827C55.7208 24.1764 55.6336 24.17 55.5473 24.1635C55.1097 24.131 54.6971 24.1003 54.2875 24.1109C53.7588 24.0833 53.229 24.0599 52.6985 24.0366C52.1734 24.0134 51.6477 23.9903 51.122 23.9629C48.9997 23.7976 46.8646 23.94 44.7828 24.3856C42.9868 24.8082 41.3259 25.4717 40.0581 26.879C39.3245 27.674 38.8733 28.6885 38.7742 29.7653C38.6748 30.8424 38.9329 31.9222 39.5085 32.8379C40.1174 33.755 40.9284 34.5199 41.8794 35.0735C43.0797 35.792 44.2842 36.4894 45.552 37.0937C47.78 38.0908 49.9563 39.1995 52.073 40.4156C53.237 41.0969 54.2904 41.9517 55.1963 42.9511C55.3863 43.1625 55.5724 43.3654 55.8091 43.6232Z" fill="#767676"/>
<path d="M44.3828 39.3832C56.8854 40.7603 60.0248 53.0429 49.2847 57.6694" stroke="#767676" stroke-width="4"/>
</svg>
