<svg aria-hidden="true" style="position: absolute; width: 0; height: 0; overflow: hidden;" version="1.1" xmlns="http://www.w3.org/2000/svg" xmlns:xlink="http://www.w3.org/1999/xlink">
<defs>
<symbol id="icon-mail" viewBox="0 0 32 32">
<path d="M28 3.556h-24c-1.061 0.001-2.077 0.419-2.827 1.161s-1.172 1.749-1.173 2.799v16.97c0.001 1.050 0.423 2.056 1.173 2.799s1.767 1.16 2.827 1.161h24c1.060-0.001 2.077-0.419 2.827-1.161s1.172-1.749 1.173-2.799v-16.97c-0.001-1.050-0.423-2.056-1.173-2.799s-1.767-1.16-2.827-1.161zM26.987 10.105l-10.286 7.919c-0.201 0.154-0.447 0.238-0.701 0.238s-0.501-0.084-0.701-0.238l-10.286-7.919c-0.121-0.090-0.222-0.204-0.299-0.333s-0.126-0.273-0.146-0.421c-0.020-0.149-0.010-0.3 0.030-0.444s0.108-0.28 0.201-0.399c0.093-0.118 0.209-0.217 0.341-0.291s0.277-0.121 0.428-0.138c0.15-0.018 0.303-0.005 0.448 0.036s0.281 0.111 0.4 0.204l9.584 7.379 9.584-7.379c0.24-0.179 0.541-0.258 0.839-0.219s0.568 0.192 0.752 0.427c0.184 0.235 0.268 0.532 0.233 0.827s-0.186 0.565-0.421 0.751z"></path>
</symbol>
<symbol id="icon-phone" viewBox="0 0 32 32">
<path d="M23.54 31.995c-2.308-0.085-8.849-0.989-15.699-7.836-6.848-6.849-7.751-13.386-7.837-15.695-0.128-3.519 2.568-6.937 5.682-8.271 0.375-0.162 0.786-0.224 1.192-0.179s0.793 0.194 1.124 0.434c2.564 1.868 4.334 4.695 5.853 6.918 0.334 0.488 0.477 1.082 0.402 1.669s-0.365 1.125-0.812 1.513l-3.127 2.322c-0.151 0.109-0.257 0.269-0.299 0.451s-0.016 0.372 0.072 0.536c0.708 1.287 1.968 3.203 3.411 4.645 1.444 1.442 3.451 2.785 4.827 3.573 0.173 0.097 0.376 0.124 0.568 0.076s0.358-0.168 0.464-0.335l2.035-3.097c0.374-0.497 0.926-0.83 1.54-0.929s1.243 0.043 1.755 0.397c2.255 1.561 4.887 3.299 6.813 5.765 0.259 0.333 0.424 0.73 0.477 1.148s-0.007 0.844-0.174 1.231c-1.341 3.129-4.736 5.794-8.267 5.664z"></path>
</symbol>
<symbol id="icon-telegram" viewBox="0 0 32 32">
<path  d="M28.685 2.711c0.393-0.163 0.824-0.22 1.247-0.163s0.823 0.224 1.158 0.484c0.335 0.261 0.594 0.605 0.748 0.997s0.199 0.818 0.13 1.233l-3.611 21.591c-0.35 2.083-2.668 3.277-4.606 2.239-1.621-0.868-4.028-2.205-6.193-3.6-1.083-0.698-4.399-2.935-3.991-4.526 0.35-1.361 5.923-6.474 9.107-9.514 1.25-1.194 0.68-1.883-0.796-0.785-3.667 2.728-9.55 6.876-11.495 8.043-1.716 1.030-2.611 1.205-3.681 1.030-1.952-0.32-3.762-0.816-5.24-1.42-1.997-0.816-1.899-3.522-0.002-4.31l27.226-11.3z"></path>
</symbol>
<symbol id="icon-viber" viewBox="0 0 30 32">
<path d="M26.223 13.429c0.036-4.512-3.702-8.649-8.333-9.221-0.1-0.013-0.2-0.028-0.299-0.047-0.233-0.046-0.469-0.072-0.706-0.078-0.95 0-1.204 0.687-1.27 1.094-0.065 0.398-0.003 0.733 0.184 0.994 0.314 0.438 0.868 0.516 1.313 0.579 0.129 0.019 0.252 0.036 0.355 0.059 4.162 0.956 5.563 2.459 6.247 6.701 0.017 0.103 0.024 0.231 0.034 0.367 0.030 0.507 0.091 1.562 1.194 1.562 0.091 0 0.191-0.008 0.295-0.023 1.026-0.161 0.994-1.125 0.979-1.588-0.005-0.131-0.009-0.254 0.003-0.337 0.002-0.021 0.003-0.042 0.003-0.062l0.002 0.002z"></path>
<path d="M16.615 2.553c0.124 0.009 0.24 0.019 0.337 0.033 6.835 1.081 9.978 4.409 10.848 11.49 0.015 0.12 0.018 0.267 0.020 0.421 0.009 0.554 0.027 1.705 1.229 1.729h0.036c0.378 0 0.677-0.117 0.892-0.348 0.373-0.401 0.349-0.999 0.326-1.479-0.005-0.119-0.009-0.229-0.009-0.328 0.088-7.24-6.011-13.807-13.048-14.050-0.030 0-0.058 0-0.085 0.005-0.028 0.004-0.056 0.005-0.083 0.005-0.071 0-0.156-0.006-0.249-0.012-0.109-0.008-0.235-0.017-0.364-0.017-1.12 0-1.333 0.819-1.36 1.308-0.062 1.128 0.999 1.208 1.509 1.245zM27.471 23.226c-0.147-0.115-0.292-0.231-0.436-0.349-0.747-0.618-1.541-1.186-2.307-1.737l-0.478-0.343c-0.984-0.71-1.867-1.055-2.702-1.055-1.126 0-2.107 0.64-2.917 1.899-0.358 0.558-0.794 0.83-1.33 0.83-0.372-0.013-0.737-0.107-1.072-0.276-3.172-1.479-5.44-3.748-6.736-6.742-0.627-1.448-0.423-2.393 0.678-3.164 0.627-0.437 1.791-1.25 1.711-2.809-0.094-1.768-3.89-7.090-5.49-7.694-0.684-0.256-1.434-0.259-2.119-0.006-1.838 0.635-3.156 1.752-3.816 3.227-0.637 1.426-0.607 3.1 0.082 4.842 1.996 5.035 4.801 9.426 8.339 13.049 3.462 3.546 7.718 6.45 12.648 8.633 0.445 0.197 0.911 0.304 1.252 0.382 0.115 0.027 0.216 0.050 0.288 0.070 0.040 0.011 0.082 0.017 0.123 0.017h0.039c2.319 0 5.105-2.178 5.959-4.661 0.75-2.175-0.619-3.25-1.718-4.113zM17.641 8.305c-0.396 0.009-1.223 0.031-1.513 0.896-0.137 0.406-0.12 0.755 0.049 1.044 0.246 0.421 0.718 0.552 1.146 0.624 1.556 0.256 2.356 1.139 2.515 2.782 0.074 0.765 0.577 1.3 1.219 1.3 0.049-0 0.097-0.003 0.146-0.009 0.774-0.094 1.149-0.679 1.116-1.738 0.012-1.105-0.549-2.359-1.507-3.358-0.959-1.002-2.116-1.567-3.169-1.54z"></path>
</symbol>
<symbol id="icon-whatsapp" viewBox="0 0 32 32">
<path d="M22.167 1.2c-1.935-0.798-4.011-1.206-6.106-1.199-8.781 0-15.929 7.112-15.929 15.856 0 2.794 0.736 5.526 2.128 7.926l-2.261 8.218 8.448-2.206c2.335 1.266 4.952 1.93 7.612 1.932h0.006c8.781 0 15.935-7.112 15.935-15.856 0.005-2.084-0.404-4.148-1.206-6.074s-1.978-3.674-3.462-5.144l0.002-0.002c-1.476-1.479-3.233-2.652-5.168-3.451zM20.608 17.888c0.364 0.132 2.324 1.088 2.719 1.288l0.002-0.002c0.075 0.038 0.145 0.072 0.21 0.103 0.284 0.138 0.473 0.23 0.549 0.373 0.1 0.164 0.1 0.956-0.233 1.882s-1.923 1.77-2.689 1.882c-0.685 0.1-1.552 0.144-2.506-0.156-0.577-0.188-1.319-0.432-2.267-0.838-3.709-1.592-6.221-5.16-6.722-5.871-0.039-0.055-0.065-0.093-0.079-0.111l-0.005-0.007c-0.22-0.293-1.62-2.16-1.62-4.093 0-1.828 0.906-2.788 1.319-3.225 0.028-0.029 0.053-0.056 0.076-0.081 0.364-0.394 0.798-0.494 1.061-0.494s0.527 0 0.76 0.012c0.030 0.002 0.061 0.002 0.093 0.002 0.233-0.001 0.525-0.002 0.806 0.681 0.024 0.058 0.050 0.121 0.078 0.19 0.36 0.878 1.053 2.568 1.146 2.754 0.101 0.2 0.165 0.432 0.032 0.694-0.020 0.041-0.039 0.080-0.057 0.117-0.098 0.203-0.169 0.349-0.339 0.545-0.070 0.081-0.142 0.169-0.213 0.256-0.133 0.162-0.265 0.324-0.384 0.438-0.203 0.194-0.41 0.412-0.177 0.806s1.035 1.694 2.217 2.744c1.263 1.122 2.367 1.601 2.931 1.845 0.114 0.050 0.206 0.089 0.273 0.123 0.396 0.2 0.627 0.162 0.86-0.1 0.233-0.268 0.999-1.162 1.262-1.556 0.269-0.4 0.535-0.332 0.898-0.2z"></path>
</symbol>
</defs>
</svg>
